<svg id="Calque_1" data-name="Calque 1" xmlns="http://www.w3.org/2000/svg" viewBox="0 0 1080 1080"><defs><style>.cls-1{fill:#5d657f;}.cls-2{fill:#d7e491;}.cls-3{fill:#748738;}.cls-4{fill:#6d7c31;}.cls-5{fill:#bdc967;}.cls-6{fill:#e5362c;}.cls-7{fill:#9a1c20;}.cls-8{fill:#37803d;}.cls-9{fill:#f16f6c;}.cls-10{fill:#e8e7e7;}.cls-11{fill:#50a3d9;}.cls-12{fill:#d1d1d1;}.cls-13{fill:#eb4b24;}.cls-14{fill:#429ed7;}.cls-15{fill:#f2b61a;}.cls-16{fill:#cc9fc8;}</style></defs><polyline class="cls-1" points="55.86 785.42 1036.1 830.89 925.4 627.95 55.86 785.42"/><polygon class="cls-2" points="55.86 697.07 130.71 522.02 874.68 522.02 958.49 697.07 55.86 697.07"/><rect class="cls-3" x="55.86" y="697.07" width="902.64" height="88.36"/><polygon class="cls-4" points="55.86 697.07 958.49 697.07 958.49 741.25 55.86 719.15 55.86 697.07"/><polyline class="cls-5" points="245.41 637.53 488.46 676.82 591.04 522.02 397.4 523.14 245.41 637.53"/><path class="cls-5" d="M665.52,595.27S723,634,818.55,626.46c48.17-3.83-34.79-51.63-75.54-60s-77.49,28.83-77.49,28.83"/><path class="cls-6" d="M703.48,471.46c-8.66-1.91-20.76-6-32.34-5.19s-40.73,10-45.92,42.63c-5.3,33.36,5.59,75.55,47.52,89.12s81.67,1,97.81-33.53c14.37-30.78,6.79-80.65-21.56-91C723.71,464.19,717.31,474.5,703.48,471.46Z"/><path class="cls-7" d="M720.11,473.45c-8.84.85-17.35,1.93-26.75-1.31s-7.8,4.6,3.62,7.88C714.46,485,732.79,472.24,720.11,473.45Z"/><path class="cls-8" d="M703.48,477.05s-6-18,0-27.95,14.37-6.39,11.18,0-10.78,23.16-8.39,27.95Z"/><path class="cls-9" d="M758.71,492.23c4.57,7.4,13.46,40.38,0,69.46,0,0,1.91-38.43-10.77-56.54C735.12,486.83,750.39,478.75,758.71,492.23Z"/><path class="cls-10" d="M478.92,523s-7,18.58,4,27.89l-53.33,85.92-263.56-6.77s-7.89-35.53,1.13-46.28L429,590.42Z"/><polygon class="cls-11" points="429.04 590.42 165.84 584.02 250.14 501.81 491.69 505.76 429.04 590.42"/><path class="cls-11" d="M482.94,550.91l-53.33,85.92-263.56-6.77s-5.4-37,2.12-46.28c0,0,2.67-2.29-2.12,0-6.77,3.25-18.34,28.36-3.34,50.94L436,644l58-93.12Z"/><path class="cls-12" d="M428.23,636.83c-12.5-26.74-1-45.56-.53-46.41H429c-.11.19-11.16,21.34.57,46.41Z"/><rect class="cls-12" x="292.41" y="464.11" width="0.85" height="252.24" transform="translate(-306.68 863.55) rotate(-88.12)"/><polygon class="cls-12" points="418.87 597.89 166.77 590.84 166.8 589.99 418.9 597.04 418.87 597.89"/><rect class="cls-12" x="292.41" y="473.75" width="0.85" height="252.38" transform="translate(-320.34 863.94) rotate(-87.28)"/><rect class="cls-12" x="291.94" y="478.02" width="0.85" height="253.22" transform="translate(-322.68 874.39) rotate(-87.88)"/><polygon class="cls-12" points="418.87 614.05 166.77 605.05 166.8 604.21 418.9 613.2 418.87 614.05"/><polygon class="cls-12" points="418.87 618.63 166.77 611.44 166.8 610.59 418.9 617.79 418.87 618.63"/><rect class="cls-12" x="292.41" y="494.42" width="0.85" height="252.23" transform="translate(-336.72 893.44) rotate(-88.17)"/><polygon class="cls-12" points="422.41 630.91 166.78 624.98 166.79 624.13 422.43 630.06 422.41 630.91"/><polygon class="cls-12" points="418.87 627.95 166.77 620.96 166.8 620.11 418.9 627.1 418.87 627.95"/><rect class="cls-12" x="415.3" y="562.76" width="72.21" height="0.84" transform="translate(-270.07 583.49) rotate(-52.9)"/><rect class="cls-12" x="415.3" y="568.26" width="72.21" height="0.84" transform="translate(-274.46 585.68) rotate(-52.9)"/><polygon class="cls-12" points="428.25 606.19 427.58 605.68 472.87 545.86 473.55 546.37 428.25 606.19"/><polygon class="cls-12" points="426.36 614.86 425.67 614.36 472.87 550.66 473.55 551.16 426.36 614.86"/><rect class="cls-12" x="410.81" y="584.14" width="83.31" height="0.84" transform="translate(-286.46 605.13) rotate(-53.85)"/><polygon class="cls-12" points="428.26 624.28 427.57 623.78 476.67 555.74 477.36 556.24 428.26 624.28"/><polygon class="cls-12" points="429.96 630.72 429.25 630.25 472.85 562.95 473.56 563.41 429.96 630.72"/><path class="cls-10" d="M520.09,493.15S511.4,511,521.48,521.3l-61.15,80.54L198.56,570.4s-4.52-36.12,5.46-46l260.09,31.15Z"/><polygon class="cls-13" points="464.11 555.58 202.67 524.54 294.31 450.59 534.42 477.16 464.11 555.58"/><path class="cls-13" d="M521.48,521.3l-61.15,80.54L198.56,570.4s-1.91-37.34,6.45-45.88c0,0,2.88-2-2.11-.2-7.05,2.6-20.92,26.52-8.1,50.4L466,609.6l66.47-87.27Z"/><path class="cls-12" d="M459,601.71c-9.95-27.79,3.25-45.46,3.82-46.26l1.33.13c-.13.18-13.11,20.2-3.78,46.26Z"/><rect class="cls-12" x="328.1" y="416.51" width="0.85" height="252.24" transform="translate(-251.26 799.97) rotate(-82.74)"/><polygon class="cls-12" points="453.29 562.07 202.96 531.41 203.06 530.57 453.4 561.22 453.29 562.07"/><polygon class="cls-12" points="452.49 570.5 202.62 534.93 202.74 534.09 452.61 569.65 452.49 570.5"/><polygon class="cls-12" points="452.17 573.86 201.12 540.81 201.24 539.97 452.29 573.03 452.17 573.86"/><polygon class="cls-12" points="451.77 578.15 201.63 545.57 201.74 544.73 451.88 577.31 451.77 578.15"/><polygon class="cls-12" points="451.34 582.72 201.03 551.92 201.13 551.08 451.45 581.88 451.34 582.72"/><polygon class="cls-12" points="450.75 589.04 200.51 557.4 200.62 556.56 450.86 588.2 450.75 589.04"/><rect class="cls-12" x="326.36" y="452.07" width="0.85" height="255.7" transform="translate(-287.32 836.74) rotate(-83.29)"/><polygon class="cls-12" points="450.47 591.99 200.13 561.4 200.24 560.56 450.58 591.15 450.47 591.99"/><polygon class="cls-12" points="464.85 557.46 464.22 556.89 513.02 503.66 513.65 504.23 464.85 557.46"/><polygon class="cls-12" points="464.33 562.94 463.71 562.37 512.51 509.14 513.13 509.71 464.33 562.94"/><rect class="cls-12" x="449.37" y="542.84" width="75.03" height="0.84" transform="translate(-242.58 534.99) rotate(-47.48)"/><polygon class="cls-12" points="459.15 579.66 458.52 579.1 511.47 520.1 512.1 520.66 459.15 579.66"/><rect class="cls-12" x="446.33" y="551.52" width="83.31" height="0.84" transform="translate(-248.74 551.17) rotate(-48.46)"/><polygon class="cls-12" points="460.16 589.22 459.53 588.66 514.79 525.52 515.42 526.08 460.16 589.22"/><polygon class="cls-12" points="461.25 595.78 460.59 595.26 510.31 532.34 510.97 532.87 461.25 595.78"/><path class="cls-10" d="M486.6,429.23s-7.16,18.51,3.75,27.93l-54.21,85.38-263.48-9.46s-7.53-35.61,1.6-46.27l261.79,9.31Z"/><polygon class="cls-8" points="436.05 496.12 172.92 487.04 258.06 405.69 499.55 412.1 436.05 496.12"/><path class="cls-8" d="M490.35,457.16l-54.21,85.38-263.48-9.46s-5-37,2.59-46.26c0,0,2.7-2.27-2.12,0-6.8,3.18-18.63,28.17-3.86,50.9l273.14,12.1,58.94-92.52Z"/><path class="cls-12" d="M434.76,542.52c-12.23-26.86-.56-45.57-.05-46.42l1.34,0c-.12.19-11.39,21.23.09,46.42Z"/><rect class="cls-12" x="299.42" y="368.43" width="0.85" height="252.24" transform="translate(-207.13 772.85) rotate(-87.54)"/><polygon class="cls-12" points="425.8 503.49 173.78 493.86 173.82 493.02 425.84 502.64 425.8 503.49"/><rect class="cls-12" x="299.33" y="378.06" width="0.85" height="252.38" transform="translate(-220.96 774.41) rotate(-86.69)"/><rect class="cls-12" x="298.8" y="382.33" width="0.85" height="253.22" transform="translate(-223.27 783.79) rotate(-87.29)"/><polygon class="cls-12" points="425.63 519.64 173.63 508.08 173.68 507.23 425.67 518.8 425.63 519.64"/><polygon class="cls-12" points="425.59 524.23 173.57 514.46 173.61 513.61 425.63 523.38 425.59 524.23"/><rect class="cls-12" x="299.11" y="398.73" width="0.85" height="252.23" transform="matrix(0.04, -1, 1, 0.04, -237.45, 802.03)"/><polygon class="cls-12" points="428.99 536.54 173.44 528.01 173.47 527.16 429.03 535.69 428.99 536.54"/><polygon class="cls-12" points="425.5 533.54 173.48 523.99 173.51 523.14 425.53 532.7 425.5 533.54"/><polygon class="cls-12" points="436.93 497.93 436.26 497.42 480.44 440.3 481.11 440.81 436.93 497.93"/><rect class="cls-12" x="422.53" y="474.19" width="72.21" height="0.85" transform="translate(-197.07 549.87) rotate(-52.53)"/><polygon class="cls-12" points="435.1 511.88 434.43 511.37 480.32 452.01 480.99 452.52 435.1 511.88"/><rect class="cls-12" x="417.05" y="488.25" width="79.28" height="0.85" transform="translate(-208.21 561.25) rotate(-53.17)"/><rect class="cls-12" x="417.87" y="490.08" width="83.31" height="0.84" transform="matrix(0.6, -0.8, 0.8, 0.6, -208.36, 565.93)"/><polygon class="cls-12" points="434.92 529.97 434.24 529.47 484.03 461.93 484.71 462.44 434.92 529.97"/><polygon class="cls-12" points="436.55 536.43 435.86 535.96 480.13 469.1 480.84 469.57 436.55 536.43"/><path class="cls-10" d="M466.31,368.14s-7.16,18.5,3.75,27.93l-54.21,85.37L152.37,472s-7.53-35.61,1.6-46.27L415.76,435Z"/><polygon class="cls-14" points="415.76 435.02 152.63 425.94 237.77 344.59 479.26 351 415.76 435.02"/><path class="cls-14" d="M470.06,396.07l-54.21,85.37L152.37,472s-5-37,2.59-46.26c0,0,2.7-2.26-2.12,0-6.8,3.18-18.63,28.17-3.86,50.9l273.14,12.1,58.94-92.52Z"/><path class="cls-12" d="M414.47,481.43c-12.23-26.87-.56-45.58-.05-46.42h1.34c-.12.19-11.39,21.23.09,46.42Z"/><rect class="cls-12" x="279.13" y="307.33" width="0.85" height="252.24" transform="translate(-165.51 694.11) rotate(-87.54)"/><polygon class="cls-12" points="405.51 442.39 153.49 432.76 153.53 431.92 405.55 441.54 405.51 442.39"/><rect class="cls-12" x="279.04" y="316.96" width="0.85" height="252.38" transform="translate(-179.08 696.58) rotate(-86.69)"/><rect class="cls-12" x="278.52" y="321.23" width="0.85" height="253.22" transform="translate(-181.57 705.31) rotate(-87.29)"/><polygon class="cls-12" points="405.34 458.55 153.35 446.98 153.39 446.13 405.39 457.7 405.34 458.55"/><polygon class="cls-12" points="405.3 463.13 153.28 453.36 153.32 452.52 405.34 462.29 405.3 463.13"/><rect class="cls-12" x="278.82" y="337.63" width="0.85" height="252.23" transform="translate(-195.84 723.24) rotate(-87.59)"/><polygon class="cls-12" points="408.71 475.44 153.15 466.91 153.18 466.06 408.74 474.59 408.71 475.44"/><polygon class="cls-12" points="405.21 472.45 153.19 462.89 153.22 462.04 405.24 471.6 405.21 472.45"/><polygon class="cls-12" points="416.64 436.83 415.97 436.32 460.15 379.2 460.82 379.71 416.64 436.83"/><rect class="cls-12" x="402.24" y="413.09" width="72.21" height="0.85" transform="translate(-156.55 509.64) rotate(-52.51)"/><rect class="cls-12" x="399.91" y="420.42" width="75.03" height="0.84" transform="matrix(0.61, -0.79, 0.79, 0.61, -163.35, 507.61)"/><polygon class="cls-12" points="412.82 459.44 412.14 458.93 459.98 395.71 460.66 396.22 412.82 459.44"/><rect class="cls-12" x="397.58" y="428.98" width="83.31" height="0.84" transform="matrix(0.6, -0.8, 0.8, 0.6, -167.53, 525.03)"/><polygon class="cls-12" points="414.63 468.87 413.95 468.37 463.74 400.83 464.42 401.34 414.63 468.87"/><polygon class="cls-12" points="416.26 475.33 415.57 474.86 459.84 408 460.55 408.47 416.26 475.33"/><path class="cls-10" d="M199.72,320.18s7.17,18.51-3.74,27.93l54.21,85.38L513.67,424s7.52-35.61-1.6-46.27l-261.79,9.31Z"/><polygon class="cls-15" points="250.28 387.07 513.41 377.99 428.27 296.64 186.77 303.05 250.28 387.07"/><path class="cls-15" d="M196,348.11l54.21,85.38L513.67,424s5-37-2.59-46.26c0,0-2.71-2.27,2.11,0,6.8,3.18,18.63,28.17,3.86,50.9l-273.13,12.1L185,348.23Z"/><path class="cls-12" d="M251.56,433.47c12.23-26.86.56-45.57.06-46.42l-1.34,0c.11.19,11.38,21.23-.09,46.42Z"/><rect class="cls-12" x="260.36" y="385.07" width="252.24" height="0.85" transform="translate(-16.22 16.97) rotate(-2.46)"/><polygon class="cls-12" points="260.52 394.44 512.54 384.81 512.51 383.97 260.49 393.59 260.52 394.44"/><rect class="cls-12" x="260.38" y="394.78" width="252.38" height="0.85" transform="translate(-22.16 22.96) rotate(-3.31)"/><rect class="cls-12" x="260.49" y="399.46" width="253.22" height="0.85" transform="translate(-18.46 18.73) rotate(-2.71)"/><polygon class="cls-12" points="260.69 410.59 512.69 399.03 512.64 398.18 260.65 409.75 260.69 410.59"/><polygon class="cls-12" points="260.74 415.18 512.76 405.41 512.72 404.56 260.7 414.33 260.74 415.18"/><rect class="cls-12" x="260.67" y="415.37" width="252.23" height="0.85" transform="matrix(1, -0.04, 0.04, 1, -17.15, 16.64)"/><polygon class="cls-12" points="257.33 427.49 512.89 418.95 512.86 418.11 257.3 426.64 257.33 427.49"/><rect class="cls-12" x="260.72" y="418.87" width="252.2" height="0.85" transform="translate(-15.62 14.96) rotate(-2.17)"/><polygon class="cls-12" points="249.4 388.88 250.06 388.37 205.88 331.25 205.21 331.76 249.4 388.88"/><rect class="cls-12" x="227.27" y="329.46" width="0.85" height="72.21" transform="translate(-175.48 214.13) rotate(-37.5)"/><rect class="cls-12" x="228.19" y="335.38" width="0.84" height="75.03" transform="translate(-180.86 219.12) rotate(-37.9)"/><rect class="cls-12" x="229.21" y="339.98" width="0.85" height="79.28" transform="translate(-181.61 213.12) rotate(-36.79)"/><rect class="cls-12" x="226.38" y="339.79" width="0.84" height="83.31" transform="translate(-183.03 211.21) rotate(-36.71)"/><polygon class="cls-12" points="251.41 420.92 252.09 420.42 202.3 352.88 201.62 353.38 251.41 420.92"/><polygon class="cls-12" points="249.78 427.37 250.47 426.9 206.19 360.05 205.49 360.52 249.78 427.37"/><path class="cls-10" d="M488.34,275.14s-8.85,17.76,1.14,28.16l-61.89,80L166.12,349.46s-4.2-36.16,5.88-45.92l259.8,33.51Z"/><polygon class="cls-16" points="431.8 337.05 170.65 303.64 262.95 230.53 502.81 259.29 431.8 337.05"/><path class="cls-16" d="M489.48,303.3l-61.89,80L166.12,349.46s-1.57-37.35,6.87-45.82c0,0,2.89-2-2.11-.22-7.07,2.54-21.16,26.33-8.56,50.33l270.84,37.34,67.26-86.66Z"/><path class="cls-12" d="M426.22,383.14c-9.69-27.88,3.67-45.42,4.25-46.22l1.33.13c-.13.19-13.3,20.09-4.21,46.23Z"/><polygon class="cls-12" points="421.23 340.36 171.32 306.22 171.43 305.38 421.35 339.53 421.23 340.36"/><polygon class="cls-12" points="420.92 343.45 170.88 310.51 170.99 309.68 421.03 342.6 420.92 343.45"/><polygon class="cls-12" points="420.04 351.87 170.51 314.03 170.63 313.19 420.16 351.03 420.04 351.87"/><polygon class="cls-12" points="419.69 355.23 168.95 319.89 169.07 319.05 419.81 354.4 419.69 355.23"/><polygon class="cls-12" points="419.25 359.52 169.41 324.66 169.53 323.82 419.37 358.68 419.25 359.52"/><polygon class="cls-12" points="418.78 364.08 168.75 331 168.87 330.17 418.9 363.24 418.78 364.08"/><polygon class="cls-12" points="418.13 370.39 168.19 336.48 168.3 335.64 418.24 369.55 418.13 370.39"/><polygon class="cls-12" points="421.03 376.65 167.37 344.48 167.48 343.64 421.14 375.81 421.03 376.65"/><polygon class="cls-12" points="417.83 373.34 167.78 340.48 167.9 339.64 417.94 372.5 417.83 373.34"/><polygon class="cls-12" points="432.51 338.94 431.89 338.37 481.18 285.59 481.8 286.17 432.51 338.94"/><polygon class="cls-12" points="431.95 344.42 431.33 343.84 480.61 291.06 481.24 291.64 431.95 344.42"/><rect class="cls-12" x="417.17" y="324.53" width="75.03" height="0.84" transform="translate(-93.81 432.11) rotate(-46.61)"/><polygon class="cls-12" points="426.61 361.1 425.98 360.53 479.48 302.01 480.1 302.58 426.61 361.1"/><rect class="cls-12" x="414.04" y="333.22" width="83.31" height="0.84" transform="translate(-97.12 449.23) rotate(-48.02)"/><polygon class="cls-12" points="427.54 370.66 426.91 370.09 482.74 307.46 483.37 308.03 427.54 370.66"/><polygon class="cls-12" points="428.56 377.24 427.92 376.7 478.2 314.24 478.86 314.77 428.56 377.24"/><path class="cls-10" d="M195.42,240.67s9.67,17.32.17,28.18l65.58,77,259.59-46s2.5-36.31-8-45.59l-258,45.64Z"/><polygon class="cls-13" points="254.79 299.86 514.1 254.25 418.46 185.55 180.21 225.5 254.79 299.86"/><path class="cls-13" d="M195.59,268.85l65.58,77,259.59-46s-.18-37.38-9-45.45c0,0-3-1.87,2.09-.31,7.18,2.2,22.37,25.3,10.91,49.86l-268.8,50-71.24-83.42Z"/><path class="cls-12" d="M262.52,345.64c8.37-28.31-5.79-45.21-6.4-46l-1.33.2c.14.18,14.23,19.44,6.38,46Z"/><polygon class="cls-12" points="265.5 302.67 513.55 256.86 513.4 256.03 265.35 301.84 265.5 302.67"/><polygon class="cls-12" points="265.96 305.74 514.19 261.13 514.04 260.3 265.81 304.9 265.96 305.74"/><rect class="cls-12" x="264.7" y="288.53" width="252.38" height="0.85" transform="translate(-49.07 82.25) rotate(-11.31)"/><rect class="cls-12" x="265.46" y="293.09" width="253.22" height="0.85" transform="translate(-47.71 77.96) rotate(-10.71)"/><polygon class="cls-12" points="268.38 321.71 516.32 275.19 516.15 274.36 268.22 320.88 268.38 321.71"/><polygon class="cls-12" points="269.06 326.25 517.27 281.5 517.11 280.67 268.91 325.41 269.06 326.25"/><rect class="cls-12" x="267.86" y="308.89" width="252.23" height="0.85" transform="matrix(0.98, -0.18, 0.18, 0.98, -49.41, 76.29)"/><polygon class="cls-12" points="267.4 338.91 519.28 294.89 519.13 294.06 267.25 338.08 267.4 338.91"/><polygon class="cls-12" points="270.45 335.46 518.68 290.92 518.53 290.08 270.3 334.62 270.45 335.46"/><rect class="cls-12" x="228.19" y="240.17" width="0.84" height="72.21" transform="translate(-128.81 247.24) rotate(-45.75)"/><polygon class="cls-12" points="254.99 307.23 255.58 306.62 203.88 256.2 203.28 256.81 254.99 307.23"/><polygon class="cls-12" points="257.93 315.35 258.52 314.74 204.81 262.35 204.22 262.95 257.93 315.35"/><polygon class="cls-12" points="261.1 323.63 261.7 323.04 205.53 267.09 204.93 267.69 261.1 323.63"/><rect class="cls-12" x="230.34" y="255.91" width="0.84" height="83.31" transform="translate(-142.47 247.6) rotate(-44.58)"/><polygon class="cls-12" points="260.62 333.23 261.22 332.64 202.52 272.69 201.92 273.28 260.62 333.23"/><polygon class="cls-12" points="259.91 339.85 260.52 339.29 207.38 279.25 206.74 279.81 259.91 339.85"/></svg>