<svg xmlns="http://www.w3.org/2000/svg" xmlns:xlink="http://www.w3.org/1999/xlink" viewBox="0 0 1080 1080"><defs><style>.cls-1{mask:url(#mask);filter:url(#luminosity-noclip-7);}.cls-10,.cls-12,.cls-16,.cls-19,.cls-2,.cls-24,.cls-4,.cls-53,.cls-6,.cls-64,.cls-66,.cls-68,.cls-70,.cls-8{mix-blend-mode:multiply;}.cls-2{fill:url(#linear-gradient);}.cls-3{mask:url(#mask-2);filter:url(#luminosity-noclip-12);}.cls-4{fill:url(#linear-gradient-2);}.cls-5{mask:url(#mask-3);filter:url(#luminosity-noclip-8);}.cls-6{fill:url(#linear-gradient-3);}.cls-7{mask:url(#mask-4);filter:url(#luminosity-noclip-9);}.cls-8{fill:url(#linear-gradient-4);}.cls-9{mask:url(#mask-5);filter:url(#luminosity-noclip-10);}.cls-10{fill:url(#linear-gradient-5);}.cls-11{mask:url(#mask-6);filter:url(#luminosity-noclip-11);}.cls-12{fill:url(#linear-gradient-6);}.cls-13{isolation:isolate;}.cls-14{fill:#d37f40;}.cls-15{fill:none;stroke:#d37f40;stroke-miterlimit:10;stroke-width:1.1px;}.cls-16,.cls-43,.cls-53,.cls-64{fill:#725e4a;}.cls-16,.cls-51,.cls-61{opacity:0.6;}.cls-17{fill:url(#linear-gradient-7);}.cls-18{mask:url(#mask-7);}.cls-19{fill:url(#linear-gradient-8);}.cls-20{fill:url(#linear-gradient-9);}.cls-21{mask:url(#mask-8);}.cls-22,.cls-26,.cls-35,.cls-37,.cls-51,.cls-61,.cls-62{mix-blend-mode:overlay;}.cls-22{fill:url(#linear-gradient-10);}.cls-23{mask:url(#mask-9);}.cls-24{fill:url(#linear-gradient-11);}.cls-25{fill:url(#linear-gradient-12);}.cls-26,.cls-36,.cls-37,.cls-61{fill:#fff;}.cls-26,.cls-35,.cls-42,.cls-62{opacity:0.4;}.cls-27{fill:url(#linear-gradient-13);}.cls-28,.cls-30{fill:#9779b7;}.cls-29{fill:#e5c8ff;}.cls-30,.cls-64{opacity:0.3;}.cls-31{fill:url(#linear-gradient-14);}.cls-32{fill:url(#linear-gradient-15);}.cls-33{fill:#515a6d;}.cls-34{fill:#4b4c48;}.cls-37,.cls-53{opacity:0.8;}.cls-38{fill:#dfcdd9;}.cls-39{fill:#b24ec4;}.cls-40{fill:#c15914;}.cls-41{fill:#ef8137;}.cls-44{fill:#c6abb6;}.cls-45{fill:#e2d3d9;}.cls-46{fill:#f4e4ef;}.cls-47{fill:#282826;}.cls-48{fill:#daedec;}.cls-49{fill:#bad3d3;}.cls-50{fill:url(#linear-gradient-16);}.cls-52{fill:url(#linear-gradient-17);}.cls-54{fill:url(#linear-gradient-18);}.cls-55{fill:#539ae0;}.cls-56{fill:#b7ce55;}.cls-57{fill:#ff6c45;}.cls-58{fill:#ebbf3c;}.cls-59{fill:#ffbe83;}.cls-60{fill:#4c3b30;}.cls-62{fill:url(#linear-gradient-19);}.cls-63{opacity:0.7;}.cls-65{mask:url(#mask-10);}.cls-66{fill:url(#linear-gradient-20);}.cls-67{mask:url(#mask-11);}.cls-68{fill:url(#linear-gradient-21);}.cls-69{mask:url(#mask-12);}.cls-70{fill:url(#linear-gradient-22);}.cls-71{filter:url(#luminosity-noclip-6);}.cls-72{filter:url(#luminosity-noclip-5);}.cls-73{filter:url(#luminosity-noclip-4);}.cls-74{filter:url(#luminosity-noclip-3);}.cls-75{filter:url(#luminosity-noclip-2);}.cls-76{filter:url(#luminosity-noclip);}</style><filter id="luminosity-noclip" x="298.62" y="-10382" width="60.43" height="32766" filterUnits="userSpaceOnUse" color-interpolation-filters="sRGB"><feFlood flood-color="#fff" result="bg"/><feBlend in="SourceGraphic" in2="bg"/></filter><mask id="mask" x="298.62" y="-10382" width="60.43" height="32766" maskUnits="userSpaceOnUse"><g class="cls-76"/></mask><linearGradient id="linear-gradient" x1="230.83" y1="493.47" x2="355.45" y2="482.14" gradientUnits="userSpaceOnUse"><stop offset="0" stop-color="#fff"/><stop offset="1"/></linearGradient><filter id="luminosity-noclip-2" x="413.9" y="-10382" width="34.27" height="32766" filterUnits="userSpaceOnUse" color-interpolation-filters="sRGB"><feFlood flood-color="#fff" result="bg"/><feBlend in="SourceGraphic" in2="bg"/></filter><mask id="mask-2" x="413.9" y="-10382" width="34.27" height="32766" maskUnits="userSpaceOnUse"><g class="cls-75"/></mask><linearGradient id="linear-gradient-2" x1="218.84" y1="502.66" x2="536.06" y2="475.47" gradientUnits="userSpaceOnUse"><stop offset="0.02" stop-color="#fff"/><stop offset="1"/></linearGradient><filter id="luminosity-noclip-3" x="340.03" y="-10382" width="133.01" height="32766" filterUnits="userSpaceOnUse" color-interpolation-filters="sRGB"><feFlood flood-color="#fff" result="bg"/><feBlend in="SourceGraphic" in2="bg"/></filter><mask id="mask-3" x="340.03" y="-10382" width="133.01" height="32766" maskUnits="userSpaceOnUse"><g class="cls-74"/></mask><linearGradient id="linear-gradient-3" x1="350.22" y1="483.82" x2="483.23" y2="483.82" gradientUnits="userSpaceOnUse"><stop offset="0.01"/><stop offset="1" stop-color="#fff"/></linearGradient><filter id="luminosity-noclip-4" x="287.58" y="-10382" width="111.02" height="32766" filterUnits="userSpaceOnUse" color-interpolation-filters="sRGB"><feFlood flood-color="#fff" result="bg"/><feBlend in="SourceGraphic" in2="bg"/></filter><mask id="mask-4" x="287.58" y="-10382" width="111.02" height="32766" maskUnits="userSpaceOnUse"><g class="cls-73"/></mask><linearGradient id="linear-gradient-4" x1="224.03" y1="457.91" x2="508.96" y2="525.32" xlink:href="#linear-gradient-2"/><filter id="luminosity-noclip-5" x="361.5" y="-10382" width="34.27" height="32766" filterUnits="userSpaceOnUse" color-interpolation-filters="sRGB"><feFlood flood-color="#fff" result="bg"/><feBlend in="SourceGraphic" in2="bg"/></filter><mask id="mask-5" x="361.5" y="-10382" width="34.27" height="32766" maskUnits="userSpaceOnUse"><g class="cls-72"/></mask><linearGradient id="linear-gradient-5" x1="218.87" y1="502.97" x2="536.08" y2="475.78" xlink:href="#linear-gradient-2"/><filter id="luminosity-noclip-6" x="394.35" y="-10382" width="20.96" height="32766" filterUnits="userSpaceOnUse" color-interpolation-filters="sRGB"><feFlood flood-color="#fff" result="bg"/><feBlend in="SourceGraphic" in2="bg"/></filter><mask id="mask-6" x="394.35" y="-10382" width="20.96" height="32766" maskUnits="userSpaceOnUse"><g class="cls-71"/></mask><linearGradient id="linear-gradient-6" x1="218.82" y1="502.42" x2="536.04" y2="475.23" xlink:href="#linear-gradient-2"/><linearGradient id="linear-gradient-7" x1="230.85" y1="493.64" x2="355.47" y2="482.31" gradientUnits="userSpaceOnUse"><stop offset="0" stop-color="#fffee6"/><stop offset="1" stop-color="#d3bac4"/></linearGradient><filter id="luminosity-noclip-7" x="298.62" y="435.99" width="60.43" height="96.24" filterUnits="userSpaceOnUse" color-interpolation-filters="sRGB"><feFlood flood-color="#fff" result="bg"/><feBlend in="SourceGraphic" in2="bg"/></filter><mask id="mask-7" x="298.62" y="435.99" width="60.43" height="96.24" maskUnits="userSpaceOnUse"><g class="cls-1"><path class="cls-2" d="M298.62,484.11c0,24.78,15.36,45.21,35.18,48.12,9.41-1.38,17.8-6.71,24-14.58a24.91,24.91,0,0,1-11,2.58,24.62,24.62,0,0,1-4.87-.53,24.62,24.62,0,0,1-4.87.53c-16.25,0-29.43-16-29.43-35.64S320.88,449,337.13,449a24.62,24.62,0,0,1,4.87.53,24.62,24.62,0,0,1,4.87-.53,25.07,25.07,0,0,1,12.18,3.23c-6.33-8.75-15.22-14.72-25.25-16.19C314,438.9,298.62,459.33,298.62,484.11Z"/></g></mask><linearGradient id="linear-gradient-8" x1="230.83" y1="493.47" x2="355.45" y2="482.14" gradientUnits="userSpaceOnUse"><stop offset="0" stop-color="#b07fc9"/><stop offset="1" stop-color="#e5c06e"/></linearGradient><linearGradient id="linear-gradient-9" x1="329.87" y1="483.26" x2="478.66" y2="483.26" xlink:href="#linear-gradient-7"/><filter id="luminosity-noclip-8" x="340.03" y="416.98" width="133.01" height="133.68" filterUnits="userSpaceOnUse" color-interpolation-filters="sRGB"><feFlood flood-color="#fff" result="bg"/><feBlend in="SourceGraphic" in2="bg"/></filter><mask id="mask-8" x="340.03" y="416.98" width="133.01" height="133.68" maskUnits="userSpaceOnUse"><g class="cls-5"><path class="cls-6" d="M473,424.41c0-4.1-29.77-7.43-66.5-7.43s-66.5,3.33-66.5,7.43V543.24c0,4.1,29.77,7.43,66.5,7.43s66.5-3.33,66.5-7.43Z"/></g></mask><linearGradient id="linear-gradient-10" x1="350.22" y1="483.82" x2="483.23" y2="483.82" gradientUnits="userSpaceOnUse"><stop offset="0.01" stop-color="#70367a"/><stop offset="1" stop-color="#fceeb4"/></linearGradient><filter id="luminosity-noclip-9" x="287.58" y="422.6" width="111.02" height="135.4" filterUnits="userSpaceOnUse" color-interpolation-filters="sRGB"><feFlood flood-color="#fff" result="bg"/><feBlend in="SourceGraphic" in2="bg"/></filter><mask id="mask-9" x="287.58" y="422.6" width="111.02" height="135.4" maskUnits="userSpaceOnUse"><g class="cls-7"><path class="cls-8" d="M398.6,430.58l-68.73-8v11.33h-.38c-23.15,0-41.91,22.72-41.91,50.75s18.76,50.76,41.91,50.76h.38v14.3c0,4.38,30.29,8,68.73,8.28ZM329.87,521.1c-13-4.35-22.6-18.76-22.6-35.92s9.58-31.57,22.6-35.92Z"/></g></mask><linearGradient id="linear-gradient-11" x1="224.03" y1="457.91" x2="508.96" y2="525.32" gradientUnits="userSpaceOnUse"><stop offset="0.02" stop-color="#70367a"/><stop offset="1" stop-color="#fceeb4"/></linearGradient><linearGradient id="linear-gradient-12" x1="621.98" y1="621.22" x2="400.99" y2="629.32" xlink:href="#linear-gradient-7"/><linearGradient id="linear-gradient-13" x1="869.86" y1="905.26" x2="572.27" y2="709.31" xlink:href="#linear-gradient-7"/><linearGradient id="linear-gradient-14" x1="207.55" y1="784.02" x2="394.16" y2="613.21" gradientUnits="userSpaceOnUse"><stop offset="0.01" stop-color="#5082a0"/><stop offset="1" stop-color="#aecece"/></linearGradient><linearGradient id="linear-gradient-15" x1="286.27" y1="647.32" x2="178.72" y2="803.48" xlink:href="#linear-gradient-8"/><linearGradient id="linear-gradient-16" x1="147.82" y1="637.82" x2="344.49" y2="562.68" xlink:href="#linear-gradient-8"/><linearGradient id="linear-gradient-17" x1="555.92" y1="699.34" x2="193.29" y2="677.53" xlink:href="#linear-gradient-7"/><linearGradient id="linear-gradient-18" x1="714.88" y1="475.15" x2="863.76" y2="475.15" gradientUnits="userSpaceOnUse"><stop offset="0" stop-color="#ce5b38"/><stop offset="1" stop-color="#db8346"/></linearGradient><linearGradient id="linear-gradient-19" x1="333.75" y1="541.88" x2="409.02" y2="541.88" xlink:href="#linear-gradient-7"/><filter id="luminosity-noclip-10" x="361.5" y="468.53" width="34.27" height="42.2" filterUnits="userSpaceOnUse" color-interpolation-filters="sRGB"><feFlood flood-color="#fff" result="bg"/><feBlend in="SourceGraphic" in2="bg"/></filter><mask id="mask-10" x="361.5" y="468.53" width="34.27" height="42.2" maskUnits="userSpaceOnUse"><g class="cls-9"><polygon class="cls-10" points="364.33 505.07 373.39 489.77 361.5 474.19 367.16 470.23 375.94 483.26 382.74 468.53 395.77 468.53 380.19 489.77 391.52 505.63 383.31 507.05 376.51 494.87 366.31 510.73 364.33 505.07"/></g></mask><linearGradient id="linear-gradient-20" x1="218.87" y1="502.97" x2="536.08" y2="475.78" xlink:href="#linear-gradient-11"/><filter id="luminosity-noclip-11" x="394.35" y="475.05" width="20.96" height="23.51" filterUnits="userSpaceOnUse" color-interpolation-filters="sRGB"><feFlood flood-color="#fff" result="bg"/><feBlend in="SourceGraphic" in2="bg"/></filter><mask id="mask-11" x="394.35" y="475.05" width="20.96" height="23.51" maskUnits="userSpaceOnUse"><g class="cls-11"><path class="cls-12" d="M394.35,482.41l8.22,1.13-1.7-8.49,7.93.85L407.66,483l7.65-.85v7.93l-8.21-1.14L408,498a36.86,36.86,0,0,0-7.08.56l.85-10.19-6.8,1.41Z"/></g></mask><linearGradient id="linear-gradient-21" x1="218.82" y1="502.42" x2="536.04" y2="475.23" xlink:href="#linear-gradient-11"/><filter id="luminosity-noclip-12" x="413.9" y="457.49" width="34.27" height="54.4" filterUnits="userSpaceOnUse" color-interpolation-filters="sRGB"><feFlood flood-color="#fff" result="bg"/><feBlend in="SourceGraphic" in2="bg"/></filter><mask id="mask-12" x="413.9" y="457.49" width="34.27" height="54.4" maskUnits="userSpaceOnUse"><g class="cls-3"><polygon class="cls-4" points="413.9 462.3 430.61 483.82 416.55 511.88 423.04 511.39 448.17 461.17 442.78 457.49 433.44 479.01 420.13 459.19 413.9 462.3"/></g></mask><linearGradient id="linear-gradient-22" x1="218.84" y1="502.66" x2="536.06" y2="475.47" xlink:href="#linear-gradient-11"/></defs><g class="cls-13"><g id="Calque_1" data-name="Calque 1"><path class="cls-14" d="M143.6,477.71l-.79-2.12,3-1.13-.21-.15c28.11-38.24,51.26-70.52,69.86-96.46,51.93-72.42,71.37-99.5,83.12-96.76,8.56,2,11.41,19.3,16.56,50.72,3.6,21.89,8.08,49.14,16.14,82l.27,1.1-1.1.27c-20,4.9-39,12.39-57.4,19.63-19.18,7.56-39,15.38-60.32,20.44-23.6,5.6-43.95,13.15-65.5,21.14ZM296.94,283.16c-10.76,0-33,31-79.61,96-18.21,25.38-40.77,56.85-68.07,94,20.59-7.63,40.27-14.8,63-20.19,21.17-5,40.92-12.81,60-20.34,18.11-7.14,36.82-14.52,56.59-19.46-7.91-32.42-12.34-59.35-15.9-81-4.67-28.43-7.76-47.22-14.84-48.88A5.5,5.5,0,0,0,296.94,283.16Z"/><path class="cls-14" d="M178.3,467.43l-2.52-2.54c-7.34-7.41-10.38-10.48-17.55-10.48v-2.27c8.12,0,11.81,3.73,19.16,11.16l2.51,2.53Z"/><path class="cls-14" d="M182.62,460c-1.86-1.33-3.65-2.92-5.39-4.45-3.77-3.34-7.67-6.8-12.57-7.89l.49-2.21c5.48,1.22,9.6,4.87,13.59,8.4a62.07,62.07,0,0,0,5.2,4.31Z"/><path class="cls-14" d="M317.48,417.82h0c-2.43-5.67-4.94-11.53-9-16.41l1.74-1.45c4.27,5.13,6.85,11.15,9.34,17Z"/><path class="cls-14" d="M309.34,401v-2.27c2.65,0,5.34-1,8.18-2.11a36.06,36.06,0,0,1,6.66-2.05l.37,2.24a33.25,33.25,0,0,0-6.22,1.93C315.42,399.83,312.41,401,309.34,401Z"/><path class="cls-14" d="M214.45,367.45l-2.24-.32a16.53,16.53,0,0,0,.16-2.39,48.15,48.15,0,0,0-.92-7.86,48.7,48.7,0,0,1-.92-8h2.26a45.86,45.86,0,0,0,.9,7.58,50.25,50.25,0,0,1,.94,8.24A19.57,19.57,0,0,1,214.45,367.45Z"/><path class="cls-14" d="M205.14,360.06l-.32-2.24c2-.29,4-.69,5.89-1.08a53.3,53.3,0,0,1,11-1.44v2.27A51.31,51.31,0,0,0,211.16,359C209.23,359.35,207.24,359.76,205.14,360.06Z"/><path class="cls-14" d="M344.81,373.35c-2.34-.94-3.91-2.74-5.44-4.48s-2.74-3.14-4.58-3.87l.85-2.11c2.34.94,3.91,2.74,5.44,4.49s2.74,3.13,4.58,3.86Z"/><path class="cls-14" d="M341.6,393.25c-.11-1.51-.17-3.09-.17-4.69,0-11,2.64-21.75,5.22-30.77l2.18.62c-2.54,8.88-5.13,19.4-5.13,30.15,0,1.55.05,3.07.16,4.53Z"/><path class="cls-14" d="M199.38,431.52c-2.49,0-3.75-2.3-3.75-6.82,0-.8,0-1.62.07-2.45s.07-1.64.07-2.46a15.48,15.48,0,0,0-.25-3l2.22-.44a16.85,16.85,0,0,1,.3,3.47c0,.85,0,1.71-.07,2.55s-.07,1.59-.07,2.36c0,1.37.14,4.55,1.48,4.55,1,0,2.65-.9,4.08-1.69.82-.46,1.62-.9,2.33-1.21l.89,2.09a21.8,21.8,0,0,0-2.12,1.1C202.81,430.51,201,431.52,199.38,431.52Z"/><path class="cls-14" d="M209.38,437.46c-1-2.26-2.19-4.47-3.31-6.61s-2.31-4.42-3.37-6.74l2.06-.94c1,2.27,2.19,4.49,3.32,6.63s2.3,4.4,3.36,6.73Z"/><path class="cls-14" d="M216.9,430a4.52,4.52,0,0,1-3.91-2.26l1.92-1.2a2.26,2.26,0,0,0,2,1.19,4.12,4.12,0,0,0,3.83-4.36c0-2.34-1.26-4.84-3.14-4.84l-.45,0c-1,.12-3,.34-4.21.34-3.79,0-5.72-1.62-7.35-6.18l2.14-.76c1.44,4,2.71,4.67,5.21,4.67,1.08,0,3-.22,4-.32.39,0,.65-.07.7-.07,3.39,0,5.41,3.62,5.41,7.11A6.39,6.39,0,0,1,216.9,430Z"/><path class="cls-14" d="M207.33,414.53,206,412.71c2.49-1.86,4.56-2.73,6.53-2.73v2.27C211.06,412.25,209.37,413,207.33,414.53Z"/><path class="cls-14" d="M222.42,409.2a3,3,0,0,1-2.23-1.09l-1.35.81a5.09,5.09,0,0,1-.74-2.64,4,4,0,0,1,3.64-4.22c2.14,0,3.63,2.12,3.63,4A3,3,0,0,1,222.42,409.2Zm-1.31-4.2c.28,1.14.92,1.94,1.31,1.94s.68-.27.68-.85c0-.8-.63-1.77-1.36-1.77a1.28,1.28,0,0,0-1.09.79Z"/><path class="cls-14" d="M714,440.48l-.09-.62c-31.42-223.34-41.36-294-44.87-305-.24,1.05-.48,2.45-.69,3.67-.71,4.1-1.52,8.75-3.14,11.16l-1.88-1.27c1.35-2,2.15-6.59,2.79-10.28.83-4.83,1.09-6.79,2.82-6.81,3.75.06,5.07,8.7,47.21,308.25l.09.62Z"/><path class="cls-14" d="M577.86,325.36l-.67-2.16c24.14-7.53,49.24-10.71,75.82-14.07,28.84-3.65,58.67-7.42,89.76-17.12,1.93-.6,4.27-1.37,5-1.61l.51-.12c120.2-8.36,134.71-9.36,136.58-9.46v0c4-.09,8,1.07,11.83,2.17a52.85,52.85,0,0,0,9.06,2.05l-.23,2.25a55.33,55.33,0,0,1-9.46-2.12c-3.88-1.11-7.53-2.15-11.16-2.09l-136.33,9.48-.1,0c-.74.24-3.1,1-5,1.61-31.29,9.76-61.21,13.55-90.15,17.21C626.82,314.73,601.81,317.89,577.86,325.36Z"/><path class="cls-14" d="M901.53,286.37c-4.9-1.08-8.46-4.53-11.9-7.88a42.91,42.91,0,0,0-6.18-5.28l1.23-1.91a44.93,44.93,0,0,1,6.53,5.57c3.36,3.26,6.54,6.35,10.81,7.29Z"/><path class="cls-14" d="M884.8,292.81,883.41,291a18.3,18.3,0,0,1,5.9-3,46.2,46.2,0,0,1,6.32-1.33,43.94,43.94,0,0,0,6.17-1.29,20.66,20.66,0,0,0,2.27-.86l.94,2.06a22.15,22.15,0,0,1-2.53,1A45.55,45.55,0,0,1,896,288.9a41.29,41.29,0,0,0-6,1.26A15.76,15.76,0,0,0,884.8,292.81Z"/><path class="cls-14" d="M682.75,150.55c-1.45-3.19-4-5.38-6.62-7.7s-5.54-4.83-7.2-8.46l2.07-.94c1.45,3.19,4,5.38,6.62,7.7s5.54,4.83,7.19,8.47Z"/><path class="cls-14" d="M779.45,328.8c-4.77,0-10.11-2.21-15.19-6.39a41.67,41.67,0,0,1-13.07-18.84s-.06-.22-.15-.57c-1.64-6.23-3.06-11.28-4.22-15l-.29-.94c-10.81-34.67-13.71-44-59.17-49.47l.27-2.25c46.92,5.66,50.2,16.18,61.06,51l.29.93c1.17,3.75,2.6,8.83,4.25,15.1l.13.49a39.28,39.28,0,0,0,12.34,17.74c5.76,4.75,11.77,6.74,16.61,5.54,3.52-16.52,23.43-98.59,75.31-122.61l1,2.06c-51,23.62-70.66,105-74.08,121.13-.16.78-.25,1.21-.89,1.41A14,14,0,0,1,779.45,328.8Z"/><path class="cls-14" d="M832.88,313.92c-.54,0-1-.67-3-3.86C782,236.28,729.48,201.45,681.85,212l-.48-2.21c48.62-10.77,102,24.41,150.37,99,.67,1,1.27,2,1.66,2.53,8.08-4.05,30.8-37.4,49.17-64.34,9.68-14.21,18.83-27.63,24.83-35.34l1.79,1.39c-6,7.65-15.09,21.05-24.75,35.22-25.13,36.88-43.5,63.16-51.07,65.52A1.69,1.69,0,0,1,832.88,313.92Z"/><path class="cls-14" d="M771.24,211.37a9.69,9.69,0,0,1-4.25-.8,2.79,2.79,0,0,1-1.46-1.6,9.16,9.16,0,0,1-.28-1.8,8.48,8.48,0,0,0-.27-1.8l2.16-.67a10,10,0,0,1,.37,2.27,7.39,7.39,0,0,0,.19,1.32s.08.14.34.27c1.4.74,4.59.68,6.31.14a4.7,4.7,0,0,0,3.27-2.77,5.31,5.31,0,0,0,0-3.37c-.72-2.32-3.17-3.62-5.77-5-3-1.56-6-3.17-7.08-6.53a8.06,8.06,0,0,1,5-10.08,7.71,7.71,0,0,1,4.56,0l-.64,2.17a5.51,5.51,0,0,0-3.24,0,5.83,5.83,0,0,0-3.49,7.24c.77,2.47,3.29,3.8,6,5.21,2.89,1.52,5.88,3.1,6.88,6.31a7.52,7.52,0,0,1-.09,4.85,6.91,6.91,0,0,1-4.72,4.14A13.37,13.37,0,0,1,771.24,211.37Z"/><path class="cls-14" d="M787,202.44a41.53,41.53,0,0,1-1.31-7.66,40.42,40.42,0,0,0-1.27-7.52,14.72,14.72,0,0,0-.84-2.11l2-1a17.13,17.13,0,0,1,1,2.45,42.59,42.59,0,0,1,1.37,8,38.22,38.22,0,0,0,1.22,7.23Z"/><path class="cls-14" d="M805.26,201.59a36.33,36.33,0,0,1-1.13-6.48,30.91,30.91,0,0,0-.93-5.5c-.71-2.29-2-3.17-3.83-2.6a2.91,2.91,0,0,0-1.9,2.09,7.21,7.21,0,0,0-.3,1.6c3,9.73,2.33,10,1.28,10.27-1.23.39-1.87-.91-2.56-3.1a20.72,20.72,0,0,1-1-6.91c-.24-.77-.5-1.53-.75-2.29s-.54-1.65-.8-2.46a35,35,0,0,1-1.25-5.05l2.23-.36a36.35,36.35,0,0,0,1.18,4.73c.15.48.31,1,.47,1.44a4.81,4.81,0,0,1,2.74-2.12c2.37-.74,5.38-.06,6.67,4.08a34.67,34.67,0,0,1,1,5.92,34.69,34.69,0,0,0,1,6.07Z"/><path class="cls-14" d="M826.86,194.43c-1.4-2.93-3.25-6.16-5-9.27s-3.67-6.39-5.1-9.4l2-1c1.4,2.92,3.24,6.13,5,9.24s3.69,6.41,5.12,9.43Z"/><path class="cls-14" d="M817.55,193.66l-2.08-.9c3.61-8.37,9.27-14.23,14.76-19.52l1.57,1.64C826.26,180.21,821,185.66,817.55,193.66Z"/><path class="cls-14" d="M879,351.32a7.75,7.75,0,0,1-2.62-.44,6.06,6.06,0,0,1-3.76-4,7.93,7.93,0,0,1,5.12-9.79,9,9,0,0,1,3.54-.32L881,339a6.36,6.36,0,0,0-2.64.23,5.69,5.69,0,0,0-3.63,6.94,3.84,3.84,0,0,0,2.39,2.59,6.66,6.66,0,0,0,4.2-.08c2.67-.83,5.77-3.2,6.3-6.43l2.24.36c-.69,4.21-4.44,7.17-7.86,8.23A10.21,10.21,0,0,1,879,351.32Z"/><path class="cls-14" d="M902.43,339.88a4.17,4.17,0,0,1-2.72-1.05,7.39,7.39,0,0,1-2.06-3.35c0-.1,0-.19-.08-.28l-.7.21c-1.79-5.76-.88-9.67,2.49-10.72a6.61,6.61,0,0,1,5,.42,7.24,7.24,0,0,1,3.53,4.43,9.37,9.37,0,0,1-.52,7,6.16,6.16,0,0,1-3.62,3.12A4.43,4.43,0,0,1,902.43,339.88Zm-4.12-8.54,1.39.41a5.34,5.34,0,0,0,.12,3.05,5,5,0,0,0,1.37,2.31,1.79,1.79,0,0,0,1.85.4,3.94,3.94,0,0,0,2.28-2,7.16,7.16,0,0,0,.37-5.29,5,5,0,0,0-2.41-3.09,4.34,4.34,0,0,0-3.24-.28C898.34,327.38,898.1,329.41,898.31,331.34Z"/><path class="cls-14" d="M918,338.68l-1.09-2,.91-.48c4.78-2.57,9-5.2,7.72-9.19-.41-1.32-1.33-1.5-3.21-1.77a7.69,7.69,0,0,1-4.82-2,1.61,1.61,0,0,1-.38-.63c-.52-1.68,1.76-3.61,2.82-3.94l.68,2.16a3.43,3.43,0,0,0-1.21,1.1,6.42,6.42,0,0,0,3.23,1.05c1.87.26,4.2.6,5,3.34,1.91,6.11-4.54,9.57-8.81,11.85Z"/><path class="cls-14" d="M941.46,326.8l-2-1.05c.84-1.61,3.41-6.5,2.29-10.11a5.52,5.52,0,0,0-1-1.8l1.76-1.42a7.6,7.6,0,0,1,1.37,2.55C945.17,319,943.12,323.66,941.46,326.8Z"/><path class="cls-14" d="M935.2,321.19l-.31-2.24c2.76-.38,5.74-1.07,8.63-1.73s6-1.37,8.81-1.76l.31,2.24c-2.75.38-5.73,1.07-8.62,1.73S938.06,320.8,935.2,321.19Z"/><path class="cls-14" d="M649.74,157.53a15.91,15.91,0,0,1-3.86-4.22,15.34,15.34,0,0,0-2.74-3.22l1.43-1.76a17.46,17.46,0,0,1,3.16,3.67,14,14,0,0,0,3.3,3.67Z"/><path class="cls-14" d="M637.89,185.68l-2-1c1.07-2.23,2.18-4.45,3.3-6.67,4.33-8.63,8.81-17.55,10.62-27.32l2.23.41c-1.87,10.09-6.42,19.16-10.83,27.93C640.06,181.26,639,183.46,637.89,185.68Z"/><path class="cls-14" d="M913.74,278.13a101.35,101.35,0,0,1-8.43-10.2l1.86-1.28a99.32,99.32,0,0,0,8.26,10Z"/><path class="cls-14" d="M907.27,279.57l-1.93-1.19q1.41-2.26,2.77-4.52c4.07-6.65,7.91-12.94,12.36-19.1l1.84,1.32c-4.4,6.1-8.22,12.35-12.26,19C909.13,276.55,908.21,278.06,907.27,279.57Z"/><path class="cls-14" d="M325.72,220.3h-.19c-4.19-.21-9.12-3-12.79-8.68l-.68,0q0-.45.09-.9a33,33,0,0,1-3.73-9.7c-4.48,8.25-11.68,15.05-23,16.17l-.22-2.26c12.18-1.2,18.91-9.69,22.56-17.55a52.71,52.71,0,0,1-.35-9.66c1.21-23.88,3.93-24,5-24h0c1,0,2.43.74,2.74,7.08a65,65,0,0,1-5.06,26.79,34.19,34.19,0,0,0,3,10.06,11.44,11.44,0,0,1,2.17-3,8.7,8.7,0,0,1,6.49-2.87c6.27.32,7.82,10.34,7.65,13.75C329.22,219.74,326.9,220.3,325.72,220.3Zm-11.15-10.15c3.24,5.1,7.53,7.7,11.08,7.88.89.05,1.43-.87,1.53-2.73.15-3.05-1.31-11.16-5.51-11.37a6.62,6.62,0,0,0-4.76,2.2A8.93,8.93,0,0,0,314.57,210.15Zm-2.2-43.58c-.8,2-2,8-2.68,21.22q-.12,2.52,0,4.83C313.45,181.56,313.35,169.91,312.37,166.57Z"/><path class="cls-14" d="M406.19,213.51H406c-4.62-.23-9.39-3.47-12.76-8.65l0,0-.69,0a7.32,7.32,0,0,1,.09-.93,33.21,33.21,0,0,1-3.73-9.69c-4.48,8.26-11.68,15.07-23,16.18l-.22-2.25c12.19-1.2,18.92-9.7,22.57-17.57a52.66,52.66,0,0,1-.36-9.64c1.21-23.88,3.93-24,5-24h0c1,0,2.44.74,2.74,7.07a65.12,65.12,0,0,1-5.06,26.83,33.89,33.89,0,0,0,3,10.08,11.53,11.53,0,0,1,2.19-3.09,8.76,8.76,0,0,1,6.49-2.87c6.27.32,7.82,10.33,7.65,13.75A6.87,6.87,0,0,1,409,212,3.26,3.26,0,0,1,406.19,213.51ZM395,203.42l.13.2c3,4.57,7.08,7.42,11,7.62a1,1,0,0,0,1-.51,4.53,4.53,0,0,0,.54-2.22c.15-3-1.31-11.16-5.51-11.38a6.73,6.73,0,0,0-4.76,2.21A9.07,9.07,0,0,0,395,203.42Zm-2.18-43.64c-.8,2-2,8-2.67,21.22-.09,1.71-.1,3.32,0,4.85C393.91,174.78,393.81,163.12,392.83,159.78Z"/><path class="cls-14" d="M339.53,208.52H339l.12-2.26c2.43.11,4.22-.94,6.1-2.07a15.52,15.52,0,0,1,3.95-1.9l.61,2.18a14,14,0,0,0-3.4,1.66C344.53,207.25,342.41,208.52,339.53,208.52Z"/><path class="cls-14" d="M426.82,197.35h-.69a11.49,11.49,0,0,1-2.85-.49l.66-2.17a9.46,9.46,0,0,0,2.3.39,24.62,24.62,0,0,0,7.33-1.16c1.17-.3,2.34-.6,3.51-.83l.44,2.22c-1.13.22-2.26.51-3.39.81A29.84,29.84,0,0,1,426.82,197.35Z"/><path class="cls-14" d="M462.66,204.83h-.52a10.47,10.47,0,0,1-8.24-5.2,16.47,16.47,0,0,1-2.55-9.38c.2-3.91,2.71-9.45,6.74-9.26a3.66,3.66,0,0,1,3.5,2.73,2.33,2.33,0,0,1,.08.69,2.9,2.9,0,0,1-1.32,2.16,3.66,3.66,0,0,1-2.29.74l.12-2.27a1,1,0,1,0-.2-1.79c-2.36-.08-4.22,4.17-4.36,7.12a14.06,14.06,0,0,0,2.19,8,8.27,8.27,0,0,0,6.44,4.16c4.09.19,8.6-2.85,10.2-6.95l2.11.82A13.4,13.4,0,0,1,462.66,204.83Z"/><path class="cls-14" d="M494,200.09h-.52c-4.33-.22-8.94-3.33-10.25-7.58l-1.31.15a11.68,11.68,0,0,1-.07-2c.36-7.09,7-11.74,12.68-11.41,5.9.29,8.73,5.68,8.47,10.85C502.78,195,499.86,200.09,494,200.09Zm-9.77-10.34.9.05c-.21,4.26,4.37,7.81,8.46,8,5.29.26,7-4.77,7.14-7.79.2-3.92-1.69-8.25-6.32-8.48A10.13,10.13,0,0,0,484.26,189.75Z"/><path class="cls-14" d="M515.45,198.52h-.38l.12-2.26a9.31,9.31,0,0,0,3.94-.86c.59-.28,2-1,2-2,.13-2.54-2-3.8-5.62-5.57s-7.5-3.7-7.27-8.37a1.76,1.76,0,0,1,1.87-1.85,5.69,5.69,0,0,1,1.87.58,7,7,0,0,0,2.08.64l-.12,2.27a8.94,8.94,0,0,1-2.85-.83l-.58-.24c.13,2.68,2.4,4,6,5.77,3.33,1.64,7.1,3.5,6.88,7.71-.08,1.6-1.25,3-3.31,4A11.51,11.51,0,0,1,515.45,198.52Z"/><path class="cls-14" d="M550.51,198.68l-.54,0a11.63,11.63,0,0,1-8.31-4.44,13.76,13.76,0,0,1-3.07-7.54,13.33,13.33,0,0,0-.79,1.36l-2-1c2.7-5.52,9.45-9.59,15.34-9.31a10.42,10.42,0,0,1,7,3,9.8,9.8,0,0,1,2.69,7.43,11.53,11.53,0,0,1-3.13,7.47A9.78,9.78,0,0,1,550.51,198.68ZM541,183.94a9.72,9.72,0,0,0-.17,1.32,11.23,11.23,0,0,0,2.58,7.53,9.44,9.44,0,0,0,6.67,3.61,7.55,7.55,0,0,0,5.92-2.29,9.27,9.27,0,0,0,2.5-6,7.48,7.48,0,0,0-2.06-5.74A8.12,8.12,0,0,0,551,180,14.79,14.79,0,0,0,541,183.94Z"/><path class="cls-14" d="M573.35,200.63c-.86-1.19-1.67-2.42-2.48-3.65-3.18-4.86-6.19-9.44-12.07-11.44l.73-2.15c6.62,2.26,10,7.38,13.23,12.34.79,1.21,1.59,2.41,2.42,3.58Z"/><path class="cls-14" d="M411,187.84h-.43a5.27,5.27,0,0,1-3.63-1.5,4.19,4.19,0,0,1-1.19-3.17c.09-1.82,1.27-3.58,2.41-5.29,1-1.49,2-3,2.08-4.28.08-1.62-2-3.11-3.78-3.2-2.44-.09-4.6,2.23-4.69,3.83a1.57,1.57,0,0,0,.28,0l-.12,2.26a2.6,2.6,0,0,1-1.89-.78,2.17,2.17,0,0,1-.54-1.61c.15-2.87,3.36-6.2,7.08-6,2.92.15,6.07,2.56,5.92,5.57-.09,1.88-1.29,3.68-2.46,5.43-1,1.45-2,3-2,4.14a1.94,1.94,0,0,0,.56,1.48,3.09,3.09,0,0,0,2.11.82c2.52.13,6.09-1.3,8.56-2.38l.91,2.07C417.34,186.47,413.84,187.84,411,187.84Z"/><path class="cls-14" d="M534,174.45c-.37,0-.74,0-1.1,0-9-.46-11.48-8.12-12.14-11.23a17.13,17.13,0,0,0-4.09,2.9l-1.52-1.68c1.57-1.42,4.52-3.77,6.59-3.7l1,.05.11,1c.2,1.66,1.62,10,10.21,10.4a23,23,0,0,0,3.91-.15l.26,2.25A27.5,27.5,0,0,1,534,174.45Z"/><path class="cls-14" d="M360,214.48h-.08c-2.43-.12-2.59-3.39-2.82-8.35-.29-6-.69-14.21-5.38-17.24-2.84-1.83-7.13-1.62-12.76.61l-.83-2.11c6.34-2.51,11.33-2.65,14.82-.4a11.43,11.43,0,0,1,4.29,5.55,142.29,142.29,0,0,0-.82-18.4,114.49,114.49,0,0,1-.7-14.13c.37-7.21,6.95-11.92,19.55-14,10.86-1.78,23.65-1.13,27.86-.92l2.32.12c7.48.37,16.78.84,25.09-.13,25.3-3,50-5.27,74-7.49,22.32-2.06,45.39-4.2,68.57-6.87l.26,2.25c-23.21,2.67-46.29,4.81-68.62,6.88-23.9,2.21-48.62,4.5-73.9,7.48-8.49,1-17.9.52-25.46.14l-2.33-.12c-4.14-.21-16.75-.84-27.37.9-11.41,1.87-17.35,5.86-17.65,11.86a112.38,112.38,0,0,0,.69,13.83,144.4,144.4,0,0,1,.81,19c-.15,3,.64,7.46,1.33,11.36,1,5.7,1.46,8.49.42,9.67A1.63,1.63,0,0,1,360,214.48Z"/><path class="cls-14" d="M257.35,219.09c-.55,0-1.11,0-1.67,0l.12-2.26a52.17,52.17,0,0,0,9.47-.64,54.25,54.25,0,0,1,9.88-.66l-.12,2.27a50.49,50.49,0,0,0-9.47.64A63.09,63.09,0,0,1,257.35,219.09Z"/><path class="cls-14" d="M287.58,241.07l-.11-2.26c36.3-1.7,71.06-6.83,107.86-12.25C405.63,225,416,223.5,426.61,222c29.87-4.17,62.25-4.94,93.57-5.69,43.56-1,84.71-2,111.27-12.25l.81,2.12c-26.92,10.37-68.26,11.35-112,12.39-31.25.75-63.57,1.52-93.31,5.67-10.56,1.48-21,3-31.26,4.53C358.8,234.23,324,239.37,287.58,241.07Z"/><path class="cls-14" d="M398.69,269.32l-.51-2.2c4.26-.84,10.59-2.09,10.79-6v-.22c0-2.81-2.67-3.31-8.31-3.71s-12.35-.88-12-8.14c.38-7.5,9.94-8.76,17.62-9.77,2.14-.29,4.17-.55,5.77-.93l.51,2.21c-1.71.4-3.79.67-6,1-7.2.95-15.36,2-15.64,7.64-.24,4.71,3.57,5.32,9.88,5.77,4.88.35,10.4.74,10.41,6v.32C411,266.91,403.57,268.36,398.69,269.32Z"/><path class="cls-14" d="M431.69,259.92l-2.2-.55c.78-3.07-.41-6-1.66-9a27.69,27.69,0,0,1-2.08-6.59l2.24-.33a26.39,26.39,0,0,0,1.93,6.06C431.26,252.75,432.65,256.13,431.69,259.92Z"/><path class="cls-14" d="M465,253.66c-1.31-8.87-4.14-12.94-9.16-13.19-5.22-.27-8.77,4.95-9,9.94-.1,1.85-1.3,2.05-1.67,2.07-2.8.11-7.29-7.65-7.87-11.56l2.24-.33c.48,3.22,3.5,7.89,5.06,9.26.5-5.94,4.88-12,11.37-11.65,8.17.41,10.36,8.83,11.29,15.13Z"/><path class="cls-14" d="M493.26,251.53h-.4c-5-.26-11.72-4.32-11.42-10.37a9,9,0,0,1,1.5-4.38l1.76,1.13-.42-.47a15.68,15.68,0,0,1,11-3.74c5.28.26,9,3.49,8.77,7.66C503.82,246,498.75,251.53,493.26,251.53ZM484.82,238a6.76,6.76,0,0,0-1.11,3.23c-.23,4.51,5.42,7.8,9.26,8,4.22.21,8.64-4.4,8.82-8,.15-2.91-2.57-5.09-6.62-5.29a13.63,13.63,0,0,0-9.37,3.16Z"/><path class="cls-14" d="M518,250.36c-3.37-1.55-5.83-3.79-8.44-6.17a51.13,51.13,0,0,0-5.91-4.84l1.26-1.88a52.08,52.08,0,0,1,6.17,5c2.48,2.26,4.82,4.39,7.87,5.79Z"/><path class="cls-14" d="M345.67,212.06a29,29,0,0,0-2-6.84,39.11,39.11,0,0,1-1.91-6.13l2.22-.43a36.69,36.69,0,0,0,1.81,5.76,31.23,31.23,0,0,1,2.09,7.38Z"/><path class="cls-15" d="M509.25,380.73c0,.21,0,.41,0,.61,0,4.63,4.17,7.37,8.07,7.37,4.11,0,7.74-2.86,7.74-9.67,0-6.17-1.63-11.06-8.22-11.06a7,7,0,0,0-5.3,2.18C509,373,509.54,377,509.25,380.73Z"/><path class="cls-14" d="M502.48,426.11l-1.57-1.64c11-10.49,21.25-22.44,31.19-34,5.78-6.72,11.76-13.67,17.85-20.32l1.67,1.53c-6.07,6.62-12,13.56-17.8,20.27C523.84,403.55,513.53,415.54,502.48,426.11Z"/><path class="cls-14" d="M539.26,422c-4.22,0-6.55-3.1-6.55-8.73a24.15,24.15,0,0,1,.35-4l1.64.27c.55-2.46,2.33-5.34,8-5.34,3.93,0,6.19,2.71,6.19,7.45C548.88,417.42,544.65,422,539.26,422Zm-4-5.72c.56,2.3,1.89,3.46,4,3.46,4.6,0,7.35-4.1,7.35-8.06,0-3.44-1.32-5.18-3.92-5.18-5,0-6,2.34-6,5.86,0,.68,0,1.38.06,2.05s.05,1.29.05,1.87Z"/><path class="cls-14" d="M436.46,329.08c-2.93-6.6-8.23-11.9-13.35-17l1.59-1.61-.8.8.81-.8c5.27,5.27,10.72,10.72,13.82,17.71Z"/><path class="cls-14" d="M425.26,326.56l-1.2-1.92c1.9-1.2,4-2.33,6-3.43,4.5-2.44,9.14-5,12.67-8.5l1.6,1.6c-3.76,3.76-8.55,6.37-13.18,8.89C429.07,324.33,427.11,325.4,425.26,326.56Z"/><path class="cls-14" d="M595.55,91.57a35.69,35.69,0,0,0-6.73-.54c-3-.06-5.78-.12-8.27-1a9.83,9.83,0,0,1-5.2-4.41,7.07,7.07,0,0,1-.79-5.82,16.09,16.09,0,0,1,2.67-4.22,17.67,17.67,0,0,0,2.93-4.65,4.64,4.64,0,0,0-.52-4.52,7.47,7.47,0,0,0-3.41-2.48c-.94-.35-4.1-1.22-5.23,1.87-.18.69.6,3.83,2,4.36l-.78,2.13a5.73,5.73,0,0,1-3-3.46,6.52,6.52,0,0,1-.42-3.8c1.19-3.27,4.45-4.57,8.14-3.23a9.68,9.68,0,0,1,4.47,3.29,6.87,6.87,0,0,1,.81,6.61A20,20,0,0,1,579,77a14.68,14.68,0,0,0-2.33,3.59,5,5,0,0,0,.63,3.94,7.73,7.73,0,0,0,4,3.4,24.69,24.69,0,0,0,7.53.88,37.51,37.51,0,0,1,7.15.59Z"/><path class="cls-14" d="M611.47,82.21c-4.55,0-9.14-.22-13.27-1.72l.77-2.13c4.6,1.67,10,1.61,15.29,1.56,1.82,0,3.65,0,5.46,0l-.06,2.26c-1.78,0-3.58,0-5.37,0Z"/><path class="cls-14" d="M611.88,89.62A74.87,74.87,0,0,1,612,75c.18-2.29.36-4.66.43-7l2.26.06c-.06,2.42-.25,4.82-.43,7.14a72.79,72.79,0,0,0-.16,14.19Z"/><path class="cls-14" d="M640.75,107.31a15.34,15.34,0,0,1-5.2-.75,5.65,5.65,0,0,1-3.73-3.7,8.39,8.39,0,0,1,.43-5.21c.94-2.57,2.73-4.84,4.63-7.25s3.8-4.8,4.78-7.49c1.74-4.81-.21-10.66-4-12-1.77-.65-3.94-.39-6.44.77l-1-2c3.06-1.43,5.81-1.71,8.18-.85,5,1.81,7.55,8.94,5.36,14.94-1.1,3-3.14,5.63-5.12,8.13a25.42,25.42,0,0,0-4.28,6.62,6.22,6.22,0,0,0-.38,3.79,3.37,3.37,0,0,0,2.32,2.21c2.55.93,6.91.81,13-.37l.43,2.23A48.54,48.54,0,0,1,640.75,107.31Z"/><path class="cls-14" d="M604,430.45c-1.65,0-2.24-2.09-2.57-3.9a59.07,59.07,0,0,1-.62-9.84c0-1.56,0-3.13.08-4.68s.07-3,.07-4.51c0-9.88-1.26-13.21-5-13.21a67.22,67.22,0,0,0-8.84.93l-1.45.21-.32-2.24,1.44-.21a68.93,68.93,0,0,1,9.17-1c6.73,0,7.29,7.32,7.29,15.48,0,1.51,0,3-.08,4.56s-.07,3.09-.07,4.63c0,7.52.65,10.22,1,11.14,1.32-2.08,3.4-11,3.4-23.89v-3.37c0-20,0-28.27,33.34-28.27,7,0,19.82.87,27.66,6.75l-1.36,1.81c-5.42-4.06-14.76-6.3-26.3-6.3-31.08,0-31.08,6.56-31.08,26V404C609.81,414.64,608,430.45,604,430.45Z"/><path class="cls-14" d="M638,427.19c-3.68,0-6-2.39-6-6.24s3.34-7.31,6.56-10.52,6.6-6.55,6.6-10.45c0-3.32-1.72-5-5.13-5-4.64,0-7.71,3.09-7.71,4.35h0s-.1-.09-.16-.11l.12,2.28a2.08,2.08,0,0,1-2.23-2.17c0-2.67,4.19-6.62,10-6.62,4.63,0,7.4,2.72,7.4,7.27,0,4.84-3.69,8.51-7.27,12.06-3,3-5.9,5.86-5.9,8.91,0,1.81.64,4,3.7,4a29,29,0,0,0,7.11-1.48,30,30,0,0,1,7.6-1.55v2.27a28.52,28.52,0,0,0-7,1.46A30.5,30.5,0,0,1,638,427.19Z"/><path class="cls-15" d="M534.93,287.83a11,11,0,0,1-3.09-7.24c0-3.3,2.89-5.88,5-5.88,3.07,0,4.48,7.12,4.48,11.21,0,3.53-.53,7.15-.53,10.76,0,6.19,2.21,14.16,8.37,14.16,3.2,0,5.72-2.29,5.72-6.53a7.8,7.8,0,0,0-2.59-5.9C547.12,293.75,539.59,293,534.93,287.83Z"/><path class="cls-14" d="M567.78,302.18h-2.26c0-5.84-1.74-12.27-5.17-19.13l2-1C566,289.21,567.78,296,567.78,302.18Z"/><path class="cls-14" d="M576.47,295a38.93,38.93,0,0,1-18.64-4.65l1-2a36.81,36.81,0,0,0,17.62,4.41Z"/><path class="cls-15" d="M573.45,273.48a12.29,12.29,0,0,1-2.31-6.23,5.06,5.06,0,0,1,5.2-5.18c11.85,0,4.19,28.61,19,28.61,2.4,0,3.44-1.39,3.44-3.33a6.5,6.5,0,0,0-3.47-5.56C588.6,278.67,578.57,281.44,573.45,273.48Z"/><ellipse class="cls-16" cx="316.09" cy="547.27" rx="163.71" ry="20.39"/><path class="cls-17" d="M329.49,433.92c-23.15,0-41.91,22.72-41.91,50.75s18.76,50.76,41.91,50.76,41.92-22.72,41.92-50.76S352.64,433.92,329.49,433.92Zm8.59,88.56c-17,0-30.81-16.7-30.81-37.3s13.8-37.3,30.81-37.3,30.81,16.7,30.81,37.3S355.09,522.48,338.08,522.48Z"/><g class="cls-18"><path class="cls-19" d="M298.62,484.11c0,24.78,15.36,45.21,35.18,48.12,9.41-1.38,17.8-6.71,24-14.58a24.91,24.91,0,0,1-11,2.58,24.62,24.62,0,0,1-4.87-.53,24.62,24.62,0,0,1-4.87.53c-16.25,0-29.43-16-29.43-35.64S320.88,449,337.13,449a24.62,24.62,0,0,1,4.87.53,24.62,24.62,0,0,1,4.87-.53,25.07,25.07,0,0,1,12.18,3.23c-6.33-8.75-15.22-14.72-25.25-16.19C314,438.9,298.62,459.33,298.62,484.11Z"/></g><path class="cls-20" d="M478.66,416.79c0-4.59-33.31-8.31-74.39-8.31s-74.4,3.72-74.4,8.31V549.72c0,4.59,33.31,8.31,74.4,8.31s74.39-3.72,74.39-8.31Z"/><g class="cls-21"><path class="cls-22" d="M473,424.41c0-4.1-29.77-7.43-66.5-7.43s-66.5,3.33-66.5,7.43V543.24c0,4.1,29.77,7.43,66.5,7.43s66.5-3.33,66.5-7.43Z"/></g><g class="cls-23"><path class="cls-24" d="M398.6,430.58l-68.73-8v11.33h-.38c-23.15,0-41.91,22.72-41.91,50.75s18.76,50.76,41.91,50.76h.38v14.3c0,4.38,30.29,8,68.73,8.28ZM329.87,521.1c-13-4.35-22.6-18.76-22.6-35.92s9.58-31.57,22.6-35.92Z"/></g><path class="cls-16" d="M471.86,417.17c0-2.65-30.6-4.8-68.35-4.8s-68.35,2.15-68.35,4.8,30.6,4.81,68.35,4.81S471.86,419.83,471.86,417.17Z"/><polygon class="cls-25" points="475.18 557.67 499.49 560.25 512.47 567.62 639.86 632.93 421.73 697.49 305.83 629.21 464.41 564.86 475.18 557.67"/><polygon class="cls-26" points="485.5 573.88 427.67 581.24 436.88 598.19 568.73 598.55 510.91 569.46 485.5 573.88"/><polygon class="cls-16" points="832.63 796.71 810.53 814.39 556.4 854.16 482.37 720.46 619.38 649.76 832.63 796.71"/><polygon class="cls-16" points="452.35 637.96 472.61 643.12 610.72 632.81 586.42 626.91 452.35 637.96"/><path class="cls-27" d="M848.27,782.05s-.8,0-14.16-4.95c-17.64-14-41.14-34.8-54.16-55.63-22.67-36.28-48.35-51.39-48.35-51.39l-36.28-7.56-37.78-34.75L461.08,639.86l40.07,113.2C515,765.21,518.84,778.58,531,802.23c8.54,16.63,29.64,43.59,29.64,43.59l251.07-38.59Z"/><polygon class="cls-26" points="708.69 623.97 461.19 644.6 594.52 710.15 523.8 770.55 658.6 732.99 597.47 833.9 681.97 795.88 816.24 791.91 788.98 747.72 708.69 623.97"/><path class="cls-28" d="M801.21,676.71c71.73-29.1,63.12-65.57-19.25-81.45-80.45-15.51-206.46-9-278.9,18.62-1.06.92-.53,2.5-.15,5.32Z"/><path class="cls-16" d="M786.5,678.88C857.06,649.26,848.78,612.61,768,597,689.1,581.82,575.16,586.3,503.91,614.4a110,110,0,0,0-10,8.08Z"/><path class="cls-29" d="M801.21,671.42c71.73-29.1,63.12-65.58-19.25-81.46s-207.31-5.16-279,23.95Z"/><path class="cls-26" d="M604.92,633.13l76.54,14.75-.34-53.28c-18.4.26-37.17,1.45-55.52,3.51Z"/><path class="cls-26" d="M715,655.13l55.54,11.16L743.1,597.92c-10.09-.81-20.54-1.25-31.19-1.36Z"/><path class="cls-30" d="M708.67,619.78c-35.8-6.9-90.1-2.24-121.28,10.4l129.65,25C748.22,642.52,744.47,626.68,708.67,619.78Zm-14.12,30-81.21-15.66c19.53-7.93,53.55-10.84,76-6.52S714.08,641.88,694.55,649.81Z"/><path class="cls-30" d="M781.71,590.21c-82.05-15.82-206.51-5.14-278,23.85l26.43,5.1c61.91-23.26,164.46-31.52,232.73-18.36s77.15,42.91,21.46,67.37l16.53,3.18C872.35,642.36,863.78,606,781.71,590.21Z"/><polygon class="cls-29" points="739.9 593.5 730.37 603.02 735.13 604.61 750.22 592.31 739.9 593.5"/><polygon class="cls-29" points="803.01 617.71 827.62 614.93 835.16 620.89 809.37 626.44 803.01 617.71"/><polygon class="cls-29" points="778.4 657.41 815.71 659.79 803.8 666.93 775.62 659.79 778.4 657.41"/><polygon class="cls-29" points="666.86 599.05 671.23 598.26 672.82 587.94 666.07 587.94 666.86 599.05"/><polygon class="cls-29" points="609.7 603.82 613.27 603.42 611.29 592.31 602.56 593.89 609.7 603.82"/><polygon class="cls-29" points="549.37 616.92 529.92 611.76 535.48 606.99 554.13 614.53 549.37 616.92"/><path class="cls-16" d="M378.5,822.67H349.66a16.76,16.76,0,0,1-7.14-1.59L105.31,709.48a21.05,21.05,0,0,0-5.13-1.65c-14-2.55-79-14.68-83.83-20.83a20,20,0,0,1,10.58-31.75L279.61,589l281.2,132Z"/><path class="cls-31" d="M166.85,560.27a14.43,14.43,0,0,1,11.1-6.74l209.92-16.76a37.38,37.38,0,0,1,11.21.8l10.42,2.37a11.21,11.21,0,0,1,7.84,6.56l20.86,49.18L564.79,705.74,566,714a6.09,6.09,0,0,1-3.21,6.27L389.62,810.39a27,27,0,0,1-13.91,3l-10.92-.59a21.59,21.59,0,0,1-10.92-3.67L221.63,719.82a35.47,35.47,0,0,1-12.94-15.88L161.41,589.26a25.73,25.73,0,0,1,2-23.44Z"/><path class="cls-16" d="M355,785.93l1.64,24.79a21.4,21.4,0,0,0,8.14,2.09l10.91.59a26.55,26.55,0,0,0,7.7-.73L385.34,788Z"/><path class="cls-32" d="M361,741.94,215.56,550.52l-37.61,3a14.46,14.46,0,0,0-11.1,6.74l-3.47,5.55a25.73,25.73,0,0,0-2,23.44l47.28,114.68a35.47,35.47,0,0,0,12.94,15.88l132.24,89.32c2.18,1.47-1.29-23.71,1.25-23.11Z"/><polygon class="cls-16" points="575.14 758.77 333.17 897.99 330.96 905.16 419.35 947.16 441.3 942.18 612.71 770.37 611.38 765.14 580.12 757.67 575.14 758.77"/><polygon class="cls-33" points="587.89 755.82 345.91 895.04 343.7 902.23 432.09 944.21 443.14 942 625.45 767.42 624.13 762.2 592.86 754.72 587.89 755.82"/><path class="cls-16" d="M623.47,831.28a14.37,14.37,0,0,0-12.88,9.36l-35.16,97.44a14.36,14.36,0,0,0,12.89,19.3l140.47,6.51c5.74.27,17.24-2.37,21-6.42,5.36-3.19,5.18-9.48,3.85-14.6l-33.5-105.66c-1.37-5.3-6.47-8.8-12.47-8.61Z"/><path class="cls-34" d="M634.52,824.66A14.37,14.37,0,0,0,621.63,834l-35.15,97.44a14.35,14.35,0,0,0,12.89,19.3l140.46,6.51a19.35,19.35,0,0,0,15.07-6,15.64,15.64,0,0,0,3.84-14.61L731.16,830.57c-1.38-5.29-6.47-8.79-12.48-8.59Z"/><g class="cls-35"><path class="cls-36" d="M742.76,957.18a16.62,16.62,0,0,0,16-20.46L733.54,828.48a12.72,12.72,0,0,0-11.7-9.82l-1.69-.09,31.26,106.86C754.28,942.89,748.6,952.24,742.76,957.18Z"/></g><polygon class="cls-26" points="444.25 931.88 624.2 762.46 624.13 762.2 592.86 754.72 587.89 755.82 345.91 895.04 345.77 895.5 430.99 934.08 444.25 931.88"/><polygon class="cls-26" points="605.49 757.74 594.5 754.72 593.65 754.9 605.49 757.74"/><polygon class="cls-26" points="345.91 895.04 436.09 843.15 345.91 894.49 345.88 895.13 345.91 895.04"/><polygon class="cls-37" points="623.98 762.82 623.85 762.78 444.25 931.88 430.99 934.08 345.86 895.54 345.77 897.82 431.55 937.04 444.9 934.79 624.72 764.66 623.98 762.82"/><polygon class="cls-26" points="437.84 922.69 449.42 920.76 497.28 875.7 504.3 807.64 463.14 831.32 433.53 920.75 437.84 922.69"/><polygon class="cls-26" points="530.71 844.24 531.78 791.83 522.88 796.95 516.94 857.19 530.71 844.24"/><path class="cls-36" d="M924.07,609.14a6,6,0,0,0-1.25-4.94L902,579a6.27,6.27,0,0,0-5.43-2.26l-26.21,2.38a5.24,5.24,0,0,0-4.73,5.87l2.33,18.65a4.65,4.65,0,0,0,1.06,2.43l19.13,22.42a9.66,9.66,0,0,0,7.62,3.39l20.87-.58a3.88,3.88,0,0,0,3.7-3.13Z"/><path class="cls-16" d="M886.77,640.91l-14.92-.55-27.74-29.23a6.88,6.88,0,0,1-1.28-7.59,3.31,3.31,0,0,1,2.88-1.94L884,600l36.46,31.5Z"/><path class="cls-38" d="M867.52,580.39a5,5,0,0,0-.79.66,5.2,5.2,0,0,0-1.12,3.94l2.33,18.65a4.65,4.65,0,0,0,1.06,2.42l19.14,22.43a9.68,9.68,0,0,0,7.61,3.39l20.86-.58a3.89,3.89,0,0,0,3.7-3.13l3.76-19a6,6,0,0,0-.52-3.8l-30,2.42Z"/><path class="cls-39" d="M913.5,592.93,902,579a6.31,6.31,0,0,0-5.43-2.26l-26.21,2.38a5.29,5.29,0,0,0-2.82,1.28,5,5,0,0,0-.79.66,5.2,5.2,0,0,0-1.12,3.94l2.33,18.65a4.65,4.65,0,0,0,1.06,2.42l12,14.06,1.16-24.7Z"/><path class="cls-16" d="M867.52,580.39a5,5,0,0,0-.79.66,5.2,5.2,0,0,0-1.12,3.94l2.33,18.65a4.65,4.65,0,0,0,1.06,2.42l19.14,22.43a9.68,9.68,0,0,0,3.41,2.56c1.31.58,2-23.29,2-23.29Z"/><path class="cls-40" d="M1056.94,647.42a5.93,5.93,0,0,0-4.49-1.73l-302.87-2.47a6.44,6.44,0,0,0-5.24,2.2,2.84,2.84,0,0,0,.84,4.07L938,797.37a9.09,9.09,0,0,0,6.35,1.38A8.22,8.22,0,0,0,950,796l107-145A2.76,2.76,0,0,0,1056.94,647.42Zm-77.17,32.72L937,741.47a3.38,3.38,0,0,1-2.39,1.22,3.77,3.77,0,0,1-2.71-.62L853.7,679.6a1.12,1.12,0,0,1-.24-1.63,2.74,2.74,0,0,1,2.15-.88l122.23.89a2.6,2.6,0,0,1,1.86.69A1.14,1.14,0,0,1,979.77,680.14Z"/><path class="cls-16" d="M1043.31,651.12a5.46,5.46,0,0,0-4.24-1.7L753.27,647a5.9,5.9,0,0,0-4.95,2.18,2.88,2.88,0,0,0,.79,4l182,146.31a8.24,8.24,0,0,0,6,1.36,7.63,7.63,0,0,0,5.33-2.72l100.92-143.41A2.87,2.87,0,0,0,1043.31,651.12Zm-72.83,32.37-40.33,60.69a3.17,3.17,0,0,1-2.25,1.2,3.49,3.49,0,0,1-2.56-.6L851.52,683a1.13,1.13,0,0,1-.23-1.61,2.49,2.49,0,0,1,2-.87l115.34.87a2.39,2.39,0,0,1,1.76.69A1.14,1.14,0,0,1,970.48,683.49Z"/><path class="cls-41" d="M1057.3,643.48a6,6,0,0,0-4.5-1.7l-303.17-2.49a6.43,6.43,0,0,0-5.25,2.16,2.78,2.78,0,0,0,.85,4L938.74,791.82a9.23,9.23,0,0,0,6.37,1.36,8.23,8.23,0,0,0,5.66-2.73l106.57-143.38A2.74,2.74,0,0,0,1057.3,643.48Zm-78.62,32.85-42.8,60a3.56,3.56,0,0,1-2.4,1.19,3.84,3.84,0,0,1-2.72-.61l-78.47-61.1a1.06,1.06,0,0,1-.25-1.59,2.72,2.72,0,0,1,2.16-.87l122.55.89a2.59,2.59,0,0,1,1.87.67A1.07,1.07,0,0,1,978.68,676.33Z"/><path class="cls-26" d="M848.38,680.81a7.55,7.55,0,0,1-2.85-4.8,7.33,7.33,0,0,1,1.5-5.71,9,9,0,0,1,7.14-3.31l30.61.22-5-20.51-54.08-.44-5.65,47.83,87.41,66.11L897.41,719Z"/><polygon class="cls-26" points="942.86 737.46 954.79 774.39 991.37 725.18 972.59 695.8 942.86 737.46"/><polygon class="cls-26" points="954.62 667.71 941.51 647.21 913.62 646.98 920.25 667.46 954.62 667.71"/><g class="cls-42"><path class="cls-26" d="M749.58,642.67a7.68,7.68,0,0,0-2.11.29L938,789.08a9.09,9.09,0,0,0,6.35,1.38,8.22,8.22,0,0,0,5.65-2.75l104.89-142.16a7.52,7.52,0,0,0-2.44-.41Zm230.19,36.92L937,740.92a3.45,3.45,0,0,1-2.39,1.22,3.77,3.77,0,0,1-2.71-.62L853.7,679.05c-.55-.45-4.3-6.25-4.3-6.24.17.67,5.31-4,6.21-4l122.23.88a3.47,3.47,0,0,1,1.86.7C985.12,673.91,980.11,679.1,979.77,679.59Z"/></g><path class="cls-16" d="M888.57,689.65l46-25.22s10-3.66,16.45,4.76c7.1,9.22-5.07,14.38-5.07,14.38l-49.26,15.8Z"/><path class="cls-43" d="M895.2,673.9l46-25.22s10-3.66,16.46,4.77c7.09,9.22-5.08,14.38-5.08,14.38l-49.25,15.79Z"/><g class="cls-35"><path class="cls-36" d="M902.52,676.3l2.6,6.74,47.48-15.21s12.17-5.16,5.08-14.38c-6.49-8.43-16.46-4.77-16.46-4.77l-.67.37,8.08,5Z"/></g><path class="cls-16" d="M633.33,693.83a13.6,13.6,0,0,1-1.86-21.89,28.63,28.63,0,0,1,19.23-7l203.44,3.37a25,25,0,0,1,11.51,3l22.17,12.06a13.71,13.71,0,0,1,7,10.24l.28,2.1a11,11,0,0,1-4.9,10.64L741.14,803.2a26.94,26.94,0,0,1-27.06,1.3c-2.92-1.52-5.23-3.06-5.86-4.28a12.16,12.16,0,0,1,0-11.24l4-7.65a17.37,17.37,0,0,1,6.11-6.65l101.42-64a4.36,4.36,0,0,0-2.34-8.05c-34.25.09-117.92.17-161-1.13a41.45,41.45,0,0,1-20.26-6Z"/><path class="cls-44" d="M655.42,687.2a13.6,13.6,0,0,1-1.86-21.89,28.63,28.63,0,0,1,19.23-7l203.45,3.37a25.06,25.06,0,0,1,11.51,3l22.17,12.06A13.71,13.71,0,0,1,917,687l.28,2.1a11,11,0,0,1-4.9,10.64L763.23,796.57a26.9,26.9,0,0,1-27.05,1.3c-2.92-1.52-5.23-3.06-5.87-4.28-1.83-3.52-2.27-10.22-.45-13.74l3.6-6.35c1.3-1.85,4-3.57,5.88-4.79l102.47-64.63a4.36,4.36,0,0,0-2.34-8.05c-34.26.09-117.93.17-161-1.13a41.42,41.42,0,0,1-20.26-6Z"/><path class="cls-16" d="M861.23,675.39l-194.84-5.75s-10,0-12.48,6.79c.62,3.24-1.2,11.44,28.72,14.27,41.9,4,123.9,1,157.41.93,1.64,0,6,3.58,6.67,4.8l18.51-11.6Z"/><polygon class="cls-43" points="842.02 696.52 888.8 674.06 843.12 702.78 842.02 696.52"/><path class="cls-45" d="M897.54,680.42c0,5.27-8.9,9.55-19.89,9.55s-19.88-4.28-19.88-9.55,8.9-9.57,19.88-9.57S897.54,675.13,897.54,680.42Z"/><path class="cls-16" d="M888.76,679c0,2.19-3.67,4-8.21,4s-8.21-1.77-8.21-4,3.68-4,8.21-4S888.76,676.85,888.76,679Z"/><path class="cls-37" d="M902,682a5.84,5.84,0,0,1-.24,9.78L752,784.31a8,8,0,0,1-9.78-1.06,4.59,4.59,0,0,1,.64-7.11l131.37-88a5.25,5.25,0,0,0,1.86-6.51l-6-13.38a2.07,2.07,0,0,1,1.33-2.84l2.47-.69a4.66,4.66,0,0,1,3.92.65Z"/><path class="cls-16" d="M892,678.76c0,3-5.06,5.43-11.3,5.43s-11.3-2.44-11.3-5.43,5.05-5.44,11.3-5.44S892,675.75,892,678.76Z"/><path class="cls-45" d="M885.67,679c0,1.36-2.29,2.47-5.12,2.47s-5.12-1.11-5.12-2.47,2.29-2.47,5.12-2.47S885.67,677.67,885.67,679Z"/><path class="cls-46" d="M632,830a7.38,7.38,0,0,0-6.37,4.82l-32.23,91.76a5.94,5.94,0,0,0,.65,5.26,5.86,5.86,0,0,0,4.62,2.6l149.16,7a7.31,7.31,0,0,0,5.55-2,5.15,5.15,0,0,0,1.4-5.05L725.28,828.6c-.71-2.57-3.33-4.19-6.41-4Z"/><path class="cls-16" d="M739,952.23c-16.84-.28-131-7.82-150.27-8.72a16,16,0,0,0,12.08,6.58l140.84,7.17a16.73,16.73,0,0,0,13.7-6,14.12,14.12,0,0,0,.84-1.28C752.67,951.87,747.19,952.36,739,952.23Z"/><path class="cls-46" d="M633.43,825.9a7.34,7.34,0,0,0-6.62,4.8l-34,96.45a6.21,6.21,0,0,0,5.62,8.34l149.41,6.06a6.74,6.74,0,0,0,5.23-2.1,5.41,5.41,0,0,0,1.32-5l-28-106.52a6,6,0,0,0-6.16-4.28Z"/><polygon class="cls-33" points="632.45 834.27 604.83 910.51 743.68 920.45 720.85 829.48 632.45 834.27"/><path class="cls-16" d="M687,926.16c0,4.38-8.49,7.92-19,7.92s-19-3.54-19-7.92,8.49-7.91,19-7.91S687,921.79,687,926.16Z"/><path class="cls-46" d="M683.28,926.16c0,3.36-6.85,6.08-15.29,6.08s-15.28-2.72-15.28-6.08,6.84-6.07,15.28-6.07S683.28,922.81,683.28,926.16Z"/><polygon class="cls-26" points="609.18 908.28 684.17 913.66 704.73 833.04 655.04 835.74 621.27 874.91 609.18 908.28"/><path class="cls-26" d="M725.42,916.61l.84-51.08-8.33-33.2-2.6.14c-2.61,21.67-7,57.16-10.18,82.69Z"/><path class="cls-47" d="M709.15,949.73c0-1.37-1.67-2.48-3.73-2.48s-3.73,1.11-3.73,2.48,1.68,2.5,3.73,2.5S709.15,951.11,709.15,949.73Z"/><path class="cls-47" d="M721.86,949.73c0-1.37-1.67-2.48-3.73-2.48s-3.73,1.11-3.73,2.48,1.67,2.5,3.73,2.5S721.86,951.11,721.86,949.73Z"/><path class="cls-47" d="M735,950.29c0-1.37-1.67-2.49-3.73-2.49s-3.73,1.12-3.73,2.49,1.67,2.49,3.73,2.49S735,951.66,735,950.29Z"/><path class="cls-48" d="M347,779.78a44.57,44.57,0,0,0,47.4,7.29l171.22-75.56-.83-5.77L438.2,595.68l-21-48.69a11.24,11.24,0,0,0-8.06-7.13l-9-2a36.8,36.8,0,0,0-13.31-.58l-209.43,16a14.47,14.47,0,0,0-10.28,6.65l-3.18,5.1,47.54,95.86Z"/><path class="cls-49" d="M347,774.49a45.32,45.32,0,0,0,47.4,7.13l171.75-70.36-1.36-9.2L438.2,594.4l-21-47.63c-1.3-3.52-6-8.52-9.76-9.35L403,536.31c-4.37-1-12.88-1-17.32-.37L177.4,552.84a14.43,14.43,0,0,0-10.28,6.51l-3.18,5,47.54,93.78Z"/><path class="cls-50" d="M438.2,594.4l-21-47.63c-1.3-3.52-6-8.52-9.76-9.35L403,536.31c-4.37-1-12.88-1-17.32-.37L177.4,552.84a14.43,14.43,0,0,0-10.28,6.51l-3.18,5,47.54,93.78,2.84,2.44,229.22-61.6Z"/><g class="cls-51"><path class="cls-52" d="M351.94,769.28a42.08,42.08,0,0,0,42.67,6.53l160.21-65.2a5.13,5.13,0,0,0,1.36-8.68L436.88,601.87,221.42,661.53Z"/><path class="cls-53" d="M322.34,633.55l-9.91,101.87,39.43,33.39a42.1,42.1,0,0,0,43.08,6.87l17.9-7.28-9.11-157Z"/><polygon class="cls-53" points="436.88 601.87 416.74 606.73 442.78 756.21 503.39 731.55 458 619.58 436.88 601.87"/></g><path class="cls-16" d="M698.84,595.58l-65.38-9.91,21.28-3,163.94-19.48-24.54-34.21S501,535.57,493.23,546.26s69.61,49,69.61,49L607,588.7,695,604.4C699.8,603,700.37,599.64,698.84,595.58Z"/><path class="cls-54" d="M788.92,386c-20.08,1.84-54.42,12.44-74,19.82L742.79,552.9c13,4.85,24.25,11.89,54.18,11.89s44.46-7.65,54.17-11.89L863.76,394C850.31,391.83,815.9,383.49,788.92,386Z"/><path class="cls-26" d="M824.83,387.33,805.55,400l-6.06,164.7c22.27-.33,35.7-5,45-8.91l11.16-163.31C847.53,391,836.59,388.84,824.83,387.33Z"/><path class="cls-26" d="M864,394.12c-13.5-2.2-48.08-10.68-75.18-8.2-20.16,1.84-54.65,12.57-74.36,20.05,12.71,3.42,34.6,11.89,76.47,8.82C836.92,405.76,855.23,397.13,864,394.12Z"/><path class="cls-16" d="M856.56,394.82c-12.14-1.65-43.19-8.18-67.61-6-18.16,1.62-49.29,10.45-67.09,16.57,11.42,2.65,31.07,9.25,68.77,6.49C832.12,404.33,848.66,397.3,856.56,394.82Z"/><path class="cls-16" d="M789.8,400.44c-14.34,1.16-36.86,4.86-54.56,8.19,12,2.63,29.44,5.16,55.39,3.26,23.64-4.31,39.16-8.44,49.61-11.66C825.69,399.63,806.32,399.09,789.8,400.44Z"/><polygon class="cls-55" points="710.53 344.98 732.87 406.39 744.03 408.25 748.38 405.15 732.25 338.16 710.53 344.98"/><polygon class="cls-56" points="801.11 406.39 804.47 333.25 815.54 338.06 809.28 404.95 801.11 406.39"/><polygon class="cls-57" points="831.35 399.65 860.08 305.75 875.16 302.8 878.02 323.27 848.64 394.14 831.35 399.65"/><polygon class="cls-58" points="765.04 409.98 718.18 229.94 772.15 212.57 789.72 408.88 765.04 409.98"/><polygon class="cls-26" points="771.13 251.03 741.32 309.61 750.7 345.64 775.28 297.34 771.13 251.03"/><polygon class="cls-26" points="776.7 313.15 753.9 357.94 758.47 375.48 778.71 335.69 776.7 313.15"/><path class="cls-41" d="M699.72,599.86l2.27-.81c3.75-2.61,6.15-5.65,6.88-8.78.28-4.67-4.79-8.2-4.79-8.2l-97-22.4-30,1.36-.66,1.47,20,15.19Z"/><polygon class="cls-59" points="607.09 559.67 577.07 561.03 576.41 562.5 596.39 577.69 597.99 578.05 598.66 567.71 608.81 560.16 607.09 559.67"/><polygon class="cls-60" points="586.75 570.2 592.66 560.43 575.2 560.05 573.99 562.41 586.75 570.2"/><path class="cls-16" d="M573.8,562.6l22.57,15.09,103.35,22.17,2.27-.81c3.36-2.34,6.29-5.86,6.73-8.18l-133.81-31Z"/><path class="cls-26" d="M703.9,584.09c-2.21-1.27-4.45-1.51-5-.53s.77,2.78,3,4.05,4.45,1.5,5,.53S706.1,585.36,703.9,584.09Z"/><polygon class="cls-26" points="704.04 595.19 598.42 572.9 598.77 567.87 600.73 566.19 707.49 590.77 704.04 595.19"/><path class="cls-33" d="M211.11,659.32l-45.76-96.64-2,3.14c-.37.6-.68,1.23-1,1.85l46.53,96.81L352.17,789.71V808l1.7,1.15a21.73,21.73,0,0,0,3.72,2c0-7.36.47-23.24.47-23.24Z"/><polygon class="cls-33" points="202.82 581.79 216.63 644.23 423.81 586.57 407.47 550.65 202.82 581.79"/><polygon class="cls-16" points="499.77 677.37 446.73 716.6 463.58 734 536.32 702.78 499.77 677.37"/><polygon class="cls-57" points="505.39 675.9 454.56 716.78 467.08 730.78 538.53 700.57 505.39 675.9"/><polygon class="cls-16" points="454.56 716.78 467.08 730.78 538.53 700.57 468.92 724.7 461.74 714.94 505.55 676.02 505.41 675.92 505.17 676.07 454.56 716.78"/><polygon class="cls-26" points="306.95 614.02 321.16 567.81 285.98 574.33 260.78 625.97 306.95 614.02"/><polygon class="cls-26" points="340.12 605.43 350 562.46 334.82 565.28 322.78 609.92 340.12 605.43"/><polygon class="cls-36" points="179.43 554.77 190.72 574.68 239.61 562.96 240.94 554.11 179.43 554.77"/><polygon class="cls-33" points="184.26 556.22 193.77 571.3 235 562.42 236.12 555.72 184.26 556.22"/><path class="cls-33" d="M406.13,890.07c0,4-7.18,7.18-16,7.18s-16-3.22-16-7.18,7.18-7.18,16-7.18S406.13,886.1,406.13,890.07Z"/><polygon class="cls-36" points="435.41 596.34 222.9 658.59 444.25 604.45 435.41 596.34"/><polygon class="cls-26" points="821.02 408.32 821.02 560.25 828.21 557.76 844.78 400.87 821.02 408.32"/><polygon class="cls-26" points="740.36 412.75 757.77 558.87 742.79 552.9 714.44 405.97 740.36 412.75"/><path class="cls-26" d="M1042.84,644.78l12.05.77-11,14.42S1053.61,645.06,1042.84,644.78Z"/><path class="cls-36" d="M728.4,941c26.06-.08,20.16-11,21.45-24.57,3.89,17,11.51,25-5.62,25.13C740.51,941.56,735,941.17,728.4,941Z"/><polygon class="cls-36" points="501.33 559.88 479.61 566.88 473.34 557.3 501.33 559.88"/><path class="cls-37" d="M858.32,669.91l-192.26-4.7s5.25-4.72,15.47-5l178.17,3Z"/><polygon class="cls-43" points="731.53 789.71 698.38 814.01 742.94 796.33 731.53 789.71"/><polygon class="cls-16" points="648.94 676.73 607.77 669.91 652.53 667.15 648.94 676.73"/><polygon class="cls-61" points="465.43 714.2 470.76 721.2 504.28 709.05 487.34 694.68 465.43 714.2"/><polygon class="cls-61" points="493.6 689.9 510.91 705.73 523.8 700.95 497.65 685.84 493.6 689.9"/><path class="cls-62" d="M399.34,538.64c-8.08-1.43-48.4,5.13-65.59,6.69l75.27-1.2C407.62,541.73,405.39,539.72,399.34,538.64Z"/><polygon class="cls-33" points="410 906.09 597.28 761.35 601.7 761.35 417.18 907.75 410 906.09"/><polygon class="cls-33" points="456.4 883.45 472.97 891.18 476.29 888.41 459.16 880.68 456.4 883.45"/><polygon class="cls-33" points="488.44 856.92 505.02 864.65 508.33 861.89 491.2 854.16 488.44 856.92"/><polygon class="cls-33" points="517.17 833.01 530.52 839.24 533.19 837.02 519.4 830.79 517.17 833.01"/><polygon class="cls-33" points="538.62 817.24 550.29 822.69 552.63 820.75 540.56 815.3 538.62 817.24"/><polygon class="cls-33" points="558.04 802.21 566.81 806.3 568.56 804.84 559.51 800.76 558.04 802.21"/><polygon class="cls-33" points="575.72 788.4 584.48 792.49 586.24 791.03 577.18 786.94 575.72 788.4"/><polygon class="cls-33" points="314.73 645.33 333.43 663.35 369.98 652.83 352.13 636.88 314.73 645.33"/><polygon class="cls-33" points="295.72 649.63 247.94 660.44 271.88 681.06 317.53 667.92 295.72 649.63"/><polygon class="cls-33" points="340.37 670.02 365.69 694.42 399.81 679.48 377.24 659.31 340.37 670.02"/><polygon class="cls-33" points="325.27 674.41 279.61 687.69 314.6 716.78 354.8 699.18 325.27 674.41"/><polygon class="cls-33" points="325.65 727.47 360.64 756.56 396.77 734.39 366.76 709.21 325.65 727.47"/><polygon class="cls-33" points="376.54 704.88 403.13 730.48 435 710.92 411.07 689.54 376.54 704.88"/><polygon class="cls-33" points="363.34 634.34 380.06 649.92 416.32 639.5 403.39 625.29 363.34 634.34"/><polygon class="cls-33" points="454.93 628.38 440.2 616.97 412.97 623.13 427.2 636.37 454.93 628.38"/><polygon class="cls-33" points="474.45 646.8 460.82 635.02 434.09 642.78 449.94 657.54 474.45 646.8"/><polygon class="cls-33" points="387.06 656.46 407.95 675.92 437.64 662.92 422.41 646.18 387.06 656.46"/><polygon class="cls-33" points="499.86 671.11 483.29 657.48 460.67 667.52 478.57 684.18 499.86 671.11"/><polygon class="cls-33" points="418.86 686.09 441.33 707.04 468.56 689.53 451.08 670.34 418.86 686.09"/><polygon class="cls-26" points="323.07 679.59 317.18 707.57 344.8 697.26 323.07 679.59"/><polygon class="cls-26" points="295.08 653.8 309.45 667.06 279.25 674.06 295.08 653.8"/><polygon class="cls-26" points="350.7 640.55 337.07 660.06 363.22 651.59 350.7 640.55"/><polygon class="cls-26" points="376.85 663.38 367.27 688.79 391.58 678.11 376.85 663.38"/><polygon class="cls-26" points="361.75 748.82 365.43 714.94 387.53 732.99 361.75 748.82"/><polygon class="cls-26" points="404.1 720.46 411.1 693.94 427.31 709.42 404.1 720.46"/><polygon class="cls-26" points="442.4 700.21 450.51 674.42 463.4 689.16 442.4 700.21"/><polygon class="cls-26" points="479.97 678.11 483.29 662.27 493.97 671.11 479.97 678.11"/><polygon class="cls-26" points="451.62 652.7 459.71 638.33 468.19 646.07 451.62 652.7"/><polygon class="cls-26" points="429.15 630.23 437.99 619.91 448.67 626.17 429.15 630.23"/><polygon class="cls-26" points="383.85 644.96 401.89 628.38 410 637.23 383.85 644.96"/><polygon class="cls-26" points="408.89 670.38 422.15 649.38 432.46 660.43 408.89 670.38"/><g class="cls-63"><path class="cls-16" d="M217.81,706.4a4.79,4.79,0,0,1-1.8-2.95l-2.82-15.4a2.82,2.82,0,0,1,4.4-2.82l18.5,13a4.67,4.67,0,0,1,1.85,5l-2.32,9.12a4.44,4.44,0,0,1-7,2.41Z"/><path class="cls-16" d="M222,703.46a4.86,4.86,0,0,0,1.8,2.95l10.42,8.06a4.39,4.39,0,0,0,1.39-2.14l2.32-9.12a4.7,4.7,0,0,0-1.85-5l-16.72-11.73a2.82,2.82,0,0,0-.18,1.58Z"/></g><polygon class="cls-16" points="188.27 558.22 194.91 569.27 205.77 566.51 204.11 558.41 188.27 558.22"/><polygon class="cls-16" points="207.79 559.14 208.9 565.04 233.02 560.62 233.76 557.12 207.79 559.14"/><polygon class="cls-36" points="811.69 807.23 842.02 753.62 844.23 782.34 811.69 807.23"/><polygon class="cls-64" points="811.69 807.23 780.88 800.02 829.5 774.97 811.69 807.23"/><path class="cls-16" d="M162.13,568.08a25.7,25.7,0,0,0-.72,21.18l44,106.64,3.53-31.42S162.5,567.31,162.13,568.08Z"/><polygon class="cls-49" points="355.51 785.38 357.59 811.11 366.35 788.7 355.51 785.38"/><path class="cls-60" d="M343.24,419.44C354.76,421,377.42,422,403.51,422s48.75-1,60.28-2.54c-11.53-1.51-34.19-2.54-60.28-2.54S354.76,417.93,343.24,419.44Z"/><path class="cls-61" d="M403.89,412.45c-5.38-7.48-9.62-16.62-9.62-25.53,0-8.34,7.73-24.91,7.73-48.25,0-12.38-2.45-24.46-9.06-35.35,12.44,14.31,16.91,31,16.91,48.34,0,25.74-8.63,43.13-8.63,52.28a18.45,18.45,0,0,0,1.16,6.62C402.67,411.36,403.51,411.7,403.89,412.45Z"/><path class="cls-61" d="M417.57,415.71a25.25,25.25,0,0,1-5.06-15.11c0-18.22,16.8-23.64,14.79-43.09-1.13-11,1.7-15.11,1.89-21,1.33,10.36,3.42,20.18,3.42,30.63,0,15.83-15.35,25-15.35,44.19A30.68,30.68,0,0,0,417.57,415.71Z"/><g class="cls-65"><polygon class="cls-66" points="364.33 505.07 373.39 489.77 361.5 474.19 367.16 470.23 375.94 483.26 382.74 468.53 395.77 468.53 380.19 489.77 391.52 505.63 383.31 507.05 376.51 494.87 366.31 510.73 364.33 505.07"/></g><g class="cls-67"><path class="cls-68" d="M394.35,482.41l8.22,1.13-1.7-8.49,7.93.85L407.66,483l7.65-.85v7.93l-8.21-1.14L408,498a36.86,36.86,0,0,0-7.08.56l.85-10.19-6.8,1.41Z"/></g><g class="cls-69"><polygon class="cls-70" points="413.9 462.3 430.61 483.82 416.55 511.88 423.04 511.39 448.17 461.17 442.78 457.49 433.44 479.01 420.13 459.19 413.9 462.3"/></g></g></g></svg>