<svg id="Calque_1" data-name="Calque 1" xmlns="http://www.w3.org/2000/svg" viewBox="0 0 1080 1080"><defs><style>.cls-1{fill:#6e69e2;}.cls-2{fill:#23002b;}.cls-3{fill:#da9991;}.cls-4{fill:#dc659c;}.cls-5{fill:#fbebcd;}.cls-6{fill:#bc2854;}.cls-7{fill:#4f2658;}</style></defs><path class="cls-1" d="M4.13,32.32c-14.82,11,13.21,953.38,36.93,960.93S616.81,990,622.2,988.94s5.39-851.77-4.31-878.72S19,21.27,4.13,32.32Z"/><path d="M790.63,582.44c43.76,4.95,71.48,34.31,73.56,102.65,0,0-67.92,70.08-86.25,43.13S790.63,582.44,790.63,582.44Z"/><path class="cls-2" d="M124.33,425.11c2.54,2.12,175.71,147.95,174.25,144.12-.92-2.45,13.1-129,9.83-129S124.33,425.11,124.33,425.11Z"/><path class="cls-3" d="M543.05,319.69c-.38-37.8,37.86-74.6,72.38-43.42s-13.36,99.1-36.74,102.44S543.43,357.5,543.05,319.69Z"/><path d="M565.14,357.61a3.37,3.37,0,0,1-.77-.09,3.26,3.26,0,0,1-2.45-3.68c0-.19,0-.55.08-1.06,1.43-19,6.22-52.54,22.26-64.28a21.79,21.79,0,0,1,18.67-3.58,3.25,3.25,0,1,1-1.5,6.33,15.37,15.37,0,0,0-13.32,2.5c-10.18,7.45-17.33,29.14-19.61,59.52-.09,1.08-.17,1.72-.2,1.84A3.26,3.26,0,0,1,565.14,357.61Z"/><path d="M583.7,345.41a15.27,15.27,0,0,1-4.36-.62c-4.4-1.29-10.35-5.3-13.65-17.08A3.26,3.26,0,0,1,572,326c1.38,4.92,4.1,11.09,9.22,12.59,4.14,1.22,9.5-.83,15.07-5.78a3.25,3.25,0,1,1,4.32,4.87C594.78,342.78,589,345.41,583.7,345.41Z"/><path class="cls-3" d="M263.21,471c17.69,38.64,42.37,166.7,41.55,181.66-.61,11.12,165.8,155.17,185.84,136.24,5.67-5.35-52.16-162.13-72.4-169.32-5.06-53.55-27.08-135.89-27.08-135.89Z"/><path d="M263.21,471c17.69,38.64,156,146.68,149.34,108.78-8.31-47-21.43-96.09-21.43-96.09Z"/><path class="cls-3" d="M221.13,436.46S352.48,605,516.67,526.21s-39.86-385.11-66.13-387.3S221.13,90.56,221.13,436.46Z"/><path class="cls-4" d="M335.88,398.83c-37.69-7.53-48.52,43.67-9.7,43.67S384.4,408.54,335.88,398.83Z"/><path class="cls-4" d="M541.5,324.7c-48.45-9.75-39,36.11-9.7,43.67S590,334.46,541.5,324.7Z"/><path class="cls-3" d="M247.6,406c-27.85-17.77-111.89-15.37-97.48,41.3s106.61,41.3,120.53,34.1S275.45,423.78,247.6,406Z"/><path d="M331.64,358c-26.41,1.92-21.61,55.71,7.68,49.46S358.05,356.07,331.64,358Z"/><path d="M512,295.63c-26.41,1.92-21.61,55.71,7.69,49.46S538.44,293.71,512,295.63Z"/><path d="M452,399.54a3.26,3.26,0,0,1-.45-6.48c6.68-.93,24.5-5.25,26.78-13.9,1.92-7.3-16-25.32-29.37-35.79a3.25,3.25,0,1,1,4-5.12c5.94,4.65,35.35,28.54,31.65,42.57-3.78,14.35-29.27,18.29-32.17,18.69Z"/><path d="M442.61,451.4c-.94,0-1.88,0-2.82-.11-14.13-1.07-25.9-9.62-32.31-23.47a3.26,3.26,0,0,1,5.91-2.73c5.38,11.64,15.19,18.83,26.89,19.71a32.27,32.27,0,0,0,29.16-14.6,3.26,3.26,0,0,1,5.43,3.6A38.87,38.87,0,0,1,442.61,451.4Z"/><path d="M291.51,365.73a11.4,11.4,0,0,1-10.74-15.21c7.29-20.54,23.35-36.6,49.11-49.09a11.4,11.4,0,0,1,9.94,20.51c-20.1,9.75-32.39,21.59-37.57,36.21A11.41,11.41,0,0,1,291.51,365.73Z"/><path d="M516.79,272.59a11.41,11.41,0,0,1-5.39-1.36c-8.52-4.58-26.66-9.6-37.17-6.71a11.39,11.39,0,1,1-6.05-22c18.29-5.05,42.83,2.6,54,8.6a11.4,11.4,0,0,1-5.4,21.44Z"/><path d="M257.54,466.56a3.25,3.25,0,0,1-3-2.1C246.79,444.21,220,426,198.44,426.28c-9.34.11-21.73,3.84-27.77,21a3.26,3.26,0,1,1-6.14-2.17c5.68-16.11,17.7-25.09,33.83-25.29h.55c24.32,0,53,19.67,61.67,42.37a3.25,3.25,0,0,1-1.88,4.2A3.14,3.14,0,0,1,257.54,466.56Z"/><path d="M220.23,469.35a11.23,11.23,0,0,1-1.53-.1,3.25,3.25,0,0,1,.87-6.45c3.62.52,8-3,10.84-8.65,2.77-5.48,3.94-13.26,0-17.39a3.25,3.25,0,0,1,4.68-4.52c6.67,6.89,4.8,17.7,1.18,24.85C232.37,464.7,226.22,469.35,220.23,469.35Z"/><path class="cls-2" d="M465.75,17C281.55-73.3,144.67,256.15,144.67,256.15s-70.09,20.3-85.15,64.19,90.6,127,90.6,127-1.6-50.3,58.08-49.69,68.71,70.68,68.71,70.68c15.38-48.3-5.92-87.95-39-125,0,0,22.33-64.8,66.54-118,62.73-36.27,129.06,21.84,129.06,21.84s20.91-29.72,13.76-64.4a91.59,91.59,0,0,0-7.48-22c44.44,10.78,73.75,55.3,90.66,88.75,10.14,20.06,18.88,40.11,18.88,40.11S577.63,71.92,465.75,17Z"/><path class="cls-2" d="M149.25,258.77c-1.31-2-22.92-66.81-61.57-60.91s-31.43,53-31.43,53C84,235.94,113.83,231.86,149.25,258.77Z"/><path class="cls-3" d="M417.39,612S625.16,746.27,692.06,715.6s169.41-246,188-257.12,185.84-78.06,198.85-45.54-93.85,58.54-96.64,61.33c-1.21,1.21,4.49,19.75,4.45,36.72,0,8.51-1.13,30.91-14.46,42.19C950.88,571.24,912.6,577.4,906,577.42c-10.76,0-18.88-9.62-18.88-9.62S792.83,823.1,685,837c-81.53,10.54-232.79-96.86-282.19-162.85C387,652.94,417.39,612,417.39,612Z"/><path d="M643.16,1007.47l-1.07-120.76s-89.49,45-58,92.73S643.16,1007.47,643.16,1007.47Z"/><path class="cls-5" d="M790.63,582.44s-51.51,122.06-101.06,123-93.91-41.28-145.87-61.61C473.87,616.53,417.39,612,417.39,612s25.77,61.53-2.26,78.78S314.86,675.39,302.5,632.09c-31.09,12-103.92,66.55-114.7,153.89s33.36,205.85,36.36,208.85c4.41,4.41,23.13,5.86,79.53,6,92.84,87.75,218.18,78.86,339.47,6.62-28-22.1-24.33-78.4-1.07-120.76l-24.58,4.78-7.88-26s61.57,61.07,145.67,20.1S864.19,685.09,864.19,685.09C824.17,684.89,805.3,645.87,790.63,582.44Z"/><path class="cls-6" d="M836.09,783.27c-17,41.23-42.84,83.87-80.78,102.35-47.16,23-87.29,13.87-113.39,1.4-.87,1.61-1.75,3.21-2.52,4.76-2-1.21-3.89-2.33-5.68-3.44-13.29-8.06-21.2-13.25-21.2-13.25L568,723.91c-30-40.09-62.8-57.37-96.24-68.75,0,0,11.07,76.34-30,96.4s-126-45.46-126-45.46C305,717.36,297.24,732,298,756.27c0,0,35.47,58.22,89.62,100.72s162.58,44.83,162.58,44.83c-20.31,17.46-46.78,112.62-5.43,149.63-88.21,26-173.31,13.44-241-50.6-56.43-.15-75.11-1.6-79.52-6-3-3-47.16-121.54-36.39-208.87s83.64-141.82,114.7-153.85c12.37,43.28,84.61,75.88,112.65,58.66s2.24-78.8,2.24-78.8,56.47,4.57,126.34,31.88c51.91,20.33,96.31,62.54,145.84,61.62,20.87-.41,42.1-22.31,59.67-47.53C743.44,683.47,792,799.11,836.09,783.27Z"/><path d="M945.87,514.15a60.57,60.57,0,0,1-15.07-1.92,3.25,3.25,0,0,1,1.63-6.3c20,5.16,43.23-.56,48.74-21.52a3.26,3.26,0,0,1,6.3,1.66C982.35,505.53,964.31,514.15,945.87,514.15Z"/><path d="M947.46,561.32a60.54,60.54,0,0,1-15.06-1.91,3.25,3.25,0,1,1,1.63-6.3c20,5.16,43.23-.56,48.74-21.52a3.26,3.26,0,0,1,6.3,1.65C984,552.7,965.91,561.32,947.46,561.32Z"/><path d="M947.18,541.72a60.4,60.4,0,0,1-15-1.91,3.25,3.25,0,0,1,1.62-6.3c20,5.17,43.23-.56,48.74-21.52a3.26,3.26,0,0,1,6.3,1.65C983.67,533.1,965.63,541.72,947.18,541.72Z"/><path class="cls-3" d="M933.35,794.32c-2.59,28.51-108.49,82.25-108.49,82.25,17.83,22.67,20,25.74-1.7,47.59,2.71,11.89-2.69,19.33-17.87,21.43,0,0-4.9,18.11-43.9,22.41-5.73.77-22.54-3.71-23.43-9.65-2.67.16-22.88.06-29.32-4.34A74.19,74.19,0,0,1,696.42,943l-66.62,47c-17.74-28.82-1.07-76.14,11.56-101.62,0,0,92.38-29.52,171.47-59.83C879.51,802.93,935.25,773.46,933.35,794.32Z"/><path d="M538.78,902c-128.31,0-216.25-64.49-267.39-195.23a3.26,3.26,0,1,1,6.07-2.37C340,864.37,459.07,923,641.4,883.53a3.26,3.26,0,1,1,1.37,6.37Q586.92,902,538.78,902Z"/><path d="M318.06,1017.55a3.25,3.25,0,0,1-2.11-.78,251.84,251.84,0,0,1-40.45-44.49,3.26,3.26,0,1,1,5.29-3.8,245.46,245.46,0,0,0,39.39,43.34,3.26,3.26,0,0,1-2.12,5.73Z"/><path d="M900.85,548.18a3.25,3.25,0,0,1-.81-6.4c.48-.15,27.55-9.6,29.87-47.23a3.24,3.24,0,0,1,2.25-2.9c18.44-6.2,44.7-18.3,45.5-23.92.49-3.41-2.69-9.88-8.66-14.38-4.91-3.68-15.46-8.84-31-1.84l-8,3.63c-11.14,5.07-21.65,9.85-29.93,12.65a3.26,3.26,0,0,1-2.09-6.17c8-2.69,18.34-7.41,29.32-12.4,2.66-1.21,5.35-2.44,8-3.65,18.6-8.37,31.54-2,37.59,2.58,7.39,5.56,12.1,14.18,11.19,20.51-1.67,11.72-38.6,25.26-47.86,28.47-3.55,40.67-34.29,50.88-34.6,51A3.61,3.61,0,0,1,900.85,548.18Z"/><path d="M824.94,927.42a3.25,3.25,0,0,1-2.37-5.48c.1-.11,9.89-10.6,14.71-22.29C839.72,893.72,820,875.92,800,863a3.25,3.25,0,1,1,3.52-5.47c10.79,7,45.52,30.73,39.82,44.58-5.28,12.83-15.55,23.81-16,24.27A3.23,3.23,0,0,1,824.94,927.42Z"/><path d="M803.06,952.9a3.25,3.25,0,0,1-1.18-6.29c10.93-4.25,17.45-9.69,19.36-16.16,2-6.79-1.79-12.93-2.47-13.94-2-2.08-20-20.86-24.5-24.88a3.25,3.25,0,1,1,4.35-4.84c4.88,4.39,24.21,24.54,25,25.4a2.69,2.69,0,0,1,.27.32c.28.37,6.64,9.17,3.59,19.69-2.48,8.55-10.31,15.45-23.27,20.48A3.28,3.28,0,0,1,803.06,952.9Z"/><path d="M763.52,970.14a59.73,59.73,0,0,1-14.61-1.81c-8-2-12.53-5.6-13.47-10.69-2-11.09,15.5-23.69,17.51-25.09a3.25,3.25,0,0,1,3.72,5.34c-6.71,4.69-15.75,13.56-14.82,18.58.54,2.93,5,4.63,8.64,5.55,17.36,4.35,33.28-.79,42.4-7.06,5.74-3.94,9.47-8.78,10-13,.48-3.9-1.2-12.6-17.77-27-.78-.67-2.85-2.48-1.36-4.85a3.27,3.27,0,0,1,4-1.27,3.16,3.16,0,0,1,1.17.85l.41.36c14.17,12.34,21.07,23.66,20,32.74-.75,6.18-5.28,12.41-12.75,17.54A59.8,59.8,0,0,1,763.52,970.14Z"/><path d="M617.51,894.75a3.25,3.25,0,0,1-3.11-2.31c-11.66-38.28-49.7-163.58-49.7-168.53a3.26,3.26,0,0,1,6.51-.17c.82,6,30,102.94,49.41,166.8a3.26,3.26,0,0,1-2.16,4.07A3.52,3.52,0,0,1,617.51,894.75ZM571.22,723.91h0Z"/><path d="M685.4,791.58a4.63,4.63,0,0,1-.86-.09c-2.45-.53-9-1.93-14.39-87a3.25,3.25,0,0,1,3-3.45,3.3,3.3,0,0,1,3.46,3c2,31.49,5.59,65.78,8.74,77.63,2.52-8,5.59-26,8.4-65.77.09-1.28.17-2.38.3-3.29v-.06h0c.34-2.41,1.06-3.51,3.35-3.43a3.43,3.43,0,0,1,3.15,3.43c.63,4.45,14.18,37.71,21.07,48.42-.58-18.11-16.86-59.21-17-59.65a3.26,3.26,0,1,1,6-2.41c.78,2,19.07,48.14,17.4,65.71-.52,5.4-3.64,5.82-4.9,5.77-2.2-.1-5.88-.28-18-28-1.61-3.66-3.78-8.87-5.79-13.94-2.68,33.14-5.85,52.83-9.66,60C688.35,791.07,686.58,791.58,685.4,791.58Z"/><path class="cls-7" d="M216.42,184.78a3.53,3.53,0,0,1-1.82-.49,3.63,3.63,0,0,1-1.33-5C215.86,174.84,277.52,69.5,350.13,66c73.73-3.55,98.05,104.78,99.05,109.39a3.64,3.64,0,0,1-7.11,1.55c-.24-1.07-24-106.94-91.59-103.68C281.84,76.58,220.19,181.9,219.57,183A3.63,3.63,0,0,1,216.42,184.78Z"/><path class="cls-7" d="M204.88,254.49a3.63,3.63,0,0,1-3.23-5.3c2.77-5.39,68.9-131.71,154.33-115.12,85.87,16.67,81.19,112.36,81.13,113.33a3.64,3.64,0,0,1-7.27-.43c.22-3.68,4.33-90.31-75.24-105.75-80.14-15.52-145.83,110-146.48,111.3A3.65,3.65,0,0,1,204.88,254.49Z"/><path d="M396.1,701.61c-25.24,0-58.48-17-84.08-45.14a3.26,3.26,0,0,1,4.82-4.38c31.39,34.51,76,52.08,97.41,38.38,15.46-9.9,15.8-34.63.95-69.64a3.25,3.25,0,1,1,6-2.54c21.9,51.64,7.25,70.82-3.43,77.66C411.76,699.79,404.36,701.61,396.1,701.61Z"/><path d="M187.41,847.3a3.25,3.25,0,0,1-3.25-3.12c-6.71-168.71,116-214.69,117.23-215.13a3.26,3.26,0,0,1,2.2,6.13c-1.2.42-119.44,45-112.93,208.74a3.25,3.25,0,0,1-3.12,3.38Z"/><path d="M830.18,786.94c-40.61,0-64.88-56.28-83.34-112.15a3.25,3.25,0,1,1,6.18-2c18.56,56.17,42.9,112.79,82.62,107.3a3.26,3.26,0,0,1,.9,6.45A46.27,46.27,0,0,1,830.18,786.94Z"/><path d="M834.81,679.09a3.21,3.21,0,0,1-2-.7c-18.89-14.83-32.63-41.5-42-81.54a3.26,3.26,0,0,1,6.34-1.48c8.89,38,22.24,64.21,39.68,77.9a3.26,3.26,0,0,1-2,5.82Z"/></svg>