<svg id="Calque_1" data-name="Calque 1" xmlns="http://www.w3.org/2000/svg" viewBox="0 0 1080 1080"><defs><style>.cls-1{fill:#e48784;}.cls-2{fill:#dd7272;}.cls-3{fill:#fff;}.cls-4{fill:#ededed;}.cls-5{fill:#6c5870;}.cls-6{fill:#f4d38f;}.cls-7{fill:#e8bd72;}.cls-8{fill:#b8ecc5;}.cls-12,.cls-13,.cls-9{fill:none;stroke-miterlimit:10;}.cls-13,.cls-9{stroke:#fff;}.cls-10{fill:#9eddab;}.cls-11{fill:#5b4660;}.cls-12{stroke:#6c5870;stroke-width:3.83px;}.cls-13{stroke-width:2.55px;}.cls-14{fill:#cc6969;}.cls-15{fill:#e5bc73;}</style></defs><path class="cls-1" d="M523.45,39.58S161.33,187.25,164,191.28s50.61,507.13,50.61,507.13L520.2,560.35Z"/><polygon class="cls-2" points="523.45 39.58 894.27 122.78 899.63 610.73 520.2 560.35 523.45 39.58"/><polygon class="cls-3" points="523.45 53.76 185.71 212.86 229.35 677.92 520.2 560.35 523.45 53.76"/><polygon class="cls-4" points="523.45 53.76 877.08 148.66 869.88 631 520.2 560.35 523.45 53.76"/><path class="cls-5" d="M226.83,266.6a84.87,84.87,0,0,1,6.47-22.83l-2.36.3a336.68,336.68,0,0,1,45.79,44.81q5.86,6.94,11.33,14.2a1.52,1.52,0,0,0,2.8-.76q.83-25.53,3-51,1.1-12.72,2.55-25.41c.39-3.36.47-7.41,2.91-10a16.31,16.31,0,0,1,4.16-3c1.72-1,3.46-1.88,5.19-2.82q22-12,44.31-23.49T397.78,164q22.38-11,45-21.63l5.73-2.69c1.75-.81.23-3.4-1.51-2.59q-23.06,10.75-45.9,22T355.61,181.9q-22.5,11.6-44.78,23.64c-3.56,1.92-7.29,3.7-10.7,5.9a12.63,12.63,0,0,0-5.78,8.07,104,104,0,0,0-1.5,11.82q-.69,6.4-1.3,12.83-2.44,25.8-3.46,51.72c-.09,2.15-.16,4.3-.23,6.44l2.79-.75A338.59,338.59,0,0,0,247,253.85q-6.81-6.14-13.95-11.9a1.52,1.52,0,0,0-2.35.31,87.46,87.46,0,0,0-6.77,23.54,1.56,1.56,0,0,0,1.05,1.85,1.51,1.51,0,0,0,1.84-1Z"/><path class="cls-5" d="M336.68,227.91c-4.34.81-7.35,4.71-8.31,8.83-1.14,4.87-.17,10.24.94,15,2.17,9.3,6.93,18.18,15,23.55a26.19,26.19,0,0,0,14.28,4.47,1.5,1.5,0,0,0,0-3c-8.09,0-15.53-4.76-20.13-11.24A39.26,39.26,0,0,1,333,254.06a45.36,45.36,0,0,1-2.13-13.12c.05-4.3,1.86-9.25,6.59-10.14,1.89-.35,1.09-3.24-.8-2.89Z"/><path class="cls-5" d="M354.88,249.19a54.92,54.92,0,0,0,28.38-16.59c1.29-1.43-.83-3.55-2.13-2.12a52.1,52.1,0,0,1-27.05,15.82c-1.88.43-1.09,3.32.8,2.89Z"/><path class="cls-5" d="M355.61,225.34a5.28,5.28,0,0,1,3.9-1.15,5.58,5.58,0,0,1,3.65,2c1.21,1.3,2.46,2.52,4.31,2.66a3.55,3.55,0,0,0,3.78-2.34c.62-1.84-2.27-2.62-2.89-.8,0-.13-.16.15,0,0s-.16.06-.07,0a2.23,2.23,0,0,1-.52.09,2,2,0,0,1-1.32-.63c-1.23-1.11-2.16-2.45-3.69-3.2a8.47,8.47,0,0,0-9.24,1.16,1.5,1.5,0,0,0,2.12,2.12Z"/><path class="cls-5" d="M378.05,262.68l5,.15-1.5-1.5.16,3.94a1.5,1.5,0,0,0,3,0l-.16-3.94a1.53,1.53,0,0,0-1.5-1.5l-5-.15a1.5,1.5,0,0,0-1.5,1.5,1.54,1.54,0,0,0,1.5,1.5Z"/><path class="cls-5" d="M378.55,201.55c13.36,9.87,19.1,26.43,22,42.14.94,5.12,1.63,10.29,2.29,15.45.24,1.89,3.25,1.91,3,0-2.25-17.56-4.94-36.06-16-50.53a48.4,48.4,0,0,0-9.74-9.65c-1.56-1.15-3.06,1.45-1.52,2.59Z"/><path class="cls-5" d="M431.94,186.07a217.23,217.23,0,0,0-7.43,42.34c-.14,1.93,2.86,1.92,3,0a212.85,212.85,0,0,1,7.33-41.54,1.51,1.51,0,0,0-2.9-.8Z"/><path class="cls-5" d="M411.59,203.86A85.67,85.67,0,0,1,442.9,225c1.33,1.41,3.45-.72,2.12-2.12A89.11,89.11,0,0,0,412.39,201c-1.8-.69-2.58,2.21-.8,2.9Z"/><path class="cls-5" d="M256.68,376.64c2.76-5,5.65-10.15,9.76-14.21a21.66,21.66,0,0,1,6.61-4.6c3.2-1.37,6.67-1.47,10.08-1.86,14.53-1.67,28-7.93,41.35-13.52l86.07-36,48.33-20.23a1.57,1.57,0,0,0,1.05-1.85,1.51,1.51,0,0,0-1.85-1.05l-87.45,36.61L327.36,338c-13.68,5.73-27.52,12.48-42.33,14.7-3.81.57-7.78.51-11.48,1.73a23.4,23.4,0,0,0-8.19,4.88c-4.85,4.34-8.18,10.15-11.27,15.8-.92,1.69,1.67,3.21,2.59,1.51Z"/><path class="cls-5" d="M276.73,402.44a148.93,148.93,0,0,1,17.55-11.78q4.67-2.67,9.53-5a47.11,47.11,0,0,1,8.9-3.63c3.05-.76,5.77-.48,7.89,2,2,2.34,4,4.3,7.28,4.09s6.26-2,9.07-3.55c3-1.67,6-3.44,9-5.25,11.64-7.13,23.06-14.89,36-19.47,11.22-3.95,23-5.92,34.51-8.82,12.58-3.18,25.11-7.68,34.66-16.8,1.4-1.34-.73-3.46-2.12-2.13-8.46,8.09-19.46,12.34-30.59,15.32-11.54,3.09-23.38,5-34.76,8.7-12.93,4.2-24.37,11.39-35.84,18.51-2.88,1.79-5.78,3.57-8.71,5.28s-6,3.76-9.24,4.78a5.85,5.85,0,0,1-4.22.09c-1.35-.63-2.19-2.08-3.15-3.16a9.09,9.09,0,0,0-7.74-3c-3.55.28-6.81,1.79-10,3.26q-5.31,2.43-10.4,5.27a152.85,152.85,0,0,0-19.72,13.13c-1.52,1.19.62,3.3,2.12,2.12Z"/><path class="cls-5" d="M318.66,458.61c-13-.52-25.65,5.36-34.8,14.43-9.36,9.28-15.29,21.63-18.5,34.3-3.42,13.48-3.72,28.15,1.84,41.12a55.56,55.56,0,0,0,56.56,32.61,62.3,62.3,0,0,0,33.62-14.46c19.17-16.35,26.66-44.15,20-68.19-3.36-12.05-10.22-23.3-20.17-31a50.09,50.09,0,0,0-35-10.45,44.18,44.18,0,0,0-8.82,1.76c-1.84.57-1.06,3.47.79,2.9,11.35-3.52,23.8-1.85,34.23,3.67,10.59,5.61,18.56,15.1,23.29,26,9.49,21.95,5.45,49-10.28,67.07-15.29,17.56-41.2,25.05-63.08,16.23a53.28,53.28,0,0,1-24.63-20.34c-6.92-10.78-8.82-23.65-7.32-36.24,2.9-24.25,17.61-50.76,43.39-55.79a38.5,38.5,0,0,1,8.9-.65c1.93.08,1.93-2.92,0-3Z"/><path class="cls-5" d="M334.75,448.89l-9.18,29.86c-3,9.87-6.21,19.7-9.08,29.62a67.15,67.15,0,0,0-3,16.6,1.5,1.5,0,0,0,2.25,1.3,79.48,79.48,0,0,1,19.84-9.4c1.84-.58,1.05-3.48-.8-2.9a82.82,82.82,0,0,0-20.55,9.71l2.26,1.29c.31-10,4-19.63,6.95-29.08q4.51-14.68,9-29.38l5.17-16.82c.57-1.85-2.33-2.64-2.89-.8Z"/><path class="cls-5" d="M343.32,514.64l.27-.37c.16-.21-.16.2,0,.06l.14-.18c.19-.24.38-.47.58-.69a16.26,16.26,0,0,1,1.24-1.25c.21-.2.42-.39.64-.57l.35-.29c.05,0,.26-.2.07-.05s0,0,.06,0a17.09,17.09,0,0,1,1.5-1,1.5,1.5,0,1,0-1.51-2.59,19.93,19.93,0,0,0-5.89,5.46,1.56,1.56,0,0,0-.15,1.16,1.5,1.5,0,0,0,.69.89,1.54,1.54,0,0,0,2.05-.53Z"/><path class="cls-5" d="M356.19,507l3-2.09a1.6,1.6,0,0,0,.69-.9,1.5,1.5,0,0,0-1.05-1.84,1.47,1.47,0,0,0-1.16.15l-3,2.09a1.67,1.67,0,0,0-.69.9,1.53,1.53,0,0,0,.15,1.15,1.51,1.51,0,0,0,.9.69,1.47,1.47,0,0,0,1.16-.15Z"/><path class="cls-5" d="M368.6,499.36l-.07-.05.3.23a.91.91,0,0,1-.17-.17l.23.3a.77.77,0,0,1-.14-.25l.15.36a1.17,1.17,0,0,1-.09-.32l.05.39a1.45,1.45,0,0,1,0-.36l-.06.4a1.47,1.47,0,0,1,.08-.3l-.15.35a1.28,1.28,0,0,1,.15-.25l-.24.31a.77.77,0,0,1,.18-.18l-.31.24.08-.06a1.62,1.62,0,0,0,.69-.89,1.11,1.11,0,0,0,0-.6,1.22,1.22,0,0,0-.17-.56,1.51,1.51,0,0,0-2.06-.54,2.52,2.52,0,0,0-.9,1,2.77,2.77,0,0,0,0,2.62,2.51,2.51,0,0,0,.38.54,2.39,2.39,0,0,0,.53.42,1.12,1.12,0,0,0,.56.18,1.08,1.08,0,0,0,.59,0,1,1,0,0,0,.51-.27,1,1,0,0,0,.39-.42,1.49,1.49,0,0,0,.15-1.15,1.63,1.63,0,0,0-.69-.9Z"/><path class="cls-5" d="M381.16,496.65l2-2a1.53,1.53,0,0,0,.44-1.06,1.06,1.06,0,0,0-.13-.58,1.11,1.11,0,0,0-.31-.49,1.49,1.49,0,0,0-1.06-.43,1.55,1.55,0,0,0-1.06.43l-2.05,2a1.55,1.55,0,0,0-.43,1.06,1.14,1.14,0,0,0,.12.58,1.11,1.11,0,0,0,.31.48,1.5,1.5,0,0,0,1.07.44,1.53,1.53,0,0,0,1.06-.44Z"/><path class="cls-5" d="M384,428.32a73.93,73.93,0,0,0-5.32,10.92c-1.17,3-2.65,6.45-1.86,9.77s4,4.35,6.74,2.52a45.51,45.51,0,0,0,9.05-8.26l-2.36-.3c2.25,3.57,1.75,8,3.39,11.83,1.38,3.2,4.28,6.29,8.06,5.87,1.9-.2,1.92-3.2,0-3-3.24.36-5.19-3-5.88-5.73-.9-3.55-1-7.29-3-10.48a1.51,1.51,0,0,0-2.35-.31,50.28,50.28,0,0,1-7.15,6.84c-.67.52-2.23,2.06-3.14,1.31-.61-.5-.61-1.75-.6-2.45.06-2.72,1.46-5.59,2.48-8.07a68,68,0,0,1,4.51-8.94,1.5,1.5,0,0,0-2.59-1.52Z"/><path class="cls-5" d="M415.17,417.71c-2-2.3-5.65-1.11-7.81.23a8.79,8.79,0,0,0-4.4,6.72,6.9,6.9,0,0,0,3.66,6.4,5,5,0,0,0,6.47-1.77c1.43-2.18,1.24-5.29-1.06-6.78a1.5,1.5,0,0,0-1.51,2.6c.23.15,0,0,0,0a1.29,1.29,0,0,1,.17.16s.24.3.11.11,0,.05,0,.09c.18.31,0-.18.08.17,0,.12.11.58.08.22a4.87,4.87,0,0,1,0,.54c0,.37.06-.16,0,.2,0,.17-.08.33-.13.48s-.06.2-.1.3c.08-.2,0-.09,0,0l-.25.43c-.19.28.08-.06-.16.18a4.83,4.83,0,0,1-.4.38c.26-.2-.18.08-.26.13s.23-.08,0,0l-.23.08a1.59,1.59,0,0,1-.3.06c.1,0,.29,0,0,0-.1,0-.58,0-.36,0a3.67,3.67,0,0,1-.72-.2c.23.09-.27-.16-.31-.18a2.2,2.2,0,0,1-.25-.17c.05,0,.18.16-.06,0a3.93,3.93,0,0,1-.78-.86,4.3,4.3,0,0,1-.7-2.06,4.14,4.14,0,0,1,.59-2.24,6.6,6.6,0,0,1,1.61-1.86,8.08,8.08,0,0,1,2.72-1.42,3.55,3.55,0,0,1,1.43-.18s.28.05.08,0c.05,0,.45.14.24.05.28.12.23.11.43.34a1.5,1.5,0,0,0,2.12,0,1.53,1.53,0,0,0,0-2.12Z"/><path class="cls-5" d="M424.05,480.79a102.21,102.21,0,0,1,14.63-9.26c1.27-.65,2.55-1.28,3.84-1.88s2.74-1.46,4.15-1.33c2.23.21,3.11,3,3.25,4.86.21,2.66-.47,5.74.69,8.24,1.25,2.68,3.94,2.15,6.16,1.16a81.85,81.85,0,0,0,14.05-8.05,85.89,85.89,0,0,0,13.69-12.07c1.3-1.42-.81-3.55-2.12-2.12a83.09,83.09,0,0,1-25.6,18.94c-.63.3-2.55,1.56-3.26,1.17-.88-.48-.58-3.23-.58-4.05,0-2.58.07-5.14-1.14-7.49a6.25,6.25,0,0,0-5.14-3.59c-2.66-.11-5.38,1.57-7.69,2.71a100.68,100.68,0,0,0-16.44,10.17c-1.52,1.15,0,3.75,1.51,2.59Z"/><path class="cls-5" d="M428.93,525.51c3.62-2.62,7.19-5.35,10.88-7.87.66-.45,1.55-1.15,2.39-.91s1.28,1.09,1.74,1.64a8.69,8.69,0,0,0,3.75,2.69c3.19,1.13,6.82.25,9.87-.93,3.94-1.52,7.69-3.59,11.48-5.45l14-6.86c1.73-.85.21-3.44-1.52-2.59l-12.48,6.1c-3.86,1.88-7.68,4-11.64,5.63-2.79,1.18-6.61,2.49-9.51.95-1.43-.77-2.16-2.27-3.41-3.26a4.52,4.52,0,0,0-5-.36,41.91,41.91,0,0,0-5.91,4.11l-6.25,4.52c-1.54,1.12-.05,3.72,1.52,2.59Z"/><path class="cls-5" d="M578,142.44a23.75,23.75,0,0,0-11.76,7.79c-3.1,3.84-5.35,8.89-4.57,13.92.71,4.55,4.44,8.68,9.26,8.61,5.12-.07,9-4.31,11.8-8.12a62.84,62.84,0,0,0,8.65-16.48l-2.89-.79c-3,14.06-6.07,30.07,1.71,43.19a1.5,1.5,0,0,0,2.59-1.52c-7.34-12.37-4.27-27.64-1.41-40.88a1.5,1.5,0,0,0-2.89-.79,60,60,0,0,1-6.1,12.49c-2.24,3.5-5,7.64-8.95,9.34-3.69,1.57-7.4-.62-8.54-4.33-1.28-4.17.65-8.74,3.13-12.08a20.79,20.79,0,0,1,10.77-7.46c1.85-.55,1.06-3.44-.8-2.89Z"/><path class="cls-5" d="M614.48,164.75a37.3,37.3,0,0,1,19.9,7.87,1.56,1.56,0,0,0,2.12,0,1.53,1.53,0,0,0,0-2.13,41,41,0,0,0-22-8.74c-1.92-.16-1.91,2.84,0,3Z"/><path class="cls-5" d="M616.55,181.87,635,182.93c1.93.11,1.92-2.89,0-3l-18.43-1.06c-1.93-.11-1.92,2.89,0,3Z"/><path class="cls-5" d="M666.12,137q-2.31,12.71-3.85,25.52-.78,6.56-1.36,13.12c-.32,3.66-.71,7.34-.67,11,.08,5.82,1.36,12.5,6.7,15.8,2.39,1.49,6,1.94,8.2-.23s1.52-6.33.35-9c-2.71-6.16-10-10-16.58-8.19a1.52,1.52,0,0,0-.89,2.21,8.84,8.84,0,0,0,6.27,4.57c1.89.32,2.7-2.57.8-2.89a6,6,0,0,1-4.48-3.2l-.9,2.21c4.87-1.34,10.17,1.33,12.61,5.63.88,1.56,2.33,5.43.44,6.76s-4.81-.56-6.13-2c-3.41-3.71-3.54-9.58-3.35-14.31.3-7.18,1.14-14.38,2-21.51q1.49-12.42,3.75-24.72c.34-1.89-2.55-2.69-2.9-.8Z"/><path class="cls-5" d="M695,163a81.37,81.37,0,0,0,15.28-11.8c1.37-1.36-.75-3.48-2.13-2.12a77.23,77.23,0,0,1-14.67,11.33A1.5,1.5,0,0,0,695,163Z"/><path class="cls-5" d="M690.21,148.63a65.18,65.18,0,0,1,17.18,23.22c.78,1.77,3.37.24,2.59-1.51a67.06,67.06,0,0,0-17.65-23.83c-1.46-1.26-3.59.86-2.12,2.12Z"/><path class="cls-5" d="M750.94,147.49a164.43,164.43,0,0,0-27.77,71.26,1.55,1.55,0,0,0,1.05,1.84,1.49,1.49,0,0,0,1.84-1A162.17,162.17,0,0,1,753.53,149c1.1-1.59-1.5-3.09-2.59-1.52Z"/><path class="cls-5" d="M782.82,182.09c-6,3.89-11.77,8.68-14.17,15.62-2.22,6.42-.8,14,5.22,17.74a11.27,11.27,0,0,0,9.75,1.24c1.8-.66,1-3.56-.8-2.89a8.67,8.67,0,0,1-8.66-1.84,11.11,11.11,0,0,1-3.49-9.48c.64-8.07,7.36-13.68,13.66-17.8,1.61-1.05.11-3.65-1.51-2.59Z"/><path class="cls-5" d="M811.09,176.21c2.32.29,3.34,3.15,3.43,5.15.14,3.19-1.66,6.22-2.71,9.14-1.66,4.65-1.45,11.65,4.26,13.33,1.86.55,2.65-2.35.8-2.89-2.37-.7-3.12-3.45-3.07-5.66.07-3.25,2-6.25,2.94-9.27a11.77,11.77,0,0,0,0-8.31,6.9,6.9,0,0,0-5.63-4.49c-1.91-.23-1.9,2.77,0,3Z"/><path class="cls-5" d="M605.55,242.74c-6,10.67-12,21.36-18.84,31.5a141.24,141.24,0,0,1-10.8,14.35c-1.66,1.87-3.8,3.52-6.25,1.93s-2.79-4.39-2.71-6.95a31.43,31.43,0,0,1,5.31-16.4,10.45,10.45,0,0,1,5.7-4.43,6.29,6.29,0,0,1,5.72,1.71c3.6,3.38,4.84,8.77,6.34,13.29l6.15,18.63c2,6.09,3.7,12.45,6.38,18.29,2.13,4.62,5.4,9,10.54,10.31a1.5,1.5,0,0,0,.79-2.89c-4.89-1.27-7.58-6-9.36-10.37-2.43-6-4.2-12.34-6.24-18.5-2.26-6.84-4.49-13.68-6.77-20.51-1.47-4.39-3.52-9.5-7.76-11.91-4.93-2.81-10.2-.16-13.39,3.94-3.72,4.79-5.66,11.16-6.29,17.13-.3,2.85-.17,6,1.37,8.49a7.65,7.65,0,0,0,6.69,3.84c2.87-.18,4.94-2.31,6.67-4.38q3.12-3.76,6-7.7c8.81-11.95,16.08-24.92,23.33-37.85.94-1.69-1.65-3.2-2.59-1.52Z"/><path class="cls-5" d="M632.18,280.89l14.33,8.19a1.5,1.5,0,0,0,1.52-2.59L633.7,278.3a1.5,1.5,0,0,0-1.52,2.59Z"/><path class="cls-5" d="M637.6,301.75a68,68,0,0,0,19.9,1.85c1.92-.11,1.93-3.11,0-3a64.94,64.94,0,0,1-19.1-1.74c-1.88-.46-2.68,2.44-.8,2.89Z"/><path class="cls-5" d="M698.51,261.23c-1.45,18.49-10.38,35.56-11.14,54.16-.26,6.64,0,17.07,7.54,19.85,3.6,1.33,7.51-.28,10-3a13.57,13.57,0,0,0,3.37-11,15.42,15.42,0,0,0-6.6-11,15.74,15.74,0,0,0-13-2c-1.85.54-1.07,3.43.79,2.89A12.46,12.46,0,0,1,705.22,321a10.62,10.62,0,0,1-2.55,9.32c-2.16,2.26-5.51,3.39-8.23,1.36-2.41-1.8-3.35-5.17-3.77-8a48.64,48.64,0,0,1-.06-11.69c.76-8.06,3-15.91,5.19-23.69,2.49-8.87,5-17.79,5.71-27,.15-1.93-2.85-1.92-3,0Z"/><path class="cls-5" d="M744.52,300.72A13.35,13.35,0,0,1,755,305c1.32,1.41,3.44-.71,2.12-2.12a16.27,16.27,0,0,0-12.62-5.11,1.54,1.54,0,0,0-1.5,1.5,1.51,1.51,0,0,0,1.5,1.5Z"/><path class="cls-5" d="M742.92,319.59A91.3,91.3,0,0,0,765,322.43a1.5,1.5,0,0,0,0-3,87.68,87.68,0,0,1-21.27-2.74c-1.87-.48-2.67,2.42-.8,2.9Z"/><path class="cls-5" d="M825.47,303.27A69.19,69.19,0,0,0,804.25,306c-5.49,1.62-11.39,3.86-14.85,8.69s-2.59,11.1.28,16c3.09,5.29,8.09,9.32,13.33,12.34a48.94,48.94,0,0,0,20.34,6.33c1.92.17,1.91-2.84,0-3a45.13,45.13,0,0,1-16.43-4.63c-4.93-2.47-9.77-5.82-13.12-10.26-3-4-5.16-9.51-2.48-14.23,2.58-4.56,8.09-6.63,12.83-8.09a66.39,66.39,0,0,1,21.32-2.92c1.93.05,1.93-2.95,0-3Z"/><path class="cls-5" d="M589.53,359a54,54,0,0,0-6,71.83c1.15,1.52,3.76,0,2.59-1.51a51.07,51.07,0,0,1,5.54-68.2c1.4-1.33-.72-3.45-2.12-2.12Z"/><path class="cls-5" d="M607.6,390.63a9.14,9.14,0,0,0-2.69,8.53,8.74,8.74,0,0,0,6.3,6.45c3.57,1,6.41-.66,9.4-2.4a6.55,6.55,0,0,1,4.2-1.19c1.61.23,2,1.31,1.81,2.82-.29,1.9-.77,3.64.29,5.41a3.37,3.37,0,0,0,4.45,1.55c1.75-.79.23-3.38-1.52-2.59.17-.08-.09-.13-.26-.34a2,2,0,0,1-.39-1,13.69,13.69,0,0,1,.44-3,5,5,0,0,0-1.57-4.6c-2.79-2.3-6.55-1.06-9.29.57-1.57.93-3.19,2.08-5.08,2.11a6.14,6.14,0,0,1-4.25-1.62,5.88,5.88,0,0,1,.28-8.56c1.43-1.31-.7-3.42-2.12-2.12Z"/><path class="cls-5" d="M651.41,410.68l.21-.17c-.12.09-.11.09,0,0l.44-.31c.31-.21.62-.4.93-.58s.57-.3.85-.44l.5-.23c-.29.13.23-.08.28-.1a13.48,13.48,0,0,1,2-.58l.54-.11c.05,0,.62-.08.27,0a10.19,10.19,0,0,1,1.1-.09,1.5,1.5,0,0,0,0-3,15.77,15.77,0,0,0-9.24,3.55,1.49,1.49,0,0,0,0,2.12,1.54,1.54,0,0,0,2.12,0Z"/><path class="cls-5" d="M671.21,411.05l4.09-1a1.5,1.5,0,1,0-.79-2.89l-4.1,1a1.5,1.5,0,1,0,.8,2.89Z"/><path class="cls-5" d="M698.23,381.68c4,9.14,7.77,18.77,8.61,28.8a38.79,38.79,0,0,1-1.29,14.38,45,45,0,0,1-6.46,12.46c-3,4.35-6.2,8.55-8.56,13.28-.86,1.73,1.73,3.25,2.59,1.52,4.34-8.72,11.62-15.7,14.86-25,3.39-9.76,2.09-20.4-.78-30.11a142.3,142.3,0,0,0-6.38-16.83c-.77-1.76-3.36-.24-2.59,1.51Z"/><path class="cls-5" d="M734.73,435.65c5.21-3.43,10.61-7.16,13-13.2,2.06-5.3.79-11.75-4.47-14.65a7.92,7.92,0,0,0-7.62-.3,4.34,4.34,0,0,0-2.16,2.74c-.36,1.55.37,3,1.1,4.28a92.57,92.57,0,0,0,9.18,14.2c3.87,4.72,8.68,8.62,14.55,10.52,1.84.59,2.63-2.3.79-2.89-8.72-2.83-14.44-10.58-18.95-18.13-1.15-1.93-2.35-3.88-3.35-5.89-.54-1.08-.55-1.87.66-2.4a4.62,4.62,0,0,1,3.05-.05c4.77,1.37,6,6.81,4.6,11-1.87,5.62-7.15,9.07-11.85,12.16-1.61,1.06-.11,3.66,1.51,2.59Z"/><path class="cls-5" d="M805.21,413.15a54.29,54.29,0,0,0-2.75,13.22c-.27,3.42-.21,7.53,3.28,9.33,2.85,1.48,6.4.72,9.1-.72,3.26-1.74,5.81-4.74,9.59-5.39l-1.85-1.84a48.71,48.71,0,0,0-.78,21.35c.35,1.9,3.24,1.1,2.89-.79a45.2,45.2,0,0,1,.79-19.77,1.52,1.52,0,0,0-1.85-1.84c-3.19.54-5.69,2.59-8.26,4.39-2.13,1.49-4.93,3-7.62,2.21-3.2-1-2.45-5.34-2.2-7.87A50.83,50.83,0,0,1,808.1,414c.63-1.83-2.27-2.62-2.89-.8Z"/><path class="cls-5" d="M592,479.35l76.23,10,76.23,9.95,43.07,5.62c.81.11,1.49-.76,1.5-1.5a1.54,1.54,0,0,0-1.5-1.5l-76.23-9.95L635.1,482,592,476.35a1.5,1.5,0,0,0,0,3Z"/><path class="cls-5" d="M595.84,500l42,6.05c13.72,2,27.42,4.06,41.17,5.76,7.84,1,15.71,1.79,23.59,2.33,1.93.13,1.92-2.87,0-3-13.84-1-27.59-2.77-41.31-4.72s-27.61-4-41.41-6l-23.2-3.34a1.54,1.54,0,0,0-1.84,1.05,1.5,1.5,0,0,0,1,1.84Z"/><path class="cls-5" d="M589.41,520c13.07,3.21,26.52,4.18,39.9,5.18,6.76.51,13.52,1,20.25,1.87s13.47,2.09,20.14,3.5c13.41,2.85,26.68,6.37,40,9.71l40.45,10.14L796,561.86c1.87.46,2.67-2.43.8-2.9l-81.48-20.42c-13.33-3.34-26.64-6.85-40-9.87a283.88,283.88,0,0,0-40-6.06c-15.1-1.21-30.31-1.9-45.07-5.53-1.88-.46-2.68,2.43-.8,2.89Z"/><ellipse class="cls-6" cx="191.75" cy="706.71" rx="62.11" ry="12.88"/><polygon class="cls-6" points="91.86 512.85 129.64 706.71 253.86 706.71 291.64 512.85 91.86 512.85"/><ellipse class="cls-7" cx="191.75" cy="512.85" rx="99.89" ry="20.72"/><polygon class="cls-8" points="124.47 528.16 110.02 413.77 142.72 402.2 154.82 532.1 124.47 528.16"/><path class="cls-1" d="M119.05,422.16c-1.15,0-21.88,8.45-21.5,9.6s10.75,81.09,10.75,81.09l6.15-2.78-6.15-71.79,10.75-5.75Z"/><polygon class="cls-5" points="172.39 533.17 172.39 340.4 222.31 346.54 213.88 533.05 172.39 533.17"/><line class="cls-9" x1="172.39" y1="353.47" x2="191.75" y2="354.97"/><line class="cls-9" x1="172.39" y1="363.92" x2="182.32" y2="364.51"/><line class="cls-9" x1="172.39" y1="374.73" x2="189.99" y2="375.58"/><line class="cls-9" x1="172.39" y1="383.59" x2="182.68" y2="383.87"/><line class="cls-9" x1="172.39" y1="394.97" x2="188.58" y2="395.53"/><line class="cls-9" x1="172.39" y1="407.89" x2="181.19" y2="407.89"/><line class="cls-9" x1="172.39" y1="419" x2="187.71" y2="419.29"/><line class="cls-9" x1="172.39" y1="429.67" x2="181.19" y2="429.81"/><line class="cls-9" x1="172.39" y1="443.3" x2="186.89" y2="443.87"/><line class="cls-9" x1="172.39" y1="454.12" x2="181.19" y2="453.7"/><line class="cls-9" x1="172.39" y1="467.72" x2="187.18" y2="468.45"/><line class="cls-9" x1="172.39" y1="479.84" x2="181.19" y2="480.4"/><line class="cls-9" x1="172.39" y1="492.52" x2="187.03" y2="492.76"/><line class="cls-9" x1="172.39" y1="502.32" x2="179.78" y2="502.18"/><line class="cls-9" x1="172.39" y1="515.81" x2="186.33" y2="515.67"/><line class="cls-9" x1="172.39" y1="526.49" x2="182.26" y2="526.49"/><path class="cls-1" d="M228.7,532.1,242,422.16l51.72,7.58-14,92.93S258.63,531.1,228.7,532.1Z"/><polygon class="cls-8" points="234.28 485.9 284.31 492.13 293.69 429.74 241.97 422.16 234.28 485.9"/><polygon class="cls-10" points="258.26 436.79 249.71 505.49 270.88 505.49 279.44 438.71 258.26 436.79"/><polygon class="cls-11" points="552.54 770.57 552.54 741.39 755.78 658.1 778.2 574.57 792.2 567.88 1000.25 592.07 994.11 675.91 731.97 853.7 552.54 770.57"/><polygon class="cls-5" points="552.54 741.39 755.78 628.92 778.2 574.57 977.4 607.75 976.07 657.98 731.97 824.52 552.54 741.39"/><polygon class="cls-8" points="780.54 623.05 790.76 590.26 959.13 620.06 959.13 647.72 780.54 623.05"/><polygon class="cls-4" points="611.82 734.32 764.97 645.24 912.24 672.07 738.73 785.36 611.82 734.32"/><line class="cls-12" x1="797.89" y1="647.72" x2="646.66" y2="752.41"/><line class="cls-12" x1="869.83" y1="658.03" x2="697.48" y2="773.36"/><line class="cls-12" x1="718.78" y1="661.44" x2="877.08" y2="708.06"/><line class="cls-12" x1="672.26" y1="688.76" x2="829.73" y2="734.32"/><line class="cls-12" x1="643.68" y1="708.06" x2="776.39" y2="769.55"/><polygon class="cls-6" points="733.55 755.27 706.9 772.56 738.73 785.36 764.97 768.22 733.55 755.27"/><path class="cls-8" d="M627.83,636.12,589.5,646.49c-16.15-27-51.5-45.82-92.53-45.82-56.28,0-101.9,35.29-101.9,78.82A62.19,62.19,0,0,0,398,698.32l-24,6.5,9.29,38.65,263.4-61.28ZM440.78,670.9c0-24,25.15-43.46,56.19-43.46,24.79,0,45.83,12.43,53.28,29.67L444.19,685.82A34.76,34.76,0,0,1,440.78,670.9Z"/><line class="cls-13" x1="393.81" y1="741.02" x2="388.17" y2="717.91"/><line class="cls-13" x1="415.39" y1="735.99" x2="412.38" y2="721.69"/><line class="cls-13" x1="441.69" y1="729.87" x2="435.43" y2="708.06"/><line class="cls-13" x1="468.07" y1="723.74" x2="465.86" y2="711.54"/><line class="cls-13" x1="490.43" y1="717.91" x2="483.42" y2="695.74"/><line class="cls-13" x1="510" y1="713.98" x2="505.61" y2="699.55"/><line class="cls-13" x1="533.46" y1="708.52" x2="526.93" y2="684.75"/><line class="cls-13" x1="556.79" y1="703.1" x2="553.32" y2="688.42"/><line class="cls-13" x1="578.97" y1="697.94" x2="570.65" y2="674.42"/><line class="cls-13" x1="598.94" y1="693.29" x2="597.29" y2="677.92"/><line class="cls-13" x1="622.41" y1="687.83" x2="615.09" y2="662.49"/><line class="cls-13" x1="634.96" y1="684.75" x2="631.35" y2="672.07"/><polygon class="cls-4" points="215.7 743.47 98.02 936.11 434.48 1016.17 510.31 797.73 215.7 743.47"/><polygon class="cls-3" points="332.45 701.64 141.29 839.92 326.91 1047.13 502.03 927.4 332.45 701.64"/><polygon class="cls-14" points="555.05 859 555.05 874.7 601.86 892.84 613.73 871.99 613.73 856.29 555.05 859"/><polygon class="cls-1" points="568.84 840.23 555.05 859 601.86 877.15 613.73 856.29 568.84 840.23"/><polygon class="cls-8" points="569.74 844.71 566.09 851.29 602.18 863.87 605.36 856.58 569.74 844.71"/><polygon class="cls-3" points="566.09 851.29 565.21 852.64 601.31 866.03 602.18 863.87 566.09 851.29"/><polygon class="cls-14" points="565.21 852.64 601.31 866.03 598.88 870.41 562.93 857.19 565.21 852.64"/><circle class="cls-5" cx="585.12" cy="853.99" r="1.91"/><path class="cls-15" d="M855.2,817.32l19.09,10.36L998,796.19l-1.48-33.9L977.4,751.93C966.51,755,859.07,806.7,855.2,817.32Z"/><path class="cls-6" d="M863.3,795.11l-8.1,22.21,123.68-31.49-1.48-33.9-90.57,21.42A35.1,35.1,0,0,0,863.3,795.11Z"/><polygon class="cls-8" points="662.24 927.4 678.84 906.7 901.43 844.71 917.04 874.38 684.13 933.22 662.24 927.4"/><polygon class="cls-6" points="678.84 906.7 684.13 933.22 662.24 927.4 678.84 906.7"/><path class="cls-1" d="M901.43,844.71,917,874.38l2.89-.47a16.57,16.57,0,0,0,12.44-23.09h0a16.59,16.59,0,0,0-19.53-9.25Z"/><polygon class="cls-5" points="901.43 844.71 917.04 874.38 899.81 878.74 884.49 849.43 901.43 844.71"/><polygon class="cls-5" points="666.73 921.8 668.4 929.04 662.24 927.4 666.73 921.8"/></svg>