<svg id="Background" xmlns="http://www.w3.org/2000/svg" viewBox="0 0 800 1200"><defs><style>.cls-1{opacity:0.5;}.cls-2{fill:#848484;}</style></defs><g class="cls-1"><rect class="cls-2" x="759.23" y="1.39" width="1" height="1198.61"/><path class="cls-2" d="M713.87,129.77a37,37,0,0,1,3.19-15.43c1.32-4.2,2.34-7.72,2.41-11.59V1.39h1V102.77c-.09,4.19-1.2,8-2.53,12.27l-.05.11a36.21,36.21,0,0,0-1.83,23.73q.79,3.24,1.6,6.46c5.63,22.67,11.46,46.11,3,68.8-.1,2.77-.16,5.6-.22,8.34V334.59a60.72,60.72,0,0,1-.84,11.92c-3.76,13.78-7,28.22-2.14,40.73,6.49,17.5,12.26,42.88,3,64.4a30.28,30.28,0,0,0-1.24,9.14,229.43,229.43,0,0,0,2.7,37.82c.89,8.69.17,17.38-.53,25.78-.45,5.43-.91,11-.91,16.47V1200h-1V540.85c0-5.51.47-11.18.93-16.66.68-8.3,1.4-16.88.53-25.32a233.85,233.85,0,0,1-2.72-38.13,32.44,32.44,0,0,1,1.38-9.84c9.06-21,3.39-45.78-3-62.92-5.09-13.09-1.77-27.91,2.06-42a58.74,58.74,0,0,0,.78-11.42V222.43c.06-2.8.13-5.7.23-8.55v-.17l.06-.15c8.28-22.14,2.52-45.3-3-67.69q-.81-3.24-1.59-6.44A35.62,35.62,0,0,1,713.87,129.77Z"/><path class="cls-2" d="M676.45,461.22a138.63,138.63,0,0,1,2.77-28.3c.16-3.4.18-6.74.18-9.62,0-6,0-12.15-.14-18.09-.14-8.88-.28-18.07,0-26.92.09-3.34.1-6.31.1-9.31,0-2.14.06-4.42.19-7,1.18-14.53.52-29.83-.13-44.63-.49-11.34-1-23.05-.68-34.4,0-1.46-.06-3-.12-4.47a54.44,54.44,0,0,1,.54-12.44c.11-3.3.17-7,.2-11.53V196.08c0-2.34.06-4.75.18-6.88.63-9.6.18-19.63-.27-29.34-.51-11.18-1-22.74.08-33.87V1.39h1V126.16c-1.09,11-.57,22.48-.06,33.59.44,9.77.9,19.88.25,29.58-.11,2.07-.14,4.47-.17,6.78v58.43c0,4.64-.09,8.35-.2,11.69l0,.18a51.63,51.63,0,0,0-.51,12c.05,1.5.11,3.05.11,4.58-.31,11.3.19,23,.69,34.27.64,14.87,1.31,30.24.12,44.88-.13,2.47-.19,4.72-.19,6.82,0,3,0,6-.1,9.38-.31,8.8-.17,18,0,26.82.09,5.95.18,12.11.14,18.13,0,2.92,0,6.33-.19,9.81l0,.17c-5.17,24.78-2.46,49.24,3.2,78.33,1.77,7.94.26,16-1.19,23.72-.38,2-.78,4.15-1.11,6.23-.35,2.34-.48,4.92-.6,7.41l-.09,1.89V1200h-1V550.81c0-.69.06-1.31.09-1.93a73.51,73.51,0,0,1,.63-7.65c.33-2.11.73-4.24,1.11-6.29,1.48-7.89,2.88-15.34,1.2-22.87C679.4,496.47,676.45,479.18,676.45,461.22Z"/><path class="cls-2" d="M637.93,284.18c0-6.49.41-12.84.8-19s.8-12.43.8-18.75v0l0-2.15c0-2,.05-3.93.08-5.88V1.39h1V238.33c0,2-.06,3.93-.08,5.89l0,2.14v0c0,6.37-.4,12.72-.8,18.87a226.78,226.78,0,0,0-.65,25.3A261.54,261.54,0,0,0,641,317.81c1.66,15.73,3.37,32-.15,48-.13,2.42-.2,5.18-.2,8.67V630.65c0,3.28,0,6.57,0,9.85-1.08,12.59-.45,25.61.16,38.2.66,13.58,1.34,27.62-.1,41.15l0,9.79V1200h-1V729.64l0-10c1.43-13.37.76-27.35.1-40.86-.61-12.67-1.25-25.77-.16-38.41,0-3.19,0-6.48,0-9.76V374.51c0-3.58.07-6.4.21-8.89l0-.17c3.47-15.7,1.77-31.82.13-47.41a264.81,264.81,0,0,1-1.92-27.4Q637.93,287.39,637.93,284.18Z"/><path class="cls-2" d="M597.21,650a157.21,157.21,0,0,1,2.68-29.42V1.39h1V620.77l0,.11c-5.46,28.75-1.55,55.45,3.31,82.54,1.85,8.31.25,15.78-1.29,23a74.28,74.28,0,0,0-2,13V1200h-1V739.41a76,76,0,0,1,2-13.45c1.5-7,3.05-14.23,1.29-22.11C600,686,597.21,668.24,597.21,650Z"/><rect class="cls-2" x="559.92" y="1.08" width="1" height="1198.61"/><path class="cls-2" d="M516,446.46a30.94,30.94,0,0,1,1.34-8.13c.37-1.43.75-2.9,1.07-4.57a48.8,48.8,0,0,0,1.25-8.54V1.39h1V425.28a49.71,49.71,0,0,1-1.3,8.94c-.32,1.69-.71,3.2-1.09,4.66a29,29,0,0,0-1.26,7.58c0,10.7,1.7,21.62,3.35,32.18,2.71,17.32,5.51,35.22,1,52.88-.3,2.66-.42,5.26-.54,7.78l-.12,2.37v73.5c0,1.78,0,3.54,0,5.3,0,7.25,0,13.65,0,20.14V1200h-1V640.62c0-6.49,0-12.9,0-20.15V541.61c0-.85.08-1.63.11-2.42.13-2.58.25-5.24.57-8l0-.14c4.46-17.25,1.69-34.95-1-52.06C517.71,468.34,516,457.33,516,446.46Z"/><path class="cls-2" d="M475.51,593.94a67.18,67.18,0,0,1,3.88-23.33c.12-3.28.2-6.54.27-9.87V541.31c0-3.2,0-6.5.13-9.7a99.43,99.43,0,0,1,1.1-13.73c.69-5.43,1.34-10.56.95-15.77a332.36,332.36,0,0,1-2.18-75.85V1.39h1v425a330.5,330.5,0,0,0,2.17,75.51c.41,5.51-.28,11-1,16.3a97.35,97.35,0,0,0-1.08,13.47c-.13,3.21-.13,6.49-.13,9.67v19.46c-.07,3.42-.15,6.74-.28,10.1V571l-.06.15c-6.88,18.7-3,37.94.7,56.54,1.18,5.89,2.39,12,3.26,18,2.28,12.53-1,25.44-3.44,34.89l0,1.45c-.05,2.76-.09,5.52-.16,8.28V1200h-1V690.29c.07-2.77.11-5.53.15-8.29l.06-1.83c3.09-12,5.48-22.87,3.44-34.11-.87-6-2.08-12-3.25-17.89C477.8,616.92,475.51,605.45,475.51,593.94Z"/><rect class="cls-2" x="439.78" y="0.24" width="1" height="1198.61"/><path class="cls-2" d="M399.75,287.33c0-6.79,0-13.59.08-20.23,0-2.66,0-5.43,0-8.2V0h1V258.9c0,2.78,0,5.56,0,8.22-.12,14.36-.11,29.44,0,43.62v887.87h-1V310.75C399.79,303.12,399.75,295.23,399.75,287.33Z"/><path class="cls-2" d="M356.5,257.5a129.5,129.5,0,0,1,2.74-24.22,69.46,69.46,0,0,0,.82-8.9l.05-1V0h1V223.46l-.05,1a71.72,71.72,0,0,1-.85,9.19c-2.18,11.46-3.89,23.75-1.65,36.06.63,4,1.37,8.06,2.08,12,3.36,18.6,6.84,37.84.74,56.28-.26,2.73-.29,5.6-.31,8.37v.57c-2.22,18.34-.88,36.64.41,54.34,1.41,19.37,2.88,39.4-.36,59.4l0,192.67c-4.59,19.65-2.12,37.53.5,56.47.45,3.26.92,6.62,1.35,10,1.88,12.23,1.3,25.54-1.82,41.86v436.93h-1V761.47l0-.1c3.09-16.11,3.67-29.22,1.81-41.24-.43-3.4-.89-6.75-1.34-10C358,691,355.46,673,360.11,653V460.42c3.21-19.78,1.76-39.71.35-59-1.3-17.78-2.64-36.17-.41-54.7v-.38c0-2.87,0-5.83.33-8.7l.05-.22c6-18,2.7-36.11-.78-55.33-.71-3.93-1.45-8-2.08-12A70.22,70.22,0,0,1,356.5,257.5Z"/><path class="cls-2" d="M318.77,689c0-10.88.74-21.06,1.59-30.61V441.17c0-3.36.05-6.5.13-9.35.34-11.18.07-22.93-.2-34.28-.31-13.71-.64-27.89.07-41.58V0h1V356c-.71,13.66-.38,27.8-.06,41.47.26,11.38.53,23.16.2,34.4-.09,2.82-.14,5.95-.14,9.28V658.46c-1.14,12.85-2.08,26.72-1.3,41.83.34,3.84.82,7.8,1.28,11.63,1.49,12.29,3,25,.44,37.37-.27,2.16-.34,4.77-.4,7.3l0,.71v441.31h-1V756.53c.07-2.58.14-5.25.44-7.6,2.52-12.11,1-24.63-.46-36.74-.46-3.84-.94-7.82-1.29-11.75C318.86,696.53,318.77,692.71,318.77,689Z"/><path class="cls-2" d="M277,588.26a151.9,151.9,0,0,1,2.43-27.79c.11-3.12.13-6.45.14-9.67V1.39h1V550.81c0,3.27,0,6.64-.14,9.83l0,.16c-4.53,24.52-2,47.54,1.87,75.1,1.57,11,.52,21.57-.5,31.8-.41,4.14-.84,8.42-1.08,12.67l0,2.16q0,3.9-.1,7.78V1200h-1V690.29c0-2.61.07-5.19.1-7.78l0-2.22c.26-4.35.68-8.65,1.1-12.81,1.05-10.57,2-20.55.51-31.27C278.88,619,277,603.48,277,588.26Z"/><path class="cls-2" d="M234.48,288.8a55.5,55.5,0,0,1,4.84-23.06l0-1.84c0-2.16.07-4.32.12-6.46V1.39h1V257.47c-.05,2.16-.08,4.31-.11,6.46l0,2.29-.08.18c-8.25,18.31-4.12,35.14.26,53,1.42,5.79,2.89,11.78,4,17.94,1.85,10.2.89,22-3,37.18a53.48,53.48,0,0,0-.92,8.58l0,.8V511.1c0,3.08-.08,6.34-.26,10-1.06,21.75-.33,43.78.37,65.1.8,24.23,1.63,49.28-.11,74.46V1200h-1V660.54c1.74-25.14.91-50.14.11-74.31-.71-21.36-1.44-43.44-.37-65.28.17-3.59.26-6.81.26-9.85V383.8l0-.86a54.76,54.76,0,0,1,1-9c3.85-14.89,4.8-26.4,3-36.28-1.06-6.1-2.53-12.05-3.94-17.81C237,309.36,234.48,299.18,234.48,288.8Z"/><path class="cls-2" d="M196.13,468.05A90,90,0,0,1,198.18,451c.53-2.79,1.08-5.69,1.45-8.57l0-3.12q0-3.19.06-6.38V1.39h1V432.91l-.06,6.39,0,3.32c-.39,3-.94,5.91-1.48,8.76-1.18,6.23-2.39,12.68-1.91,20,.62,3.88,1.31,7.83,2,11.65,3.28,18.73,6.67,38.1,2.6,57a94.61,94.61,0,0,0-1.1,10.87V1200h-1V550.81a92.9,92.9,0,0,1,1.14-11.23c4-18.48.63-37.63-2.61-56.16-.68-3.84-1.37-7.81-2-11.73v-.1C196.16,470.39,196.13,469.21,196.13,468.05Z"/><path class="cls-2" d="M158.56,472a106.35,106.35,0,0,1,1.25-17c.09-3.1.13-6.1.15-8.9v-51.4c0-1.1,0-2.16.08-3.22.05-2.24.1-4.56.2-6.94,1.25-11.84.5-23.77-.23-35.32-.77-12.15-1.56-24.71,0-37.2V1.39h1V312.28c-1.5,12.3-.72,24.78,0,36.85.73,11.64,1.5,23.67.23,35.63-.09,2.28-.15,4.59-.2,6.83,0,1.05,0,2.11-.08,3.19v51.38c0,2.85-.05,5.88-.15,9v.14c-2.2,13.58-1,27.45.16,40.86.69,8,1.4,16.23,1.4,24.36,0,1,0,2,.08,3.12.14,3.69.29,7.86-1,11.58a60.51,60.51,0,0,0-.46,6.6l0,1.21V1200h-1V543l0-1.25a62.62,62.62,0,0,1,.49-6.95l.05-.18c1.16-3.38,1-7.37.89-10.88,0-1.12-.08-2.18-.08-3.21,0-8-.71-16.23-1.4-24.16S158.56,480.22,158.56,472Z"/><path class="cls-2" d="M116.4,742.61a73,73,0,0,1,.64-9.72c2.66-17.25,2.6-34.27,2.56-50.73,0-10.41-.06-21.16.61-31.65v-9.89c1.06-18.39.62-36.92.2-54.85-.34-14.14-.69-28.75-.28-43v-.8c0-2.92,0-5.85.08-8.76V407.53l0-.81c.14-2.74.29-5.58.68-8.24l.38-1.87c2.57-12.77,5-24.84,2.29-37.09-6.4-32.38-9.23-58.2-3.58-86.88.19-2.68.19-5.48.19-8.18V1.39h1V264.46c0,2.76,0,5.62-.19,8.41l0,.13c-5.6,28.36-2.79,54,3.55,86.07,2.82,12.68.23,25.54-2.28,38l-.37,1.81c-.36,2.5-.51,5.28-.65,8l0,.76v125.6c0,2.92,0,5.85-.07,8.77v.82c-.4,14.24-.06,28.83.28,42.93.43,18,.87,36.56-.2,55v9.9c-.67,10.48-.64,21.2-.61,31.56.05,16.55.1,33.65-2.58,51.05-1.83,13.75.73,25.22,3.43,37.37a185,185,0,0,1,3.85,21.19c.94,9.91-.55,19-2,27.84-.81,4.93-1.64,10-2,15.22,0,2.31,0,4.69,0,7.06V1200h-1V841.87q0-3.57,0-7.15c.41-5.36,1.25-10.5,2.07-15.48,1.48-9.07,2.88-17.65,2-27.26a181.45,181.45,0,0,0-3.8-20.93C118.4,761.64,116.4,752.63,116.4,742.61Z"/><path class="cls-2" d="M76.32,723.26A82.28,82.28,0,0,1,78.18,708c1-5.54,2.1-11.27,1.79-17.22V650.59l0-3.48q0-3.23,0-6.43c3.58-44.95.63-90.33-2.23-134.22-1.15-12.08-.06-23.26,1.1-35.09.3-3.09.61-6.29.88-9.47.18-3.5.2-7,.2-9.64V1.39h1V452.26c0,2.68,0,6.21-.21,9.79-.26,3.23-.58,6.44-.88,9.54-1.14,11.72-2.22,22.79-1.09,34.69,2.86,44,5.82,89.47,2.23,134.5,0,2.05,0,4.2,0,6.34l0,3.47v40.17c.32,6.16-.77,12-1.83,17.68-1.38,7.42-2.69,14.42-1.1,22.19,4.56,27.3,7.91,52,2.93,77.92V1200H80V808.34l0-.11c4.94-25.61,1.6-50.11-2.91-77.19A38,38,0,0,1,76.32,723.26Z"/><path class="cls-2" d="M38.61,733.32a102.52,102.52,0,0,1,.65-12l.1-1.3c.29-3.56.57-6.93.64-10V1.39h1V710c-.07,3.15-.35,6.55-.64,10.14l-.11,1.34C38.91,733,40,745,41,756.67c1.17,13.41,2.37,27.27.07,40.69v2.76l0,6.53V1200H40V806.65q0-3.27,0-6.54l0-3c2.28-13.16,1.08-26.91-.08-40.2C39.3,749.11,38.61,741.17,38.61,733.32Z"/><rect class="cls-2" x="0.53" y="40.65" width="799.38" height="1"/><path class="cls-2" d="M.53,81.62V80.28H680a38.21,38.21,0,0,1,8.87.89c4.08.74,7.93,1.43,12,.2,11.89-2.39,21.74-3.59,31.38-1.76a54.89,54.89,0,0,0,8.43.67h59.21v1.34H740.7a55.77,55.77,0,0,1-8.66-.69c-9.44-1.79-19.15-.6-30.83,1.74-4.36,1.31-8.56.55-12.61-.18a36.61,36.61,0,0,0-8.6-.87H.53Z"/><path class="cls-2" d="M.53,121.77v-1.34H52.72l.15.08c11.82,6.69,23.72,3.16,35.22-.26,2.69-.8,5.47-1.63,8.21-2.31A34.28,34.28,0,0,1,120,119.12a26.68,26.68,0,0,0,5.45,1.31H799.91v1.34H125.37a27,27,0,0,1-5.81-1.38l-.06,0c-6.62-3-15.16-3.43-22.85-1.12-2.74.69-5.5,1.51-8.18,2.3-11.72,3.49-23.84,7.09-36.1.24Z"/><path class="cls-2" d="M.53,161.67v-1H340.47c2.39.06,4.35.17,6,.35,6.61,1,13.52.35,20.2-.27s13.29-1.23,19.78-.34c2.11.15,4.11.19,6.05.23l1.06,0H799.91v1H393.56l-1.08,0c-2,0-4-.09-6.12-.24-6.41-.88-13.11-.26-19.58.34-6.75.63-13.72,1.28-20.43.27-1.61-.17-3.54-.29-5.89-.35Z"/><path class="cls-2" d="M.53,1162v-1H340.47c2.39.06,4.35.17,6,.35,6.61,1,13.52.35,20.2-.27s13.29-1.23,19.78-.34c2.11.15,4.11.19,6.05.23l1.06,0H799.91v1H393.56l-1.08,0c-2,0-4-.09-6.12-.25-6.41-.87-13.11-.25-19.58.35-6.75.63-13.72,1.28-20.43.27-1.61-.18-3.54-.29-5.89-.35Z"/><path class="cls-2" d="M.53,200.66v-1H77.17a47.5,47.5,0,0,1,5.42.3c13,1.79,25.29.47,38.28-.93,3.64-.39,7.4-.8,11.15-1.12a106.29,106.29,0,0,1,16.34,1.58c1.48.11,3.07.17,4.82.17h20c2.45.19,4.84.4,7.21.6,20.8,1.77,40.46,3.44,61.24-3.06,7.43-1.86,16-1.37,27.08,1.53,2.44.41,4.68.77,6.84.93h52.07c2.53.37,5.11.92,7.61,1.46,5.45,1.17,11.07,2.37,17,1.88a120,120,0,0,0,14.39-3.2c11.13-3,21.65-5.74,32.51-1.13a29.46,29.46,0,0,0,8.42,1H619.39l.08,0a26.19,26.19,0,0,0,3.33.84l1.69.37c7,2.72,13,3.17,18.29,1.41,16.3-4.45,32.2-8,47.92-2.93,3,.29,6.06.29,8.48.29H799.91v1H699.18c-2.46,0-5.52,0-8.63-.3l-.11,0c-15.47-5-31.23-1.49-47.37,2.92-5.49,1.83-11.67,1.37-18.87-1.41l-1.6-.34a28.34,28.34,0,0,1-3.38-.85H407.53a29.81,29.81,0,0,1-8.76-1c-10.59-4.49-20.94-1.74-31.9,1.16A120.36,120.36,0,0,1,352.33,204c-6.07.5-11.77-.72-17.29-1.9-2.47-.53-5-1.07-7.51-1.44h-52c-2.24-.16-4.5-.53-7-.94-10.93-2.87-19.37-3.36-26.6-1.55-20.94,6.55-40.69,4.87-61.6,3.09-2.37-.2-4.76-.41-7.16-.6h-20c-1.78,0-3.39,0-4.94-.17a105.39,105.39,0,0,0-16.17-1.58c-3.7.32-7.46.73-11.09,1.12-13.06,1.4-25.39,2.73-38.52.93a45.1,45.1,0,0,0-5.29-.3Z"/><path class="cls-2" d="M.53,241.35v-1H84.08c22,5.05,43.37,1.47,63.13-3.15,7-1.4,14.06.53,20.87,2.39l1.11.31c.81.1,1.65.17,2.47.24s1.45.12,2.18.2h20.74c14,1.44,28.59.6,42.67-.21,4.84-.28,9.84-.57,14.7-.76,5.28-.75,9.91.07,14.39.88,2.15,0,4.35.07,6.55.09h41.34c2.15,0,4.35,0,6.44.1,10.12,1,20.23.55,30,.07,7.39-.36,15-.73,22.53-.42,1.83.1,3.65.15,5.4.2l1.64.05H686.79l.11.06c2.64,1.46,5.34,1.34,8.19,1.22.77,0,1.57-.06,2.36-.06a114.18,114.18,0,0,0,14.77-1.29c7.78-1,15.83-2.07,24.19-.41a53.52,53.52,0,0,0,7.71.48h55.79v1H744.12a55,55,0,0,1-7.88-.5c-8.22-1.63-16.19-.59-23.89.42a115.57,115.57,0,0,1-14.9,1.29c-.77,0-1.56,0-2.32.07-2.83.12-5.75.24-8.6-1.28H380.25l-1.66,0c-1.76-.06-3.58-.11-5.42-.21-7.44-.3-15.06.07-22.44.43-9.82.48-20,1-30.13-.08-2-.09-4.23-.09-6.35-.09H272.89c-2.22,0-4.44,0-6.61-.1h-.08c-4.41-.79-9-1.61-14.15-.87-4.91.19-9.91.48-14.75.76-14.11.82-28.71,1.66-42.77.21H173.78c-.77-.09-1.49-.15-2.21-.21s-1.7-.14-2.54-.25l-.07,0-1.14-.31c-6.7-1.83-13.62-3.73-20.39-2.38-19.85,4.64-41.29,8.23-63.52,3.17Z"/><path class="cls-2" d="M.53,281.71v-1H307.71c2.09,0,4.35,0,6.65.17a48,48,0,0,1,7.22.73,45.63,45.63,0,0,0,6.7.69c7.6,0,15.34-.66,22.82-1.31,11.81-1,24-2.08,36-.53l.9,0c1.84,0,3.75.11,5.59.23H677.44a29.4,29.4,0,0,1,5.76,1.38c11.71,5,22.92,1.52,34.78-2.18,3.93-1.22,8-2.49,12.06-3.41,4.88-1,8.85.6,12.68,2.13A37.4,37.4,0,0,0,749,280.7h50.9v1h-51l0,0a37.9,37.9,0,0,1-6.51-2.14c-3.87-1.54-7.52-3-12.1-2.08-4,.91-8.06,2.17-12,3.39-11.52,3.59-23.42,7.3-35.43,2.16a28.85,28.85,0,0,0-5.46-1.32H393.56c-1.86-.13-3.76-.18-5.59-.24l-1,0c-11.93-1.54-24.08-.49-35.83.53-7.51.65-15.27,1.32-22.91,1.32a47.13,47.13,0,0,1-6.85-.71,46.4,46.4,0,0,0-7.1-.71c-2.31-.15-4.54-.17-6.62-.17Z"/><path class="cls-2" d="M.53,321.5v-1h142.9a15.86,15.86,0,0,0,3,.06,10.25,10.25,0,0,1,4,.32l.09,0c10.62,5.95,20.64,2.82,31.25-.48,7.17-2.24,14.57-4.55,22.32-3.95,2,.34,3.92.83,5.73,1.31a57.1,57.1,0,0,0,6.89,1.48l.09,0a26.37,26.37,0,0,0,6,1.2h224c2.17,0,4.42,0,6.64.1,23.51,3.31,43.2,5.11,65.08-4.07,5.44-2.73,12.07-.69,18.47,1.27,2.32.72,4.72,1.46,7,1.94a38.64,38.64,0,0,0,4.72.62l1.49.14h103.7l.1,0c18.3,8.37,34.33,2.35,51.31-4,7.32-2.62,14.68-.44,21.79,1.67A86.13,86.13,0,0,0,736,320.5h63.93v1H735.84a83.47,83.47,0,0,1-9.08-2.34c-7-2.06-14.15-4.19-21.15-1.69-17.14,6.44-33.34,12.52-52,4H550.1l-1.53-.14a37.59,37.59,0,0,1-4.84-.64c-2.31-.49-4.73-1.23-7.08-2-6.21-1.92-12.64-3.89-17.75-1.33-22.15,9.3-42,7.49-65.6,4.16-2.14-.1-4.38-.1-6.54-.1H222.67a27.33,27.33,0,0,1-6.17-1.23,56.77,56.77,0,0,1-7-1.5c-1.79-.47-3.64-1-5.6-1.29-7.51-.57-14.83,1.71-21.9,3.91-10.33,3.23-21,6.56-32,.43a9.82,9.82,0,0,0-3.56-.26,15.84,15.84,0,0,1-3.14-.06Z"/><path class="cls-2" d="M.53,361.51v-1H39.46A127.05,127.05,0,0,0,95.6,358c6.18-2.06,12-.54,17.65.94a63.65,63.65,0,0,0,7.26,1.6H162.7a223.34,223.34,0,0,0,25.61.05c5.05-.18,10.28-.37,15.36-.33,1.49.18,3.2.24,4.71.28H670.76c2.84,0,5.89,0,9.09.09a93.44,93.44,0,0,0,14.89-.25c5.82-.41,11.85-.84,17.66.16h87.51v1H712.28c-5.71-1-11.42-.58-17.47-.15a93.86,93.86,0,0,1-15,.26c-3.16-.09-6.19-.1-9-.1H208.36c-1.54,0-3.28-.09-4.75-.28-5,0-10.22.16-15.26.34a224.56,224.56,0,0,1-25.68-.06H120.41a65.5,65.5,0,0,1-7.42-1.63c-5.49-1.44-11.18-2.92-17.1-.95a127.87,127.87,0,0,1-56.55,2.58Z"/><path class="cls-2" d="M.49,530c7.46-.59,38.72-1.22,98.36-2,1.65,0,3.35,0,5.09,0,29.4.41,59.37-.39,88.35-1.16,31.76-.84,64.59-1.71,97-1,2,0,4,0,6,0,103.43-1.12,174.76-2.06,186.7-3l12.49-1c3.46-.27,24-.56,56.44-.8,1.52,0,3.24,0,4.88,0a136.84,136.84,0,0,0,15.23.57c9.16.68,18.27-.08,27.09-.81,10-.84,20.43-1.7,30.75-.41,2.22.18,4.34.25,6.29.28l12.14,0h6.07c23.78,1.86,44.23,1.47,64.39-1.22,5.76-1.15,11-.5,16.61.2,1.48.18,3,.37,4.56.53l.9.1a31.14,31.14,0,0,1,3.87.59c34,.25,53,.68,56.33,1.28l-.18,1c-3.24-.58-22.68-1-56.22-1.26l-.11,0a27.49,27.49,0,0,0-3.8-.58l-.9-.1c-1.55-.16-3.09-.35-4.57-.54-5.5-.68-10.7-1.32-16.33-.2-20.26,2.71-40.78,3.1-64.59,1.23h-6l-12.15,0c-2,0-4.12-.1-6.38-.29-10.24-1.28-20.57-.42-30.57.41-8.85.74-18,1.5-27.21.81a135.23,135.23,0,0,1-15.26-.56c-1.57,0-3.29,0-4.8,0-32.39.23-52.93.52-56.37.8l-12.49,1c-12,.94-83.32,1.88-186.77,3-1.94,0-3.95,0-6,0-32.37-.7-65.2.17-96.94,1-29,.77-59,1.56-88.4,1.15-1.73-.06-3.42,0-5.06,0C39.24,529.81,8,530.44.57,531Z"/><path class="cls-2" d="M0,564c.07-.57.07-.57,8.89-.66,5.14,0,12.72-.09,22.55-.12,17,0,41.27,0,72,0,54.81.07,116.75.25,143.2.33l9.21,0c2.6,0,4.08,0,4.43.06,9,1.29,17.94,1,26.63.72a188,188,0,0,1,22.49.18,62.73,62.73,0,0,1,8,.73,61.53,61.53,0,0,0,7.93.73h.07c7.85,1.13,15.68-.31,23.25-1.7,7.07-1.3,14.39-2.64,21.78-1.94,2.54.42,5.1,1.09,7.56,1.74,1.88.49,3.82,1,5.77,1.41a54.87,54.87,0,0,0,7.38,1.17,159.76,159.76,0,0,0,21.35-.68c23.4-2.39,47.19-1.63,70.19-.9,12,.39,24.5.79,36.75.73l5.38,0,5.27,0a22.28,22.28,0,0,1,5.87.93l.86.24c7.24,2,14.07,3.91,20.92,1.85,21-6.55,41.71-4.84,61.79-3.19,2.36.19,4.71.39,7.07.57h5.12c79.82.25,139.54.22,168.16-.07v1c-28.62.29-88.35.31-168.17.07l-5.16,0c-2.4-.18-4.75-.38-7.11-.57-20.9-1.72-40.65-3.35-61.41,3.15-7.14,2.14-14.11.21-21.49-1.84l-.86-.24a22,22,0,0,0-5.6-.9l-5.28,0-5.37,0c-12.27.06-24.73-.34-36.78-.72-23-.74-46.73-1.49-70.06.89a162.16,162.16,0,0,1-21.52.68,55.93,55.93,0,0,1-7.52-1.19c-2-.41-3.92-.92-5.81-1.42-2.56-.67-5-1.3-7.44-1.71-7.22-.69-14.46.64-21.47,1.93-7.64,1.4-15.53,2.85-23.53,1.71a62.23,62.23,0,0,1-8-.73,63.13,63.13,0,0,0-7.93-.72,188.66,188.66,0,0,0-22.4-.19c-8.74.28-17.77.57-26.76-.72-.3,0-1.76,0-4.34-.06l-9.21,0c-200.48-.6-244.44-.34-246,0l-.11-.48-.13.51Z"/><path class="cls-2" d="M0,609.58c.14-.59.18-.79,33.69-1.29,2.6,0,5.29-.08,8.3.14,23.58,2.73,48.44-.38,70.37-3.12a165.42,165.42,0,0,1,34,1.59c1.71,0,3.73,0,5.75.07l11.09-.11h.05c2.44.49,4.92,1.12,7.31,1.74,7.68,2,15.62,4,23.81,1.8l2-.46c24.76-5.67,48.15-11,72.15-4.76l1.28,0c2.1.08,4.26.16,6.4.31,8.12-.16,16.43-.41,24.47-.65,24.83-.73,50.49-1.49,75.44.12,1.54,0,3.08,0,4.59.06H431a210.49,210.49,0,0,1,23,1c9.22.73,18.75,1.49,28.34.69,4.55-.38,9.19-1,13.67-1.54,12.75-1.62,25.92-3.29,39.19-.49l.75,0c1.56.07,3.17.14,4.74.31H542c111.91,0,217.62,0,257.94,0v1c-40.32,0-146,0-257.94,0h-1.38c-1.59-.17-3.18-.24-4.72-.31l-.88,0c-13.11-2.78-26.22-1.11-38.89.5-4.5.57-9.14,1.16-13.72,1.54-9.66.81-19.24,0-28.5-.69a211.51,211.51,0,0,0-22.89-1H380.77c-1.52,0-3.06-.05-4.57-.07h-.07c-24.9-1.61-50.55-.85-75.35-.11-8,.23-16.36.48-24.53.64-2.16-.15-4.32-.23-6.4-.31l-1.45-.07c-23.78-6.23-47.07-.89-71.73,4.76l-2,.46c-8.44,2.25-16.51.19-24.31-1.81-2.36-.6-4.8-1.23-7.2-1.72l-11,.12c-2-.05-4-.07-5.82-.08a164.74,164.74,0,0,0-33.86-1.59c-22,2.75-46.89,5.86-70.57,3.12-2.93-.21-5.61-.17-8.19-.13-21,.31-32.14.59-33,.84a.48.48,0,0,0,.3-.4l-.47,0-.23.47Z"/><path class="cls-2" d="M.52,645.75l0-1c11.19.29,34.91.62,72.53,1l8.27.08a114.06,114.06,0,0,1,12.23,1.34l2.19.32c7.58,0,15.18-.58,22.54-1.14,13-1,26.48-2,40,.17l5.33,0,86.47.68.88.08a19.16,19.16,0,0,1,4.58.77,31.34,31.34,0,0,0,16.65,2.31l1.9-.48c13.6-3.42,26.44-6.65,40.74-3.12a41.24,41.24,0,0,0,6.67,1l30.52.22a20.57,20.57,0,0,1,5.75.75l.09,0c9.4,5.23,18.8,2.46,28.75-.48a97.11,97.11,0,0,1,12-3c9.51-.79,17.94,1,25.63,3.09l1.29,0,4.75.12,105.77.77,4.58,0c4.17-.56,8.27.2,12.23.93,4.17.77,8.48,1.57,12.89.83,13.07-2.07,27.17-3.72,41.71-1.82,1.3.21,2.55.35,3.75.48l1.05.12c51.53.41,91.2.76,121.24,1.08l12.44.1c6.91,0,13.43.08,20.25.26l5.67.09c12.81.17,22.22.34,28,.49l0,1c-5.76-.16-15.17-.32-28-.5l-5.67-.09c-6.81-.18-13.33-.21-20.24-.25l-5.23,0-7.22-.08c-30-.31-69.7-.67-121.28-1.08l-1.1-.12c-1.21-.14-2.47-.28-3.78-.49-14.4-1.87-28.42-.23-41.41,1.82-4.58.77-9,0-13.23-.83-4.08-.76-7.93-1.47-12-.92h-.07l-4.62,0c-34.19-.26-69.83-.52-105.78-.77l-4.75-.12-1.47-.05c-7.62-2.06-16-3.86-25.31-3.08a95.9,95.9,0,0,0-11.85,3c-9.7,2.86-19.73,5.82-29.48.41a19.13,19.13,0,0,0-5.41-.69l-30.54-.22a40.92,40.92,0,0,1-6.86-1c-14.06-3.46-26.79-.26-40.27,3.13l-2,.49a32.34,32.34,0,0,1-17.2-2.37,19,19,0,0,0-4.3-.7l-.84-.08c-30.35-.23-59.45-.45-86.43-.67l-5.44-.05c-13.46-2.16-26.87-1.15-39.85-.17-7.38.56-15,1.14-22.65,1.14h-.07l-2.23-.33a115.67,115.67,0,0,0-12.1-1.33l-8.26-.08C35.45,646.38,11.72,646.05.52,645.75Z"/><path class="cls-2" d="M.53,677c18-.25,66.31,0,143.54.87l5.47.06a34.3,34.3,0,0,1,5.63.86c2.73.58,5.56,1.17,8.06.75h.09a74.58,74.58,0,0,0,11.29-1.15c4.57-.71,9.29-1.44,14.18-1l2.85.1c18.08.7,35.16,1.36,53.36,1.6l2.3.08,3.56.13.17,0c12.08,4.9,23.78,2.57,36.17.11a123.13,123.13,0,0,1,19.22-2.79,13.3,13.3,0,0,1,10.33,2,18.44,18.44,0,0,0,5.16,1.38l30.39.41a28.94,28.94,0,0,1,6.58.87l.09,0c10.74,5.16,21.3,2.41,32.49-.51,6.63-1.72,13.48-3.51,20.39-3.51,2.73,0,5.1,1.06,7.61,2.18a31.07,31.07,0,0,0,4.91,1.86l1.83,0,4,.12c24.77.35,49.41.71,73.52,1.07,3.08,0,6.09.18,9,.41,2.51.25,5,.5,7.43.72l.09,0c1.88.55,4,1,6.11,1.53l3.3.77a187.73,187.73,0,0,0,21-1.57c9.28-1.06,18.87-2.14,28.65-1.27,2.28-.16,4.69-.36,7.38-.62,4.74-.46,9.73-1,14.83-1.62,4.48-.65,8.33.88,12.4,2.49l1.92.75c2.67.11,5.31.18,7.85.22,21.18.33,41.19.66,59.66,1,2.94.05,6,.1,8.86.24l2.94.3c24.85,2.54,48.33,4.93,72.71-2,8.86-2.22,17.78,0,26.1,2.77a19.44,19.44,0,0,0,6,.86v.5l0,.5a20,20,0,0,1-6.29-.9c-8.18-2.71-16.93-4.91-25.53-2.76-24.55,7-48.12,4.62-73.07,2.07l-2.91-.3c-2.85-.14-5.87-.19-8.8-.23-18.48-.31-38.49-.63-59.66-1-2.58-.05-5.25-.12-8-.23l-.16,0-2-.79c-3.94-1.56-7.67-3-11.9-2.43-5.11.63-10.11,1.17-14.87,1.63-2.71.26-5.14.47-7.44.63h-.08c-9.69-.87-19.25.21-28.49,1.25a187.86,187.86,0,0,1-21.13,1.59l-.13,0c-1-.26-2.17-.52-3.33-.78-2.08-.48-4.23-1-6.12-1.53l-7.38-.72c-2.83-.22-5.82-.36-8.87-.41l-73.53-1.07-4-.11-2-.07a32.21,32.21,0,0,1-5.12-1.93c-2.41-1.08-4.69-2.09-7.2-2.09-6.78,0-13.57,1.77-20.14,3.48-10.85,2.82-22.08,5.74-33.13.46a27.8,27.8,0,0,0-6.3-.83L321.86,681a19.3,19.3,0,0,1-5.54-1.47l-.1-.06a12.38,12.38,0,0,0-9.64-1.91h-.08a123.31,123.31,0,0,0-19.1,2.77c-12,2.38-24.33,4.85-36.67-.13l-3.46-.13L245,680c-18.2-.23-35.28-.89-53.37-1.59l-2.87-.11c-4.79-.4-9.46.32-14,1a74.24,74.24,0,0,1-11.4,1.16c-2.68.44-5.59-.17-8.4-.76a33.31,33.31,0,0,0-5.44-.85l-5.46,0C66.84,678,18.56,677.72.54,678Z"/><path class="cls-2" d="M.53,390.87v-1c106,.92,704.77,10,799.4,16.39l-.06,1C705.26,400.88,106.56,391.79.53,390.87Z"/><path class="cls-2" d="M.53,443.74v-1c36.68.09,163.16-.95,282-2h.18c1.91,0,3.81,0,6,0a94.54,94.54,0,0,0,11.16-.12l5.86-.05c2.14,0,4.3,0,6.66,0a91,91,0,0,1,12.73-.13L372.5,440l4,0a63.9,63.9,0,0,0,12.47-.2,61.52,61.52,0,0,1,11.48-.25c2.2-.09,4.12-.12,5.86-.12,2.11,0,4,.09,5.81.23l5.86-.05c157.86-1.39,336.78-3,382-2.86v1c-45.24-.11-224.16,1.47-382,2.86l-5.9.05c-1.82-.15-3.69-.22-5.77-.23-1.74,0-3.66,0-5.86.11h-.07a60.84,60.84,0,0,0-11.33.25,63.78,63.78,0,0,1-12.61.2l-3.94,0h-1.74l-45.65.4a93.19,93.19,0,0,0-12.66.13l-6.69,0-5.83.05a93.41,93.41,0,0,1-11.23.13c-2.14,0-4,0-5.94,0h-.19C163.69,442.79,37.21,443.83.53,443.74Z"/><path class="cls-2" d="M.5,718.27v-1c9,0,25.85,0,51.52.15l8.4,0a37.68,37.68,0,0,1,4.36,1c2.74.74,5.58,1.52,8.34,1.06h.08c2.61-.18,5.31-.36,7.91-.44,8.21.12,16.59-.26,24.7-.62,20.7-.93,42.1-1.9,62,5.46a27.21,27.21,0,0,0,7.34,1c9.62,0,18.7-4.93,27.48-9.7,2.28-1.24,4.64-2.52,6.93-3.67s5.06-1,7.48-.87c.77,0,1.5.09,2.19.09,41.79,4.77,86.89,7.71,137.92,9l8.61.2A47.13,47.13,0,0,1,377,721.16c4.88.91,9.48,1.78,14.36.56,12.36-3.87,24.5-2.76,34.74-1.15h8.57c20.71,0,41.06-.22,56.47-.38l8.06-.09c4.87-.24,9.85.67,14.66,1.56,6.54,1.2,13.31,2.45,19.93.79,2.39-.55,4.75-1.12,7-1.68,15.91-3.89,30.94-7.56,46.73-.82,2.36,0,4.85,0,7.41,0,9,0,18.22-.32,27.13-.61,18.33-.6,37.29-1.22,55.75.51l3.07.18,1.58.1c1.64.06,3.1.13,4.45.23,12.32,2.08,24.44,1.1,36.16.15a208.52,208.52,0,0,1,24.48-1,231.59,231.59,0,0,0,24.45,1.3c2.4,0,4.77,0,7,.06,9,0,16.07,0,20.87,0v1c-4.8,0-11.86,0-20.87,0-2.21,0-4.59,0-7-.06a227.23,227.23,0,0,1-24.52-1.3,210.9,210.9,0,0,0-24.33,1c-11.78,1-24,1.94-36.36-.15-1.29-.09-2.73-.17-4.38-.23l-1.59-.09-3.09-.19c-18.41-1.73-37.34-1.11-55.64-.51-8.91.29-18.13.59-27.16.62-2.6,0-5.13,0-7.52,0h-.1l-.09,0c-15.52-6.66-30.42-3-46.19.83-2.29.56-4.66,1.14-7,1.69-6.82,1.71-13.7.44-20.35-.78-4.76-.88-9.68-1.78-14.45-1.55l-8.08.09c-15.42.16-35.77.35-56.48.39H426c-10.14-1.59-22.14-2.71-34.35,1.11-5.12,1.29-10,.36-14.81-.54a47.24,47.24,0,0,0-11-1.17l-8.66-.19c-51.06-1.28-96.18-4.22-137.94-9-.67,0-1.41,0-2.2-.08-2.4-.14-4.89-.28-7,.76-2.28,1.14-4.52,2.36-6.9,3.65-8.89,4.84-18.09,9.84-28,9.82a27.77,27.77,0,0,1-7.65-1.07c-19.78-7.29-41.09-6.34-61.69-5.41-8.12.37-16.51.75-24.73.62-2.56.08-5.25.26-7.85.44-3,.49-5.91-.31-8.75-1.09a40.21,40.21,0,0,0-4.21-1l-8.3,0C26.35,718.32,9.5,718.27.5,718.27Z"/><path class="cls-2" d="M.52,760.45l0-1c10.28.26,32.07.56,64.75.89,2.38.06,5.07.38,7.92.71l.42.05c1.78.22,3.6.35,5.56.41,1.72,0,3.52,0,5.51,0a211.45,211.45,0,0,1,23.66.53c15.69,1,30.5,1.84,45.32-3.9,6.4-2.14,12.25-.5,18.45,1.23,2.37.66,4.82,1.34,7.29,1.8,2.91.12,5.52.2,8,.22,13.91.16,26.6.27,38.81.34a20.06,20.06,0,0,1,6.39.78c7,2.83,14.23,5.75,21.32,2.2a79.78,79.78,0,0,1,51.31-2.53l7.95.05,40.5.24c2.69,0,5.49.13,8.35.33l.16,0c18,7.84,34.91,1.94,52.77-4.3l3.26-1.13c4.67-1.56,8.61.76,12.42,3a34.68,34.68,0,0,0,5.21,2.67l14.86.06c2.48,0,5.44,0,8.59.15,7,0,14.12.37,21,.75,15.54.86,31.61,1.74,47.7-2.28,11-2.36,21.64-.48,29.69,1.44,2.2.15,4.41.23,6.55.31l32,.13c1.9,0,3.8,0,5.76,0a157.9,157.9,0,0,1,19.74,1c8,.74,16.37,1.51,24.78.7,3.49-.39,7.07-1,10.52-1.59,9.48-1.62,19.29-3.3,29.13-.71a68,68,0,0,0,8.71.85c55.49.11,90.83.07,105-.13l0,1c-14.19.21-49.53.25-105,.14A69.67,69.67,0,0,1,686,764c-9.67-2.54-19.37-.88-28.75.72-3.47.6-7.06,1.21-10.59,1.6-8.51.81-16.88,0-25-.7a158.41,158.41,0,0,0-19.64-1c-2,0-3.88,0-5.78,0l-32-.12c-2.18-.08-4.41-.17-6.64-.32l-.09,0c-7.94-1.89-18.45-3.76-29.26-1.44-16.22,4.06-32.37,3.16-48,2.3-6.85-.38-13.93-.77-20.95-.74-3.16-.12-6.1-.14-8.57-.15L435.6,764a32.64,32.64,0,0,1-5.46-2.78c-3.78-2.22-7.35-4.33-11.59-2.91l-3.25,1.13c-18,6.3-35.06,12.25-53.42,4.31-2.8-.2-5.56-.31-8.2-.33-13.59-.07-27.11-.15-40.49-.24l-8.15-.06a78.71,78.71,0,0,0-50.7,2.45c-7.46,3.74-14.89.73-22.08-2.17a19.11,19.11,0,0,0-6-.71c-12.21-.08-24.9-.19-38.81-.34-2.48,0-5.11-.1-8-.23h-.07c-2.53-.46-5-1.15-7.42-1.82-6-1.69-11.76-3.29-17.84-1.25-15,5.81-30.62,4.87-45.72,4a209.64,209.64,0,0,0-23.55-.54c-2,.07-3.85.07-5.59,0-2-.06-3.84-.19-5.64-.41L73.1,762c-2.82-.33-5.49-.65-7.81-.7C32.6,761,10.81,760.71.52,760.45Z"/><path class="cls-2" d="M.37,482.92l.25-1c13.21,3.39,50.94,5.52,112.15,6.33,1.5,0,3,.06,4.44.12,11.87.62,23.64.37,35,.13,11.2-.24,22.79-.48,34.36.11h5.31c151.43-.38,360.45-5.67,500.42-10.74l8.65-.32c2.61-.15,5.45-.23,8.2-.31s5.53-.15,8.22-.31l7.84-.3c38.64-1.53,65.14-2.86,74.62-3.74l.1,1c-9.5.88-36,2.2-74.68,3.73l-7.83.31c-2.7.15-5.52.23-8.24.31-2.87.08-5.58.15-8.18.31l-8.66.32c-140,5.07-349,10.35-500.46,10.73h-5.33c-11.56-.59-23.13-.34-34.32-.11-11.41.25-23.2.5-35.1-.13-1.43,0-2.91-.09-4.4-.11C51.47,488.48,13.66,486.34.37,482.92Z"/><path class="cls-2" d="M.49,891.82c7.46-.59,38.72-1.22,98.36-2,1.65,0,3.35,0,5.09,0,29.4.41,59.37-.39,88.35-1.16,31.76-.84,64.59-1.72,97-1,2,0,4,0,6,0,103.43-1.12,174.76-2.06,186.7-3l12.49-1c3.46-.27,24-.56,56.44-.8,1.52,0,3.24,0,4.88,0a136.84,136.84,0,0,0,15.23.57c9.16.68,18.27-.08,27.09-.81,10-.84,20.43-1.7,30.75-.41,2.22.18,4.34.24,6.29.28l12.14,0h6.07c23.78,1.87,44.23,1.48,64.39-1.21,5.76-1.15,11-.5,16.61.2,1.48.18,3,.37,4.56.53l.9.1a29.38,29.38,0,0,1,3.87.59c34,.25,53,.68,56.33,1.28l-.18,1c-3.24-.58-22.68-1-56.22-1.26l-.11,0a29.06,29.06,0,0,0-3.8-.59l-.9-.1c-1.55-.15-3.09-.34-4.57-.53-5.5-.68-10.7-1.33-16.33-.2-20.26,2.71-40.78,3.1-64.59,1.23h-6l-12.15,0c-2,0-4.12-.1-6.38-.29-10.24-1.28-20.57-.42-30.57.41-8.85.73-18,1.49-27.21.81a137.65,137.65,0,0,1-15.26-.57c-1.57,0-3.29,0-4.8,0-32.39.23-52.93.52-56.37.79l-12.49,1c-12,1-83.32,1.89-186.77,3-1.94,0-3.95,0-6,0-32.37-.69-65.2.18-96.94,1-29,.78-59,1.57-88.4,1.16-1.73-.06-3.42,0-5.06,0-59.62.77-90.85,1.4-98.29,2Z"/><path class="cls-2" d="M0,925.83c.07-.57.07-.57,8.89-.66,5.14-.06,12.72-.1,22.55-.12,17,0,41.27,0,72,0,54.81.07,116.75.25,143.2.33l9.21,0c2.6,0,4.08.05,4.43.06,9,1.29,17.94,1,26.63.72a188,188,0,0,1,22.49.18,62.73,62.73,0,0,1,8,.73,61.53,61.53,0,0,0,7.93.73h.07c7.85,1.12,15.68-.31,23.25-1.7,7.07-1.3,14.39-2.64,21.78-1.94,2.54.42,5.1,1.09,7.56,1.74,1.88.49,3.82,1,5.77,1.41a53.37,53.37,0,0,0,7.38,1.16,158.13,158.13,0,0,0,21.35-.67c23.4-2.39,47.19-1.63,70.19-.9,12,.39,24.5.78,36.75.73l5.38.05,5.27,0a22.76,22.76,0,0,1,5.87.94l.86.24c7.24,2,14.07,3.9,20.92,1.85,21-6.56,41.71-4.85,61.79-3.19l7.07.57h5.12c79.82.25,139.54.22,168.16-.07v1c-28.62.29-88.35.31-168.17.06h-5.16c-2.4-.18-4.75-.38-7.11-.57-20.9-1.72-40.65-3.35-61.41,3.15-7.14,2.14-14.11.21-21.49-1.84l-.86-.24a21.61,21.61,0,0,0-5.6-.9l-5.28,0-5.37-.05c-12.27.06-24.73-.34-36.78-.72-23-.74-46.73-1.5-70.06.89a162.16,162.16,0,0,1-21.52.68,55.93,55.93,0,0,1-7.52-1.19c-2-.41-3.92-.93-5.81-1.42-2.56-.67-5-1.3-7.44-1.71-7.22-.69-14.46.64-21.47,1.92-7.64,1.41-15.53,2.86-23.53,1.72a62.23,62.23,0,0,1-8-.73,61.31,61.31,0,0,0-7.93-.72,188.66,188.66,0,0,0-22.4-.19c-8.74.28-17.77.57-26.76-.72-.3,0-1.76-.05-4.34-.06l-9.21,0c-200.48-.59-244.44-.33-246,0l-.11-.47-.13.51Z"/><path class="cls-2" d="M0,971.38c.14-.59.18-.79,33.69-1.29,2.6,0,5.29-.08,8.3.14,23.58,2.73,48.44-.38,70.37-3.13a165.46,165.46,0,0,1,34,1.6c1.71,0,3.73,0,5.75.07l11.09-.11h.05c2.44.49,4.92,1.12,7.31,1.73,7.68,2,15.62,4,23.81,1.81l2-.46c24.76-5.68,48.15-11,72.15-4.76l1.28,0c2.1.08,4.26.16,6.4.31,8.12-.16,16.43-.41,24.47-.65,24.83-.73,50.49-1.5,75.44.12,1.54,0,3.08,0,4.59.06H431a210.49,210.49,0,0,1,23,1c9.22.73,18.75,1.49,28.34.69,4.55-.38,9.19-1,13.67-1.54,12.75-1.62,25.92-3.3,39.19-.49l.75,0c1.56.07,3.17.15,4.74.31H799.91v1c-40.32,0-146,0-257.94,0h-1.38c-1.59-.17-3.18-.24-4.72-.31l-.88-.05c-13.11-2.78-26.22-1.12-38.89.5-4.5.57-9.14,1.16-13.72,1.54-9.66.81-19.24,0-28.5-.69a211.51,211.51,0,0,0-22.89-1H380.77c-1.52,0-3.06,0-4.57-.06h-.07c-24.9-1.61-50.55-.85-75.35-.12-8,.24-16.36.49-24.53.65-2.16-.15-4.32-.23-6.4-.31L268.4,968c-23.78-6.23-47.07-.89-71.73,4.76l-2,.46c-8.44,2.25-16.51.18-24.31-1.81-2.36-.61-4.8-1.23-7.2-1.72l-11,.11c-2,0-4-.06-5.82-.07a165.49,165.49,0,0,0-33.86-1.6c-22,2.75-46.89,5.87-70.57,3.13-2.93-.21-5.61-.17-8.19-.13-21,.31-32.14.59-33,.84a.48.48,0,0,0,.3-.4l-.47,0L.31,972Z"/><path class="cls-2" d="M.52,1007.55l0-1c11.19.29,34.91.62,72.53,1l8.27.09A114.06,114.06,0,0,1,93.58,1009l2.19.32c7.58,0,15.18-.58,22.54-1.14,13-1,26.48-2,40,.17l5.33,0,86.47.68.88.08a19.15,19.15,0,0,1,4.58.76,31.25,31.25,0,0,0,16.65,2.32l1.9-.48c13.6-3.42,26.44-6.65,40.74-3.13a40.12,40.12,0,0,0,6.67,1l30.52.22a20.57,20.57,0,0,1,5.75.75l.09,0c9.4,5.24,18.8,2.47,28.75-.47a95.35,95.35,0,0,1,12-3c9.51-.8,17.94,1,25.63,3.09l1.29,0,4.75.12,105.77.77c1.54,0,3.08,0,4.58,0,4.17-.56,8.27.19,12.23.93,4.17.77,8.48,1.56,12.89.83,13.07-2.07,27.17-3.72,41.71-1.82,1.3.2,2.55.35,3.75.48l1.05.12c51.53.41,91.2.76,121.24,1.08l12.44.1c6.91,0,13.43.08,20.25.26l5.67.09c12.81.17,22.22.34,28,.49l0,1c-5.76-.15-15.17-.31-28-.49l-5.67-.09c-6.81-.18-13.33-.21-20.24-.25l-5.23,0-7.22-.08c-30-.32-69.7-.67-121.28-1.08l-1.1-.12c-1.21-.14-2.47-.28-3.78-.49-14.4-1.87-28.42-.23-41.41,1.82-4.58.76-9,0-13.23-.83-4.08-.76-7.93-1.47-12-.92h-.07l-4.62,0-105.78-.78-4.75-.11-1.47,0c-7.62-2.06-16-3.86-25.31-3.08a95.9,95.9,0,0,0-11.85,3c-9.7,2.86-19.73,5.81-29.48.4a19.52,19.52,0,0,0-5.41-.68l-30.54-.22a40.92,40.92,0,0,1-6.86-1c-14.06-3.46-26.79-.26-40.27,3.12l-2,.5a32.34,32.34,0,0,1-17.2-2.37,18.5,18.5,0,0,0-4.3-.7l-.84-.08c-30.35-.23-59.45-.45-86.43-.67l-5.44,0c-13.46-2.17-26.87-1.15-39.85-.17-7.38.56-15,1.14-22.65,1.14h-.07l-2.23-.33a115.67,115.67,0,0,0-12.1-1.33l-8.26-.08C35.45,1008.17,11.72,1007.84.52,1007.55Z"/><path class="cls-2" d="M.53,1038.77c18-.25,66.31,0,143.54.87l5.47.06a34.3,34.3,0,0,1,5.63.86c2.73.58,5.56,1.17,8.06.75h.09a73.32,73.32,0,0,0,11.29-1.16c4.57-.7,9.29-1.43,14.18-1l2.85.11c18.08.7,35.16,1.36,53.36,1.6l2.3.08,3.56.13.17,0c12.08,4.9,23.78,2.57,36.17.11a123.13,123.13,0,0,1,19.22-2.79,13.3,13.3,0,0,1,10.33,2,18.44,18.44,0,0,0,5.16,1.38l30.39.41a28.94,28.94,0,0,1,6.58.87l.09,0c10.74,5.16,21.3,2.4,32.49-.51,6.63-1.72,13.48-3.51,20.39-3.51,2.73,0,5.1,1.06,7.61,2.18a31.07,31.07,0,0,0,4.91,1.86l1.83,0c1.35,0,2.7.07,4,.12,24.77.35,49.41.71,73.52,1.07,3.08,0,6.09.18,9,.41l7.43.72.09,0c1.88.55,4,1,6.11,1.53l3.3.77a185.37,185.37,0,0,0,21-1.58c9.28-1,18.87-2.13,28.65-1.26,2.28-.16,4.69-.36,7.38-.62,4.74-.46,9.73-1,14.83-1.63,4.48-.64,8.33.89,12.4,2.5l1.92.75c2.67.1,5.31.18,7.85.22,21.18.33,41.19.66,59.66,1,2.94,0,6,.1,8.86.24l2.94.3c24.85,2.54,48.33,4.93,72.71-2,8.86-2.22,17.78,0,26.1,2.77a19.1,19.1,0,0,0,6,.85v.51l0,.5a20.3,20.3,0,0,1-6.29-.9c-8.18-2.71-16.93-4.91-25.53-2.76-24.55,7-48.12,4.62-73.07,2.07l-2.91-.3c-2.85-.14-5.87-.19-8.8-.24l-59.66-1c-2.58,0-5.25-.11-8-.22l-.16,0-2-.79c-3.94-1.56-7.67-3-11.9-2.43-5.11.62-10.11,1.17-14.87,1.63-2.71.26-5.14.46-7.44.63h-.08c-9.69-.87-19.25.22-28.49,1.26a187.86,187.86,0,0,1-21.13,1.59l-.13,0c-1-.26-2.17-.52-3.33-.78-2.08-.48-4.23-1-6.12-1.53l-7.38-.72c-2.83-.23-5.82-.36-8.87-.41-24.12-.36-48.75-.72-73.53-1.07l-4-.11-2-.07a32.21,32.21,0,0,1-5.12-1.93c-2.41-1.08-4.69-2.09-7.2-2.09-6.78,0-13.57,1.77-20.14,3.47-10.85,2.83-22.08,5.75-33.13.47a27.8,27.8,0,0,0-6.3-.83l-30.42-.41a19.63,19.63,0,0,1-5.54-1.47l-.1-.06a12.34,12.34,0,0,0-9.64-1.91h-.08a123.31,123.31,0,0,0-19.1,2.77c-12,2.38-24.33,4.85-36.67-.13l-3.46-.13-2.3-.08c-18.2-.24-35.28-.89-53.37-1.59l-2.87-.11c-4.79-.4-9.46.32-14,1a74.24,74.24,0,0,1-11.4,1.16c-2.68.44-5.59-.17-8.4-.76a32.26,32.26,0,0,0-5.44-.85l-5.46-.06c-77.22-.83-125.5-1.12-143.52-.86Z"/><path class="cls-2" d="M.53,805.54v-1c36.67.08,163.11-1,282-2h.18l6,0a94.34,94.34,0,0,0,11.15-.12l5.86-.06c2.14,0,4.31,0,6.66,0a91,91,0,0,1,12.73-.13l47.34-.41,4,0a63.78,63.78,0,0,0,12.46-.21,62.37,62.37,0,0,1,11.48-.24c2.2-.09,4.12-.13,5.86-.12,2.11,0,4,.09,5.81.23l5.85,0c157.82-1.39,336.69-3,381.92-2.86v1c-45.22-.11-224.09,1.47-381.91,2.85l-5.9.06c-1.82-.15-3.69-.22-5.77-.23-1.74,0-3.65,0-5.86.11h-.07a60,60,0,0,0-11.33.25,65.22,65.22,0,0,1-12.6.2l-3.94,0h-1.74l-45.64.4a91.59,91.59,0,0,0-12.66.13c-2.39,0-4.55,0-6.69,0l-5.82,0a95.53,95.53,0,0,1-11.23.13c-2.13,0-4,0-5.94,0h-.18C163.65,804.59,37.2,805.63.53,805.54Z"/><path class="cls-2" d="M.5,1080.07v-1c9,0,25.85,0,51.52.15l8.4,0a39.8,39.8,0,0,1,4.36,1c2.74.75,5.58,1.53,8.34,1.06h.08c2.61-.18,5.31-.37,7.91-.44,8.21.12,16.59-.26,24.7-.62,20.7-.94,42.1-1.9,62,5.45a27.22,27.22,0,0,0,7.34,1c9.62,0,18.7-4.93,27.48-9.7,2.28-1.24,4.64-2.53,6.93-3.67s5.06-1,7.48-.87c.77,0,1.5.09,2.19.09,41.79,4.77,86.89,7.71,137.92,9l8.61.2A47.65,47.65,0,0,1,377,1083c4.88.92,9.48,1.79,14.36.56,12.36-3.86,24.5-2.75,34.74-1.14h8.57c20.71,0,41.06-.22,56.47-.39l8.06-.08c4.87-.24,9.85.67,14.66,1.56,6.54,1.2,13.31,2.45,19.93.79,2.39-.55,4.75-1.13,7-1.68,15.91-3.89,30.94-7.56,46.73-.82,2.36,0,4.85,0,7.41,0,9,0,18.22-.33,27.13-.62,18.33-.6,37.29-1.21,55.75.51,1,.08,2.06.13,3.07.19l1.58.09c1.64.07,3.1.14,4.45.24,12.32,2.08,24.44,1.1,36.16.15a208.52,208.52,0,0,1,24.48-1,228.88,228.88,0,0,0,24.45,1.29c2.4.05,4.77.06,7,.07l20.87,0v1c-4.8,0-11.86,0-20.87,0-2.21,0-4.59,0-7-.06a229.82,229.82,0,0,1-24.52-1.3,208.68,208.68,0,0,0-24.33,1c-11.78,1-24,1.94-36.36-.16-1.29-.08-2.73-.16-4.38-.22l-1.59-.1c-1,0-2-.11-3.09-.19-18.41-1.72-37.34-1.1-55.64-.5-8.91.29-18.13.59-27.16.62-2.6,0-5.13,0-7.52,0h-.1l-.09,0c-15.52-6.66-30.42-3-46.19.83-2.29.56-4.66,1.14-7,1.69-6.82,1.71-13.7.44-20.35-.78-4.76-.88-9.68-1.79-14.45-1.55l-8.08.09c-15.42.16-35.77.35-56.48.39H426c-10.14-1.59-22.14-2.71-34.35,1.11-5.12,1.28-10,.36-14.81-.54a46.71,46.71,0,0,0-11-1.17l-8.66-.19c-51.06-1.28-96.18-4.22-137.94-9-.67,0-1.41,0-2.2-.09-2.4-.13-4.89-.28-7,.77-2.28,1.14-4.52,2.36-6.9,3.65-8.89,4.84-18.09,9.83-28,9.82a27.77,27.77,0,0,1-7.65-1.07c-19.78-7.3-41.09-6.34-61.69-5.41-8.12.37-16.51.74-24.73.62-2.56.08-5.25.26-7.85.44-3,.49-5.91-.31-8.75-1.09a37.84,37.84,0,0,0-4.21-1l-8.3,0C26.35,1080.12,9.5,1080.07.5,1080.07Z"/><path class="cls-2" d="M.52,1122.25l0-1c10.28.26,32.07.56,64.75.89,2.38.06,5.07.38,7.92.71l.42.05c1.78.22,3.6.35,5.56.41,1.72,0,3.52,0,5.51,0a211.44,211.44,0,0,1,23.66.54c15.69,1,30.5,1.84,45.32-3.9,6.4-2.14,12.25-.5,18.45,1.23,2.37.66,4.82,1.34,7.29,1.79,2.91.13,5.52.2,8,.23,13.91.15,26.6.27,38.81.34a19.51,19.51,0,0,1,6.39.78c7,2.83,14.23,5.74,21.32,2.19a79.77,79.77,0,0,1,51.31-2.52l7.95,0,40.5.24c2.69,0,5.49.12,8.35.33l.16,0c18,7.84,34.91,1.94,52.77-4.3l3.26-1.14c4.67-1.56,8.61.76,12.42,3a34.68,34.68,0,0,0,5.21,2.67l14.86.06c2.48,0,5.44,0,8.59.15,7,0,14.12.36,21,.74,15.54.86,31.61,1.75,47.7-2.27,11-2.37,21.64-.48,29.69,1.44,2.2.15,4.41.23,6.55.31l32,.12c1.9,0,3.8,0,5.76.06a157.9,157.9,0,0,1,19.74,1c8,.74,16.37,1.5,24.78.7,3.49-.39,7.07-1,10.52-1.59,9.48-1.62,19.29-3.3,29.13-.71a69.89,69.89,0,0,0,8.71.85c55.49.11,90.83.07,105-.13l0,1c-14.19.2-49.53.25-105,.13a68,68,0,0,1-8.9-.87c-9.67-2.54-19.37-.88-28.75.72-3.47.59-7.06,1.21-10.59,1.6-8.51.81-16.88,0-25-.7a158.41,158.41,0,0,0-19.64-1c-2,0-3.88,0-5.78,0l-32-.13c-2.18-.08-4.41-.16-6.64-.31l-.09,0c-7.94-1.89-18.45-3.76-29.26-1.44-16.22,4-32.37,3.16-48,2.3-6.85-.38-13.93-.77-20.95-.74-3.16-.12-6.1-.15-8.57-.15l-15.12-.1a32.64,32.64,0,0,1-5.46-2.78c-3.78-2.22-7.35-4.33-11.59-2.91l-3.25,1.13c-18,6.3-35.06,12.25-53.42,4.3-2.8-.19-5.56-.3-8.2-.32l-40.49-.24-8.15-.07a78.78,78.78,0,0,0-50.7,2.46c-7.46,3.74-14.89.73-22.08-2.17a18.83,18.83,0,0,0-6-.71c-12.21-.08-24.9-.19-38.81-.34-2.48,0-5.11-.11-8-.23h-.07c-2.53-.46-5-1.16-7.42-1.83-6-1.68-11.76-3.28-17.84-1.25-15,5.82-30.62,4.87-45.72,4a212,212,0,0,0-23.55-.53c-2,.07-3.85.07-5.59,0-2-.06-3.84-.19-5.64-.41l-.43-.05c-2.82-.33-5.49-.65-7.81-.7C32.6,1122.8,10.81,1122.5.52,1122.25Z"/><path class="cls-2" d="M.37,844.72l.25-1c13.21,3.39,50.94,5.52,112.15,6.33,1.5,0,3,.06,4.44.12,11.87.62,23.64.37,35,.13,11.2-.24,22.79-.48,34.36.11h5.31c151.43-.38,360.45-5.67,500.42-10.74l8.65-.32c2.61-.15,5.45-.23,8.2-.31s5.53-.16,8.22-.31l7.84-.3c38.64-1.53,65.14-2.86,74.62-3.74l.1,1c-9.5.89-36,2.21-74.68,3.74l-7.83.3c-2.7.16-5.52.24-8.24.31-2.87.08-5.58.16-8.18.32l-8.66.31c-140,5.07-349,10.36-500.46,10.74h-5.33c-11.56-.59-23.13-.34-34.32-.11-11.41.24-23.2.49-35.1-.13-1.43-.06-2.91-.1-4.4-.12C51.47,850.28,13.66,848.14.37,844.72Z"/></g></svg>