<svg id="Calque_1" data-name="Calque 1" xmlns="http://www.w3.org/2000/svg" viewBox="0 0 1080 1080"><defs><style>.cls-1{fill:#fff;}.cls-2{fill:#006352;}.cls-3{fill:#00705d;}</style></defs><rect class="cls-1" x="384.6" y="719.82" width="0.91" height="14.54" transform="translate(-44.22 25.2) rotate(-3.54)"/><rect class="cls-1" x="384.6" y="719.82" width="0.91" height="14.54" transform="translate(-44.22 25.2) rotate(-3.54)"/><polygon class="cls-1" points="390.55 727.65 390.04 719.49 390.95 719.44 391.46 727.6 390.55 727.65"/><rect class="cls-1" x="395.89" y="719.11" width="0.91" height="8.18" transform="translate(-43.97 25.9) rotate(-3.55)"/><rect class="cls-1" x="401.48" y="718.76" width="0.91" height="8.18" transform="translate(-43.94 26.24) rotate(-3.55)"/><rect class="cls-1" x="407.07" y="718.42" width="0.91" height="8.18" transform="translate(-43.81 26.53) rotate(-3.54)"/><rect class="cls-1" x="413.77" y="718.01" width="0.91" height="14.54" transform="translate(-44.11 27.04) rotate(-3.55)"/><rect class="cls-1" x="413.77" y="718.01" width="0.91" height="14.54" transform="translate(-44.11 27.04) rotate(-3.55)"/><rect class="cls-1" x="419.47" y="717.65" width="0.91" height="8.18" transform="translate(-43.82 27.35) rotate(-3.54)"/><rect class="cls-1" x="425.06" y="717.3" width="0.91" height="8.18" transform="translate(-43.79 27.69) rotate(-3.54)"/><rect class="cls-1" x="430.65" y="716.96" width="0.91" height="8.18" transform="translate(-43.79 28.06) rotate(-3.55)"/><rect class="cls-1" x="436.24" y="716.61" width="0.91" height="8.18" transform="translate(-43.74 28.39) rotate(-3.55)"/><rect class="cls-1" x="442.94" y="716.2" width="0.91" height="14.54" transform="translate(-43.88 28.8) rotate(-3.54)"/><rect class="cls-1" x="442.94" y="716.2" width="0.91" height="14.54" transform="translate(-43.88 28.8) rotate(-3.54)"/><rect class="cls-1" x="448.64" y="715.84" width="0.91" height="8.18" transform="translate(-43.65 29.14) rotate(-3.54)"/><rect class="cls-1" x="454.23" y="715.49" width="0.91" height="8.18" transform="translate(-43.64 29.51) rotate(-3.55)"/><rect class="cls-1" x="459.82" y="715.15" width="0.91" height="8.18" transform="translate(-43.6 29.84) rotate(-3.55)"/><rect class="cls-1" x="465.41" y="714.8" width="0.91" height="8.18" transform="translate(-43.57 30.19) rotate(-3.55)"/><rect class="cls-1" x="472.11" y="714.39" width="0.91" height="14.54" transform="translate(-43.76 30.63) rotate(-3.55)"/><rect class="cls-1" x="472.11" y="714.39" width="0.91" height="14.54" transform="translate(-43.76 30.63) rotate(-3.55)"/><rect class="cls-1" x="477.81" y="714.03" width="0.91" height="8.18" transform="translate(-43.39 30.87) rotate(-3.54)"/><rect class="cls-1" x="483.4" y="713.69" width="0.91" height="8.18" transform="translate(-43.45 31.29) rotate(-3.54)"/><rect class="cls-1" x="488.99" y="713.34" width="0.91" height="8.18" transform="translate(-43.43 31.64) rotate(-3.55)"/><rect class="cls-1" x="494.58" y="712.99" width="0.91" height="8.18" transform="translate(-43.4 31.99) rotate(-3.55)"/><polygon class="cls-1" points="501.73 727.14 500.83 712.63 501.74 712.57 502.64 727.08 501.73 727.14"/><polygon class="cls-1" points="501.73 727.14 500.83 712.63 501.74 712.57 502.64 727.08 501.73 727.14"/><rect class="cls-1" x="506.98" y="712.23" width="0.91" height="8.18" transform="translate(-43.35 32.77) rotate(-3.55)"/><polygon class="cls-1" points="512.82 720.08 512.32 711.91 513.22 711.86 513.73 720.02 512.82 720.08"/><rect class="cls-1" x="518.16" y="711.53" width="0.91" height="8.18" transform="translate(-43.25 33.43) rotate(-3.54)"/><rect class="cls-1" x="523.75" y="711.19" width="0.91" height="8.18" transform="translate(-43.24 33.79) rotate(-3.55)"/><rect class="cls-1" x="530.45" y="710.78" width="0.91" height="14.54" transform="translate(-43.37 34.19) rotate(-3.54)"/><rect class="cls-1" x="530.45" y="710.78" width="0.91" height="14.54" transform="translate(-43.37 34.19) rotate(-3.54)"/><polygon class="cls-1" points="536.4 718.62 535.9 710.46 536.8 710.4 537.31 718.56 536.4 718.62"/><rect class="cls-1" x="541.74" y="710.07" width="0.91" height="8.18" transform="translate(-43.12 34.89) rotate(-3.54)"/><rect class="cls-1" x="547.33" y="709.73" width="0.91" height="8.18" transform="translate(-43.1 35.24) rotate(-3.55)"/><rect class="cls-1" x="552.92" y="709.38" width="0.91" height="8.18" transform="translate(-43.06 35.59) rotate(-3.55)"/><polygon class="cls-1" points="560.07 723.52 559.17 709.01 560.08 708.96 560.98 723.47 560.07 723.52"/><polygon class="cls-1" points="560.07 723.52 559.17 709.01 560.08 708.96 560.98 723.47 560.07 723.52"/><rect class="cls-1" x="565.32" y="708.61" width="0.91" height="8.18" transform="translate(-43.1 36.45) rotate(-3.55)"/><polygon class="cls-1" points="571.16 716.46 570.66 708.3 571.57 708.25 572.07 716.41 571.16 716.46"/><rect class="cls-1" x="576.5" y="707.92" width="0.91" height="8.18" transform="translate(-42.94 37.06) rotate(-3.55)"/><rect class="cls-1" x="582.09" y="707.57" width="0.91" height="8.18" transform="translate(-42.9 37.39) rotate(-3.55)"/><rect class="cls-1" x="588.79" y="707.16" width="0.91" height="14.54" transform="translate(-43.09 37.85) rotate(-3.55)"/><rect class="cls-1" x="588.79" y="707.16" width="0.91" height="14.54" transform="translate(-43.09 37.85) rotate(-3.55)"/><rect class="cls-1" x="594.49" y="706.8" width="0.91" height="8.18" transform="translate(-42.83 38.16) rotate(-3.55)"/><rect class="cls-1" x="600.08" y="706.46" width="0.91" height="8.18" transform="translate(-42.79 38.5) rotate(-3.55)"/><rect class="cls-1" x="605.67" y="706.11" width="0.91" height="8.18" transform="translate(-42.76 38.84) rotate(-3.55)"/><rect class="cls-1" x="611.27" y="705.77" width="0.91" height="8.18" transform="translate(-42.63 39.09) rotate(-3.54)"/><polygon class="cls-1" points="419.31 860.48 411.41 845.45 420.67 859.68 419.31 860.48"/><polygon class="cls-1" points="414.9 863.76 408.05 851.95 416.21 862.9 414.9 863.76"/><polygon class="cls-1" points="410.01 867.77 404.73 858.64 411.31 866.88 410.01 867.77"/><polygon class="cls-1" points="423.78 857.79 413.96 841.37 425.1 856.92 423.78 857.79"/><polygon class="cls-1" points="428.04 855.15 417.81 837.24 429.38 854.32 428.04 855.15"/><polygon class="cls-1" points="431.69 852.23 421.13 833.42 433.03 851.41 431.69 852.23"/><polygon class="cls-1" points="435.8 848.96 425.21 830.58 437.14 848.12 435.8 848.96"/><polygon class="cls-1" points="439.51 845.65 429.29 827.74 440.86 844.81 439.51 845.65"/><polygon class="cls-1" points="443.6 842.81 433.37 824.9 444.94 841.98 443.6 842.81"/><polygon class="cls-1" points="447.67 839.98 437.45 822.07 449.01 839.14 447.67 839.98"/><polygon class="cls-1" points="451.75 837.14 441.53 819.23 453.1 836.3 451.75 837.14"/><polygon class="cls-1" points="455.83 834.3 445.61 816.39 457.17 833.47 455.83 834.3"/><polygon class="cls-1" points="459.91 831.46 449.69 813.55 461.25 830.63 459.91 831.46"/><polygon class="cls-1" points="463.99 828.63 453.77 810.72 465.33 827.79 463.99 828.63"/><polygon class="cls-1" points="468.07 825.79 457.85 807.88 469.41 824.95 468.07 825.79"/><polygon class="cls-1" points="472.15 822.95 461.93 805.04 473.49 822.12 472.15 822.95"/><polygon class="cls-1" points="476.23 820.11 466 802.21 477.57 819.28 476.23 820.11"/><polygon class="cls-1" points="480.31 817.28 470.08 799.37 481.65 816.44 480.31 817.28"/><polygon class="cls-1" points="484.39 814.44 474.16 796.53 485.73 813.6 484.39 814.44"/><polygon class="cls-1" points="488.47 811.6 478.24 793.69 489.81 810.76 488.47 811.6"/><polygon class="cls-1" points="492.55 808.76 482.32 790.85 493.89 807.93 492.55 808.76"/><polygon class="cls-1" points="496.63 805.92 486.4 788.02 497.97 805.09 496.63 805.92"/><polygon class="cls-1" points="500.7 803.09 490.48 785.18 502.04 802.25 500.7 803.09"/><polygon class="cls-1" points="504.78 800.25 494.56 782.34 506.13 799.41 504.78 800.25"/><polygon class="cls-1" points="508.86 797.41 498.64 779.5 510.2 796.58 508.86 797.41"/><polygon class="cls-1" points="512.94 794.58 502.72 776.67 514.28 793.74 512.94 794.58"/><polygon class="cls-1" points="517.02 791.74 506.8 773.83 518.36 790.9 517.02 791.74"/><polygon class="cls-1" points="521.1 788.9 510.88 770.99 522.44 788.07 521.1 788.9"/><polygon class="cls-1" points="525.18 786.06 514.96 768.15 526.52 785.23 525.18 786.06"/><polygon class="cls-1" points="529.26 783.23 519.03 765.32 530.6 782.39 529.26 783.23"/><polygon class="cls-1" points="533.34 780.39 523.11 762.48 534.68 779.55 533.34 780.39"/><polygon class="cls-1" points="537.42 777.55 527.19 759.64 538.76 776.72 537.42 777.55"/><polygon class="cls-1" points="541.5 774.71 531.27 756.8 542.84 773.88 541.5 774.71"/><polygon class="cls-1" points="545.58 771.87 535.35 753.97 546.92 771.04 545.58 771.87"/><polygon class="cls-1" points="549.65 769.04 539.43 751.13 551 768.2 549.65 769.04"/><polygon class="cls-1" points="553.73 766.2 543.51 748.29 555.07 765.36 553.73 766.2"/><polygon class="cls-1" points="557.81 763.36 547.59 745.46 559.15 762.53 557.81 763.36"/><polygon class="cls-1" points="561.89 760.52 551.67 742.62 563.23 759.69 561.89 760.52"/><polygon class="cls-1" points="565.97 757.69 555.75 739.78 567.31 756.85 565.97 757.69"/><polygon class="cls-1" points="570.05 754.85 559.83 736.94 571.39 754.01 570.05 754.85"/><polygon class="cls-1" points="574.13 752.01 563.9 734.11 575.47 751.18 574.13 752.01"/><polygon class="cls-1" points="578.21 749.18 567.98 731.27 579.55 748.34 578.21 749.18"/><polygon class="cls-1" points="586.97 741.94 580.41 731 588.27 741.05 586.97 741.94"/><polygon class="cls-1" points="591.95 738.52 586.87 729.88 593.24 737.61 591.95 738.52"/><polygon class="cls-1" points="597.63 734.5 592.55 725.86 598.92 733.6 597.63 734.5"/><polygon class="cls-1" points="583.08 745.52 574.11 730.08 584.41 744.66 583.08 745.52"/><rect class="cls-2" x="0.6" y="1.36" width="1079.4" height="1079.4"/><path class="cls-3" d="M860.05,268.3c0-54.87-20.55-114.8-70.2-143.78-69.79-40.75-158.66,5.6-230.64,19.34-15.78,3-56.92-22.39-74.55-26.69C381.21,92,154.78,151.49,139.7,282c-5.42,46.95,26.54,56,60.45,74.8,6.73,59.26-61.27,91.95-83.1,137.86-21.51,45.25-4.2,111.19,43.87,127.91,20.9,7.26,62-3.57,73.79,20.87S211,708,197.45,724c-54.61,64.33-11.91,108.85,60.77,115.72,30.63,2.9,54.68,7.64,61,40.57,7.4,38.33-19.22,63.16,31,74.39,38,8.49,91.82.68,127.89-10.9,25.46-8.16,52.09-28.34,77.51-29.75,55.81-3.1,10.28,67.42,70,69,90.3,2.29,189.68-91,258.07-140,43.46-31.13,124.45-105.34,71.69-163.2-16.57-18.17-54.92-14.6-61.72-43-11.08-46.68,44.4-87.46,49.61-133.92,3-26.94-2.14-59.8-22.25-79.72-21.24-21.05-64.22-12.42-77.91-39.92C833,362.93,860.05,295.36,860.05,268.3Z"/><path class="cls-1" d="M200.53,307.84a19.4,19.4,0,0,1-15.27-7.42,19.42,19.42,0,0,1-33.16-6.07A19.42,19.42,0,0,1,126.75,267a19.2,19.2,0,0,1-3.29-10.78A19.42,19.42,0,0,1,138,237.4a19.42,19.42,0,0,1,25.62-22.79A19.56,19.56,0,0,1,181.84,202a19.19,19.19,0,0,1,11.24,3.59,19.24,19.24,0,0,1,13.16-5.15A19.54,19.54,0,0,1,225,214.61a20.29,20.29,0,0,1,2.57-.17A19.46,19.46,0,0,1,247,233.88a19.21,19.21,0,0,1-1.43,7.29,19.42,19.42,0,0,1,.77,33.81,19.42,19.42,0,0,1-28.85,22.95A19.51,19.51,0,0,1,200.53,307.84ZM185.34,296l1,1.58a16.89,16.89,0,0,0,29.49-2.08l.67-1.44,1.25,1a16.71,16.71,0,0,0,10.28,3.51,16.92,16.92,0,0,0,16.9-16.9,16.74,16.74,0,0,0-1.4-6.73l-.47-1.09,1-.54a16.88,16.88,0,0,0-.77-30.37l-1.18-.54.57-1.17a16.74,16.74,0,0,0,1.68-7.33,16.92,16.92,0,0,0-16.9-16.9,17.34,17.34,0,0,0-3.27.32l-1.23.25-.26-1.23A17,17,0,0,0,206.24,203a16.75,16.75,0,0,0-12.14,5.16l-.8.83-.9-.72a16.7,16.7,0,0,0-10.56-3.71,17,17,0,0,0-16.21,12.14l-.41,1.4-1.33-.6a16.71,16.71,0,0,0-7-1.52,16.92,16.92,0,0,0-16.11,22l.44,1.37-1.42.26a16.87,16.87,0,0,0-10.54,26.6l.53.71-.49.74A16.88,16.88,0,0,0,152.2,291.4l1.45-.89.44,1.65a16.88,16.88,0,0,0,30.17,5.4Z"/><polygon class="cls-1" points="702.85 209.91 695.23 222.91 701.62 236.54 686.91 233.31 675.91 243.6 674.44 228.61 661.26 221.33 675.05 215.3 677.9 200.52 687.9 211.77 702.85 209.91"/><path class="cls-1" d="M192.48,427.4l-10.71-26a11.77,11.77,0,1,1,21.77-9l1.93,4.66,4.71-1.82A11.78,11.78,0,0,1,225.41,402a11.79,11.79,0,0,1-6.74,15.24Z"/><path class="cls-1" d="M857,419.85l-10.71-26a11.78,11.78,0,0,1,21.77-9l1.93,4.67,4.7-1.82A11.74,11.74,0,0,1,879,387a11.87,11.87,0,0,1,11,7.54,11.79,11.79,0,0,1-6.74,15.23Z"/><path class="cls-2" d="M226.24,494.9l9-14.5a17.08,17.08,0,1,0-29-18.07l-9,14.5Z"/><path class="cls-1" d="M226.21,494.75l5.63-9.3,2.84-4.7.34-.57.33-.61a12.46,12.46,0,0,0,.61-1.21l.5-1.23.39-1.29a17.22,17.22,0,0,0,.52-5.3,16.41,16.41,0,0,0-1.18-5.17,15.71,15.71,0,0,0-2.72-4.53,16.15,16.15,0,0,0-8.86-5.41,15.83,15.83,0,0,0-5.22-.33,16,16,0,0,0-5,1.32,16.52,16.52,0,0,0-4.35,2.85l-.93.91-.83,1a9.77,9.77,0,0,0-.76,1.06c-.24.35-.48.71-.72,1.12L203.9,468,201,472.72c-.95,1.56-1.94,3.1-2.91,4.65l-.33-1.42,3.61,2.28,3.59,2.32c2.4,1.53,4.77,3.11,7.16,4.66l7.1,4.75c1.19.79,2.36,1.61,3.53,2.41S225.08,494,226.21,494.75Zm0,.23c-1.25-.68-2.5-1.37-3.74-2.07s-2.49-1.4-3.72-2.11l-7.39-4.29c-2.45-1.45-4.91-2.89-7.35-4.37l-3.65-2.2-3.64-2.24a1,1,0,0,1-.34-1.41h0c1-1.56,1.9-3.12,2.88-4.67l2.94-4.64,3-4.62a19.48,19.48,0,0,1,3.68-4.39,18.88,18.88,0,0,1,4.87-3,17.8,17.8,0,0,1,5.56-1.33,17.17,17.17,0,0,1,5.67.47,17.66,17.66,0,0,1,9.45,6,17.76,17.76,0,0,1,3.92,10.41,18.22,18.22,0,0,1-.69,5.55l-.44,1.34-.58,1.29a9.43,9.43,0,0,1-.65,1.22l-.34.6-.38.59-3,4.62L226.33,495a.1.1,0,0,1-.14,0Z"/><path class="cls-2" d="M137.5,572.79a30,30,0,0,0-2,4.48c-.29,2-3,35.19-3,35.19s27.81-15.49,31.62-18.82a9.38,9.38,0,0,0,2.21-2.8Z"/><path class="cls-1" d="M137.55,572.94c-.36.72-.7,1.44-1,2.16-.17.39-.33.77-.48,1.16l-.21.58a3.63,3.63,0,0,0-.13.57l-.37,5-.74,10-1.43,20-.93-.6,8.74-5c2.9-1.7,5.8-3.4,8.68-5.14s5.75-3.48,8.58-5.29c1.41-.89,2.82-1.8,4.15-2.75.34-.24.62-.48.93-.72l.12-.09,0,0c-.1.1,0,0,0,0h0l0,0,0,0,.22-.23.44-.45a7.09,7.09,0,0,0,.71-.85,5,5,0,0,0,.3-.45c.1-.16.19-.31.26-.44l.39,1.32c-2.39-1.52-4.79-3-7.17-4.58s-4.75-3.1-7.12-4.66l-7.06-4.75c-1.18-.78-2.34-1.6-3.51-2.41S138.67,573.75,137.55,572.94Zm0-.24q1.88,1,3.72,2.07c1.24.7,2.49,1.38,3.71,2.1l7.36,4.27c2.44,1.45,4.88,2.9,7.3,4.37s4.85,3,7.26,4.44h0a1,1,0,0,1,.39,1.31c-.12.25-.24.46-.36.66a7,7,0,0,1-.4.6,8.71,8.71,0,0,1-.9,1.09l-.45.45-.22.22-.05.06-.09.08,0,0-.14.11c-.36.27-.72.57-1.08.81-1.43,1-2.86,1.88-4.31,2.74-2.9,1.75-5.82,3.42-8.76,5.08q-8.81,5-17.67,9.82h0a.62.62,0,0,1-.92-.6c.63-6.68,1.23-13.37,1.92-20l1-10,.51-5a3.09,3.09,0,0,1,.16-.65l.23-.59c.17-.39.34-.77.52-1.15.37-.76.75-1.5,1.15-2.25a.09.09,0,0,1,.13,0h0Z"/><path class="cls-2" d="M132.74,609.89l-.21,2.57,1.55-.86c.11-.92.25-1.83.37-2.74Z"/><path class="cls-1" d="M132.85,610c.05.41.09.82.13,1.23s.08.87.1,1.3l-.81-.52c.46-.37.94-.72,1.42-1.07l-.4.58c0-.46,0-.93,0-1.39a3.59,3.59,0,0,1,.23-1.37l1.45,1a5.53,5.53,0,0,1-1,.25,4.89,4.89,0,0,1-.55,0A3.33,3.33,0,0,1,132.85,610Zm-.25.07.09-.24a4.37,4.37,0,0,1,.26-.53,4.1,4.1,0,0,1,.31-.46,4.72,4.72,0,0,1,.7-.77.85.85,0,0,1,1.2.05.93.93,0,0,1,.22.51l0,.39a3.51,3.51,0,0,1-.15,1.37c-.14.45-.3.89-.4,1.34l-.05.17a.58.58,0,0,1-.35.41c-.55.23-1.1.45-1.66.66l-.15.06a.52.52,0,0,1-.65-.3.57.57,0,0,1,0-.29c.1-.42.22-.84.32-1.26S132.49,610.41,132.6,610Z"/><path class="cls-2" d="M133.38,602.23c-.48,5.76-.85,10.23-.85,10.23s4-2.2,9.09-5.13A19.64,19.64,0,0,1,133.38,602.23Z"/><path class="cls-1" d="M133.47,602.54c0,1.61-.09,3.23-.14,4.83s-.11,3.43-.19,5.14l-.9-.59,4.43-2.74,2.21-1.39c.73-.47,1.47-.94,2.22-1.37l.21,1.92-1.22-.43c-.39-.18-.79-.35-1.17-.54l-1.12-.65c-.36-.23-.71-.48-1.06-.72l-1-.81c-.31-.29-.62-.59-.91-.89s-.56-.64-.83-1S133.65,602.81,133.47,602.54Zm0-.38c.36.22.7.44,1,.67s.7.41,1,.63.71.39,1,.59.71.36,1.05.55.72.32,1.07.5l1.07.45c.37.13.72.27,1.08.41l1.1.37,0,0a1,1,0,0,1,.16,1.9c-.76.42-1.54.81-2.33,1.19l-2.33,1.17L132.83,613l0,0a.59.59,0,0,1-.8-.26.6.6,0,0,1-.07-.34c.21-1.7.42-3.4.66-5.1s.45-3.39.7-5.09c0-.05.06-.09.11-.09l0,0Z"/><path class="cls-2" d="M149.05,584.76l62.88-100.9-13.76-8.58L138.46,571.1h0c0,.07-.09.13-.13.19-1.88,3-2.37,4.65-1.72,6.92s5,7.41,9.56,3.17c.06,0,1.64-1.36,0,1.6Z"/><path class="cls-1" d="M149,584.62l62.29-101.15.23,1L197.75,476l1.1-.25-14.79,24-7.41,12c-2.48,4-4.94,8-7.45,12l-7.49,12-7.56,11.92-7.56,11.91L139,571.41l-.19-.81h0l0,0a.58.58,0,0,1,.17.79l0,0c-.24.33-.49.79-.74,1.17s-.46.79-.64,1.2l-.28.61-.21.62a5.55,5.55,0,0,0-.22,1.26,2.74,2.74,0,0,0,0,.64,2.83,2.83,0,0,0,.09.65,3.75,3.75,0,0,0,.15.62,3.19,3.19,0,0,0,.11.33l.13.28a7.44,7.44,0,0,0,.69,1.13A8.16,8.16,0,0,0,140,581.8a5.25,5.25,0,0,0,1.18.6,2.68,2.68,0,0,0,.63.18l.32.07h.33a4,4,0,0,0,1.29-.14l.63-.22.59-.32a3.07,3.07,0,0,0,.56-.38l.55-.43a3.29,3.29,0,0,1,.33-.23.76.76,0,0,1,.52-.11.38.38,0,0,1,.25.33.65.65,0,0,1,0,.25,3.22,3.22,0,0,1-.12.37,11.83,11.83,0,0,1-.66,1.28l-.07-.24Zm0,.23-2.9-1.72a.17.17,0,0,1-.07-.23h0a11.78,11.78,0,0,0,.58-1.26,1.92,1.92,0,0,0,.08-.3.23.23,0,0,0,0-.11s0,0,.07.06-.07,0-.14.08l-.25.18-.55.47a3.19,3.19,0,0,1-.59.43l-.63.38-.7.28a5,5,0,0,1-1.49.22H142l-.38-.06a3.54,3.54,0,0,1-.73-.18,5.44,5.44,0,0,1-1.36-.63,8.78,8.78,0,0,1-1.19-.89,11.54,11.54,0,0,1-1-1.08,9.09,9.09,0,0,1-.82-1.26l-.18-.36-.13-.33a6,6,0,0,1-.2-.75,3.68,3.68,0,0,1-.13-.75,3.29,3.29,0,0,1,0-.77,6.41,6.41,0,0,1,.22-1.52l.22-.72.29-.69c.19-.45.44-.88.66-1.31s.44-.8.74-1.25l.18.83h0a.58.58,0,0,1-.2-.8h0l7.3-12.08,7.37-12,7.36-12,7.44-12c2.47-4,5-8,7.48-12l7.52-11.94,15.06-23.87h0a.81.81,0,0,1,1.11-.25l13.72,8.64h0a.73.73,0,0,1,.23,1h0L149.13,584.81A.11.11,0,0,1,149,584.85Z"/><path class="cls-2" d="M150.58,585.71l62.88-100.9,13.76,8.57L167.51,589.2h0a2.25,2.25,0,0,1-.12.21c-1.87,3-3.12,4.17-5.44,4.58s-8.87-1.24-7.06-7.18c0-.08.49-2.08-1.44.7Z"/><path class="cls-1" d="M150.49,585.66l62.35-101.24a.73.73,0,0,1,1-.23h0l13.79,8.51a.8.8,0,0,1,.26,1.1h0l-14.8,24-7.4,12c-2.48,4-4.94,8-7.45,12l-7.49,12-7.56,11.92-7.56,11.92L168,589.51h0a.57.57,0,0,1-.8.18h0l.82-.2c-.27.46-.53.8-.79,1.21s-.57.8-.89,1.17l-.49.56-.55.52a6.21,6.21,0,0,1-1.27.87,3.44,3.44,0,0,1-.71.3,5,5,0,0,1-.72.22c-.26,0-.47.12-.76.14-.12,0-.23,0-.36,0h-.4a8,8,0,0,1-1.49-.19,9.71,9.71,0,0,1-1.42-.43,8.28,8.28,0,0,1-1.33-.67,5.88,5.88,0,0,1-1.16-1,3,3,0,0,1-.48-.58l-.22-.31a2.7,2.7,0,0,1-.17-.34,4.58,4.58,0,0,1-.46-1.44l-.06-.74c0-.25,0-.5.06-.74a3.39,3.39,0,0,1,.13-.72l.18-.7a2.87,2.87,0,0,0,0-.31c0-.08,0-.22,0-.16s.12,0,.08,0l-.09.05c-.07,0-.15.14-.23.21a11.66,11.66,0,0,0-.88,1.07h0a.19.19,0,0,1-.25,0l-2.82-1.86A.11.11,0,0,1,150.49,585.66Zm.23,0,2.82,1.66-.25,0a11.57,11.57,0,0,1,.86-1.16,2.56,2.56,0,0,1,.29-.27.53.53,0,0,1,.2-.12.37.37,0,0,1,.41.07.73.73,0,0,1,.13.52,2.63,2.63,0,0,1-.06.39l-.14.68a3.2,3.2,0,0,0-.1.67l0,.68.09.66a3.8,3.8,0,0,0,.44,1.22,2.69,2.69,0,0,0,.16.29l.2.26a2.85,2.85,0,0,0,.44.48,4.86,4.86,0,0,0,1,.8,7.85,7.85,0,0,0,1.22.55,8.28,8.28,0,0,0,1.3.34,6.65,6.65,0,0,0,1.31.12h.31l.35,0a5.42,5.42,0,0,0,.62-.14,2.67,2.67,0,0,0,.62-.21,2.36,2.36,0,0,0,.58-.27,4.74,4.74,0,0,0,1-.75l.47-.46.42-.52c.29-.35.53-.73.79-1.1s.54-.82.73-1.18a.56.56,0,0,1,.77-.24h0l0,0h0l-.81.19,7.3-12.08,7.36-12,7.37-12,7.44-12c2.46-4,5-8,7.48-12l7.52-11.94L226.54,493l.25,1.11-13.72-8.64,1-.23Z"/><path class="cls-2" d="M155.38,588.65l62.86-100.86L207.34,481,144.46,581.9h0c0,.06-.09.12-.13.19a6.42,6.42,0,0,0,10.9,6.8Z"/><path class="cls-1" d="M155.29,588.6,163.15,576c2.63-4.2,5.19-8.44,7.79-12.65L186.44,538c5.15-8.46,10.38-16.87,15.57-25.31l15.6-25.28.24,1-10.93-6.74,1.1-.25-15.58,25.31-7.81,12.65c-2.6,4.21-5.2,8.43-7.84,12.62s-5.25,8.41-7.91,12.58l-8,12.54-16.16,25-.1-.43h0a.31.31,0,0,1,.09.42h0a6,6,0,0,0-.61,1.08,5.7,5.7,0,0,0-.37,1.17,6.22,6.22,0,0,0,0,2.47,7.43,7.43,0,0,0,.37,1.19c.08.19.18.37.27.56l.33.53.38.5.43.46.47.41.51.36.56.32.57.25.6.19.62.13a7.61,7.61,0,0,0,1.26.07,6.63,6.63,0,0,0,1.25-.19,5.64,5.64,0,0,0,1.19-.43,6,6,0,0,0,1.08-.66,3.64,3.64,0,0,0,.48-.4,3.19,3.19,0,0,0,.44-.46,3.72,3.72,0,0,0,.4-.49A6.1,6.1,0,0,0,155.29,588.6Zm.18.1a4,4,0,0,1-.35.56,4.81,4.81,0,0,1-.4.52,4,4,0,0,1-.45.47,3.43,3.43,0,0,1-.5.43,5.6,5.6,0,0,1-1.11.7,6.88,6.88,0,0,1-1.24.47,7,7,0,0,1-1.3.2,6.48,6.48,0,0,1-1.32,0l-.65-.13-.63-.19-.62-.26-.57-.31-.56-.37-.51-.43-.47-.47-.41-.52-.37-.56c-.1-.2-.21-.4-.3-.6a6.22,6.22,0,0,1-.42-1.26,6.67,6.67,0,0,1-.06-2.67,6,6,0,0,1,.37-1.3,5.85,5.85,0,0,1,.62-1.19l.09.43h0a.3.3,0,0,1-.11-.41h0l15.28-25.51,7.73-12.69c2.57-4.23,5.21-8.43,7.81-12.64s5.24-8.41,7.87-12.61l7.92-12.57,15.86-25.14h0a.79.79,0,0,1,1.09-.25l10.87,6.84h0a.72.72,0,0,1,.23,1L203,513.32c-5.28,8.38-10.53,16.78-15.85,25.13l-15.93,25.08c-2.64,4.19-5.32,8.36-7.93,12.57Z"/><path class="cls-2" d="M230.08,488.8a78.47,78.47,0,0,0-29-18.09q-2.67,4.31-5.36,8.6a78.47,78.47,0,0,1,29,18.09Q227.39,493.1,230.08,488.8Z"/><path class="cls-1" d="M229.94,488.81,226.8,486l-3.35-2.68-3.49-2.5-3.62-2.31-3.73-2.09-3.84-1.9-3.93-1.7-4-1.47.79-.27-5.24,8.67-.42-1.2c1.38.45,2.75.94,4.12,1.42s2.69,1.13,4,1.7l3.9,2,3.77,2.21,3.61,2.45,3.45,2.67c1.11,1,2.19,1.92,3.28,2.88s2.06,2.05,3.08,3.08l-1,.12,1.43-2.09c.48-.69,1-1.4,1.45-2.08C228,491.52,229,490.15,229.94,488.81Zm.22,0c-.77,1.51-1.6,3-2.4,4.47-.4.75-.82,1.48-1.23,2.23l-1.24,2.2a.65.65,0,0,1-.88.25l-.1-.07-.06-.05q-1.63-1.39-3.23-2.8c-1.12-.88-2.24-1.75-3.35-2.64L214.21,490l-3.57-2.31L207,485.52l-3.77-2c-1.28-.6-2.57-1.19-3.85-1.82s-2.62-1.08-3.93-1.66l-.07,0A.79.79,0,0,1,195,479a.24.24,0,0,1,.06-.11l5.47-8.53,0,0a.64.64,0,0,1,.78-.24l4,1.6,3.94,1.82,3.83,2,3.7,2.26,3.57,2.46,3.42,2.64,3.28,2.83,3.1,3a.11.11,0,0,1,0,.12Z"/><path class="cls-2" d="M209,474c-1.16-.56-2.34-1.09-3.53-1.59l-5.36,8.6c1.19.5,2.37,1,3.53,1.59Z"/><path class="cls-1" d="M208.87,474.07c-1.17-.43-2.34-.88-3.5-1.33l.42-.13c-.81,1.49-1.62,3-2.46,4.44s-1.65,2.95-2.49,4.41l-.38-1.17a30.25,30.25,0,0,1,3.69,1.37l-1.38.4c.44-.72.9-1.43,1.37-2.13.24-.35.48-.7.73-1s.49-.69.75-1c.51-.67,1-1.34,1.59-2S208.28,474.65,208.87,474.07Zm.26,0c-.27.83-.59,1.63-.93,2.41s-.71,1.55-1.09,2.3c-.19.39-.4.75-.6,1.13s-.39.74-.61,1.11c-.41.73-.85,1.45-1.3,2.17a1.08,1.08,0,0,1-1.38.4h0a27,27,0,0,1-3.39-1.82l-.15-.09a.78.78,0,0,1-.23-1.07h0c.94-1.41,1.9-2.8,2.86-4.19s1.93-2.78,2.9-4.16l0,0a.3.3,0,0,1,.39-.1l3.44,1.8a.12.12,0,0,1,.06.13Z"/><path class="cls-2" d="M216.74,478.28c-1.46-.92-3-1.8-4.49-2.62l-5.36,8.6c1.53.82,3,1.7,4.49,2.62Z"/><path class="cls-1" d="M216.58,478.31c-1.51-.76-3-1.54-4.52-2.32l.52-.13c-.82,1.48-1.65,3-2.48,4.42s-1.67,3-2.52,4.41l-.3-1.14c.81.33,1.6.72,2.38,1.13s1.54.83,2.29,1.29l-1.48.34c.44-.72.93-1.41,1.4-2.12s1-1.38,1.48-2.06,1-1.34,1.59-2S216,478.9,216.58,478.31Zm.25,0c-.28.82-.61,1.61-1,2.39s-.71,1.54-1.1,2.3-.79,1.49-1.19,2.24-.83,1.47-1.28,2.18a1.09,1.09,0,0,1-1.45.37l0,0c-.74-.43-1.47-.87-2.19-1.33s-1.42-.95-2.11-1.49l-.14-.1a.78.78,0,0,1-.16-1c.93-1.41,1.89-2.8,2.84-4.2s1.91-2.79,2.88-4.17l0,0a.36.36,0,0,1,.49-.09c1.46.95,2.91,1.89,4.35,2.86a.11.11,0,0,1,.05.12Z"/><path class="cls-2" d="M225.29,496.48a153.83,153.83,0,0,0-29-18.09c-.7-.33-2,.71-2.41,1.45a3.07,3.07,0,0,0-.31,2.91,153,153,0,0,1,29,18.09c1,.19,1.9-1.08,2.35-1.79A2.74,2.74,0,0,0,225.29,496.48Z"/><path class="cls-1" d="M225.21,496.55l-4.08-2.92-2-1.47c-.67-.5-1.38-.94-2.09-1.39l-4.24-2.69c-.72-.44-1.4-.92-2.14-1.32l-2.19-1.22-4.37-2.47c-.72-.42-1.49-.76-2.24-1.14l-2.25-1.11-2.25-1.11-1.12-.55-.14-.07-.07,0h0c.15.06,0,0,.06,0h0l-.07,0s0,0,0,0h0a.88.88,0,0,0-.31.11,3.22,3.22,0,0,0-.78.63,2.64,2.64,0,0,0-.31.39l0,0,0,0-.08.14a1.33,1.33,0,0,0-.1.23,2.8,2.8,0,0,0-.22.93,1.92,1.92,0,0,0,.17.81l-.37-.36,7.74,3.78c1.26.69,2.5,1.41,3.75,2.12s2.49,1.44,3.73,2.17,2.38,1.61,3.56,2.44,2.37,1.63,3.53,2.47,2.25,1.79,3.36,2.7,2.22,1.82,3.32,2.74l-.21-.1.18,0a1.06,1.06,0,0,0,.23-.05,1.66,1.66,0,0,0,.51-.29,4.88,4.88,0,0,0,.94-1c.08-.1.13-.18.2-.28a3.57,3.57,0,0,0,.44-.92,2.51,2.51,0,0,0,.14-.66,1.22,1.22,0,0,0,0-.33A1.49,1.49,0,0,0,225.21,496.55Zm.16-.12a2,2,0,0,1,.19.35,1.8,1.8,0,0,1,.08.39,2.48,2.48,0,0,1,0,.77,4,4,0,0,1-.2.75,2.43,2.43,0,0,1-.16.36c0,.1-.12.24-.17.34a5.75,5.75,0,0,1-.92,1.25,2.81,2.81,0,0,1-.68.53,3.24,3.24,0,0,1-.47.16,1.63,1.63,0,0,1-.54,0,.34.34,0,0,1-.14-.05l-.07,0c-1.19-.78-2.37-1.58-3.55-2.38l-3.5-2.42c-1.22-.74-2.41-1.51-3.61-2.27s-2.4-1.52-3.59-2.29-2.45-1.42-3.66-2.16-2.44-1.45-3.64-2.2l-7.51-4-.06,0a.76.76,0,0,1-.31-.33,3.29,3.29,0,0,1-.31-1.64,4.21,4.21,0,0,1,.39-1.49c.06-.12.12-.26.17-.34l.08-.13.06-.1.06-.09a5.75,5.75,0,0,1,.49-.58,4.57,4.57,0,0,1,1.21-.89,2.23,2.23,0,0,1,.89-.25,1.46,1.46,0,0,1,.58.08l0,0,.08,0h0l.07,0,.14.08,1.12.59,2.23,1.19,2.24,1.18c.74.41,1.5.77,2.22,1.22l4.32,2.62,2.15,1.32c.73.43,1.4.94,2.1,1.41l4.16,2.88c.69.48,1.39,1,2,1.48l2,1.54,4,3.1h0Z"/><polygon class="cls-1" points="220.38 503.64 214.16 498.93 221.15 502.4 220.38 503.64"/><polygon class="cls-1" points="216.97 509.14 210.76 504.44 217.74 507.9 216.97 509.14"/><polygon class="cls-1" points="213.57 514.64 207.35 509.94 214.33 513.41 213.57 514.64"/><polygon class="cls-1" points="210.16 520.15 203.94 515.44 210.93 518.91 210.16 520.15"/><polygon class="cls-1" points="206.75 525.65 200.53 520.94 207.52 524.41 206.75 525.65"/><polygon class="cls-1" points="203.34 531.15 197.13 526.44 204.11 529.91 203.34 531.15"/><polygon class="cls-1" points="199.94 536.65 193.72 531.95 200.7 535.41 199.94 536.65"/><polygon class="cls-1" points="196.53 542.15 190.31 537.45 197.3 540.92 196.53 542.15"/><polygon class="cls-1" points="193.12 547.66 186.9 542.95 193.89 546.42 193.12 547.66"/><polygon class="cls-1" points="189.72 553.16 183.5 548.45 190.48 551.92 189.72 553.16"/><polygon class="cls-1" points="186.31 558.66 180.09 553.95 187.07 557.42 186.31 558.66"/><polygon class="cls-1" points="182.9 564.16 176.68 559.45 183.67 562.92 182.9 564.16"/><polygon class="cls-1" points="179.49 569.66 173.27 564.96 180.26 568.42 179.49 569.66"/><polygon class="cls-1" points="176.09 575.17 169.87 570.46 176.85 573.93 176.09 575.17"/><polygon class="cls-1" points="172.68 580.67 166.46 575.96 173.44 579.43 172.68 580.67"/><polygon class="cls-1" points="169.27 586.17 163.05 581.46 170.04 584.93 169.27 586.17"/><polygon class="cls-1" points="165.86 591.67 159.65 586.96 166.63 590.43 165.86 591.67"/><path class="cls-1" d="M232.42,485.12l-1.55-1.35-1.6-1.37c-.58-.51-1.24-1-1.88-1.49l-5.19-4,5.75,3.23c.72.41,1.47.79,2.11,1.21l1.78,1.13,1.74,1.1Z"/><path class="cls-1" d="M234.13,481.9l-1.55-1.35-1.6-1.37c-.58-.52-1.24-1-1.88-1.49l-5.19-4,5.75,3.23c.72.42,1.47.8,2.11,1.22l1.78,1.13,1.74,1.1Z"/><path class="cls-1" d="M236.19,477.65l-1.56-1.34c-.46-.41-1-.88-1.59-1.38s-1.24-1-1.88-1.49l-5.19-4,5.75,3.23c.71.41,1.46.8,2.11,1.22l1.78,1.12,1.74,1.1Z"/><polygon class="cls-1" points="237.33 472.84 226.96 466.13 238.26 471.14 237.33 472.84"/><path class="cls-2" d="M337.53,240c-2.15,1.08-3.38,1.61-4.66,3.48a20.71,20.71,0,0,0-2.42,4.67c-.74,2-.75,4.25-1.51,6.28a12.84,12.84,0,0,1-3.7,5.47,68.26,68.26,0,0,1-6,3.94,15.87,15.87,0,0,0,11.6,3.74c-.94,1.4-2.6,2-3.72,3.15,4.31,1.17,6.47,1,10.6-.27,3.34-1,3.61-1.91,6-3.39a23.3,23.3,0,0,1-1.36,3.41c1-.61,4.15-1.51,6.51-4.9,3.8-5.49,6.05-12.8,3-19.11-1.57-3.28-4.21-5.26-7.09-7.34"/><path class="cls-1" d="M337.61,240.13c-.57.31-1.17.6-1.72.94l-.82.51c-.26.19-.48.41-.73.62a3.24,3.24,0,0,0-.64.69l-.57.73-1,1.72a11,11,0,0,0-.81,1.75L331,248l-.09.22s0,.1,0,.09l0,.12-.12.47-.25,1-.15.94-.34,1.94a20.55,20.55,0,0,1-.52,2c-.27.61-.45,1.21-.79,1.83a12,12,0,0,1-1.08,1.79l-.61.84-.74.76-.37.37a1.73,1.73,0,0,1-.23.21l-.2.14-.79.59-1.59,1.16c-.53.38-1.1.72-1.65,1.09l-1.67,1.08v-1.5l.67.49c.2.14.4.3.61.43a13.48,13.48,0,0,0,1.26.75,10,10,0,0,0,1.32.63,11.37,11.37,0,0,0,1.38.5l1.4.37c.48.07,1,.12,1.45.18.24,0,.48.07.72.07l.73,0,1.45,0h.13A1.09,1.09,0,0,1,332,267.5a1,1,0,0,1-.22.69l-.46.61-.52.53a12.72,12.72,0,0,1-1.06.85l-1,.71a7.55,7.55,0,0,0-.77.67l-.55-2c.69.14,1.39.34,2.07.43a8.89,8.89,0,0,0,1,.13c.33,0,.67.08,1,.07s.67,0,1,0l1-.11c.67-.12,1.34-.25,2-.44.33-.08.68-.19,1-.3l.51-.15.13,0,.07,0h.05l-.1,0h0l.26-.11,1-.4a4.06,4.06,0,0,0,.93-.43c.24-.16.47-.31.72-.45s.55-.43.83-.64c.54-.43,1.26-.92,1.88-1.38a1.55,1.55,0,0,1,2.39,1.72l-.05.14-.59,1.81-.81,1.87-2.32-2.2.68-.36.56-.27c.33-.17.68-.33,1-.52a10,10,0,0,0,.91-.56c.3-.2.57-.41.84-.63a5.65,5.65,0,0,0,.77-.69,5.79,5.79,0,0,0,.71-.77c.2-.28.45-.53.64-.82s.47-.67.67-1c.39-.61.76-1.27,1.14-1.94s.68-1.35,1-2.05a22.5,22.5,0,0,0,.77-2.13c.21-.72.41-1.44.55-2.18a15.83,15.83,0,0,0,.21-4.45,11.8,11.8,0,0,0-.39-2.2,7.83,7.83,0,0,0-.34-1.07l-.18-.54-.24-.5a8.38,8.38,0,0,0-.53-1,8.62,8.62,0,0,0-.59-.94,15.73,15.73,0,0,0-1.45-1.83c-.53-.59-1.1-1.14-1.69-1.69l-1.8-1.63a.16.16,0,0,1,.19-.26,31,31,0,0,1,4.11,2.71,15,15,0,0,1,1.86,1.72,13.38,13.38,0,0,1,1.55,2.06l.35.56.29.58a9.87,9.87,0,0,1,.52,1.2,14.45,14.45,0,0,1,.73,2.51,17.26,17.26,0,0,1,.19,5.22,19.86,19.86,0,0,1-.45,2.56c-.21.84-.46,1.67-.75,2.48s-.63,1.6-1,2.38-.79,1.53-1.24,2.29c-.23.38-.44.69-.66,1s-.55.75-.83,1.12a9,9,0,0,1-.93,1,8.16,8.16,0,0,1-1,.92,7.87,7.87,0,0,1-1.11.81,11.56,11.56,0,0,1-1.17.69c-.4.22-.79.39-1.18.58l-.54.25-.4.19-.06,0a1.68,1.68,0,0,1-2.25-.78,1.72,1.72,0,0,1,0-1.44l.68-1.48.63-1.66,2.34,1.86c-.58.39-1.11.7-1.74,1.15-.32.22-.61.45-1,.67l-1.2.65a5.81,5.81,0,0,1-1.1.45l-1.05.36-.26.09-.14,0h0l-.07,0-.14,0-.55.15c-.37.09-.73.19-1.12.27-.75.17-1.54.3-2.33.41l-1.21.07c-.41,0-.82,0-1.22,0s-.8-.08-1.2-.11a11,11,0,0,1-1.17-.21c-.78-.13-1.51-.36-2.25-.55h0a1.2,1.2,0,0,1-.87-1.45,1.23,1.23,0,0,1,.34-.57,10.8,10.8,0,0,1,1.09-.9l1-.69c.32-.22.61-.43.87-.65l.35-.33.29-.35,1,1.75h-2.5c-.28,0-.56-.08-.83-.12-.55-.09-1.1-.16-1.65-.27l-1.59-.47a13.81,13.81,0,0,1-1.54-.63,12.75,12.75,0,0,1-1.47-.76c-.49-.26-.93-.6-1.39-.9l-.65-.5-.57-.45-.08-.07a.86.86,0,0,1-.14-1.22,1.15,1.15,0,0,1,.23-.21l1.68-1c.55-.33,1.12-.64,1.67-1l1.64-1.09.82-.54.21-.13.13-.13.34-.31.67-.61.58-.73a10.5,10.5,0,0,0,1-1.53,18.76,18.76,0,0,0,.85-1.74c.18-.55.4-1.16.55-1.77l.42-1.93.22-1,.29-.94.15-.47,0-.12.05-.14.11-.23.43-.92a12.91,12.91,0,0,1,.93-1.77l1.05-1.66.67-.8a3.46,3.46,0,0,1,.73-.7c.27-.21.53-.43.81-.62l.87-.49c.59-.32,1.19-.57,1.78-.86a.16.16,0,0,1,.22.07A.17.17,0,0,1,337.61,240.13Z"/><path class="cls-2" d="M351.88,246.45c-1.57-3.28-4.21-5.26-7.09-7.34l-.58.07c2.43,5,4.6,11.06,3.74,16.29-.7,4.25-4.06,7.43-7.19,10.1-1.75,1.51-6.21,4.23-6.61.12-.16-1.56-4.14-.18-5.15-.12a16.43,16.43,0,0,1-3.43-.15,14.35,14.35,0,0,1-5.68-2l-.65.41a15.81,15.81,0,0,0,11.59,3.74c-.94,1.4-2.6,2-3.72,3.15,4.31,1.17,6.47,1,10.6-.27,3.34-1,3.61-1.91,6-3.39a23.3,23.3,0,0,1-1.36,3.41c1-.61,4.15-1.51,6.51-4.9C352.66,260.07,354.91,252.76,351.88,246.45Z"/><path class="cls-1" d="M351.73,246.53l-.61-1.14-.7-1-.81-1-.89-.92c-.62-.58-1.28-1.13-2-1.66s-1.38-1-2.09-1.5l.14,0-.59.08.17-.3c.49,1,1,2,1.44,3s.85,2.07,1.26,3.11a32.33,32.33,0,0,1,1,3.22,11.82,11.82,0,0,1,.36,1.67,15.62,15.62,0,0,1,.24,1.69l.09,1.71-.11,1.74a2.49,2.49,0,0,1-.06.48l-.09.41-.18.81a16.55,16.55,0,0,1-.6,1.7c-.25.55-.55,1-.82,1.57s-.66,1-1,1.44L344.8,263l-1.18,1.23c-.82.8-1.63,1.55-2.51,2.3a12.93,12.93,0,0,1-3.06,1.91,5.25,5.25,0,0,1-2,.45,2.74,2.74,0,0,1-1.22-.24,1.76,1.76,0,0,1-.58-.36,1.61,1.61,0,0,1-.46-.48,3.55,3.55,0,0,1-.53-1.07c0-.18-.08-.35-.11-.52l-.05-.25,0-.13c0,.08,0-.2,0,.17h0v-.07l0-.1s0-.12,0,0a.39.39,0,0,0,.15.26c0,.05.08.05,0,0a2.32,2.32,0,0,0-.46,0,20.16,20.16,0,0,0-3.08.58,4.78,4.78,0,0,1-1,.1l-.83,0a14,14,0,0,1-1.79-.08l-.46,0a2,2,0,0,1-.27,0l-.21,0-.81-.15c-.53-.07-1.16-.28-1.74-.42s-1.15-.42-1.72-.63-1.1-.58-1.65-.87l1.4,0-.62.41v-2.16l.69.5c.2.14.39.3.6.43a13.73,13.73,0,0,0,1.23.73,10,10,0,0,0,1.28.61,10.75,10.75,0,0,0,1.34.49l1.37.36c.46.07.94.11,1.4.17.24,0,.47.07.7.08l.71,0,1.42,0h.17a1.48,1.48,0,0,1,1.22,2.37l-.5.66-.54.56c-.38.33-.74.62-1.1.88l-1,.7-.4.32-.32.31-.73-2.7c.68.14,1.37.35,2,.44.33.05.67.12,1,.14s.66.07,1,.07h1l1-.1c.66-.11,1.31-.23,2-.4.33-.07.68-.17,1-.27l.51-.14.13,0,.07,0h0l-.11,0h0l.26-.1,1-.38a3.56,3.56,0,0,0,.93-.39c.23-.13.47-.27.71-.39s.57-.41.85-.61c.56-.4,1.3-.88,1.94-1.3l0,0a1.61,1.61,0,0,1,2.22.48,1.64,1.64,0,0,1,.15,1.44l-.68,1.77-.87,1.84-2.14-2c.74-.38,1.23-.53,1.74-.77a12.31,12.31,0,0,0,1.45-.74c.47-.26.88-.58,1.33-.88a13.25,13.25,0,0,0,1.18-1.07,12.75,12.75,0,0,0,1.07-1.27c.38-.48.67-.93,1-1.4s.62-1,.9-1.47.55-1,.8-1.54a19.44,19.44,0,0,0,1.25-3.23c.18-.56.28-1.12.41-1.69a14.33,14.33,0,0,0,.21-1.73,12.75,12.75,0,0,0,0-1.75,11.43,11.43,0,0,0-.19-1.74,11.08,11.08,0,0,0-.41-1.7,16.33,16.33,0,0,0-.61-1.65Zm.29-.16h0c.23.55.52,1.08.7,1.66a15,15,0,0,1,.5,1.74,18,18,0,0,1,.29,1.79,13.74,13.74,0,0,1,.11,1.81,16,16,0,0,1-.08,1.83c-.07.6-.11,1.21-.24,1.81s-.24,1.19-.38,1.79-.32,1.18-.53,1.76a17.84,17.84,0,0,1-.65,1.72c-.22.58-.5,1.12-.76,1.68s-.58,1.13-.88,1.63a19,19,0,0,1-1.05,1.6,15.13,15.13,0,0,1-1.29,1.49,12.94,12.94,0,0,1-1.52,1.25,14.52,14.52,0,0,1-1.65,1c-.54.3-1.15.6-1.46.8a1.52,1.52,0,0,1-2.21-1.85l.08-.18.62-1.52.54-1.69,2.39,1.9c-.56.43-1.06.75-1.69,1.23-.31.23-.59.46-.94.7l-1.2.71a6.46,6.46,0,0,1-1.1.48l-1,.39-.26.09-.19.07-.07,0-.14,0-.55.16c-.37.1-.73.21-1.12.3a19.33,19.33,0,0,1-2.36.44l-1.25.1c-.41,0-.83,0-1.25,0s-.82-.08-1.23-.12a9.23,9.23,0,0,1-1.19-.2c-.8-.13-1.53-.35-2.29-.54l-.08,0a1.56,1.56,0,0,1-1.13-1.9,1.51,1.51,0,0,1,.47-.78l.58-.52.58-.43,1-.69c.31-.21.59-.42.84-.62l.32-.3.25-.3,1.39,2.36h-1.71l-.85,0a8,8,0,0,1-.84-.11c-.57-.09-1.13-.17-1.69-.27l-1.64-.49a14.34,14.34,0,0,1-1.57-.64,11.84,11.84,0,0,1-1.5-.78,15,15,0,0,1-1.42-.92c-.23-.16-.44-.33-.66-.5l-.56-.44-.1-.08a1.27,1.27,0,0,1-.22-1.79,1.5,1.5,0,0,1,.33-.29l.68-.42a1.31,1.31,0,0,1,1.3,0l.1.06c.43.23.83.5,1.27.72s.92.42,1.39.55.91.31,1.48.41l.82.17.2.05h.14l.37,0a10.16,10.16,0,0,0,1.53.13h.83a2.36,2.36,0,0,0,.62,0,20.34,20.34,0,0,1,3.48-.52,3.55,3.55,0,0,1,1.17.17,2.2,2.2,0,0,1,.76.43,2.39,2.39,0,0,1,.4.58,1.16,1.16,0,0,1,.06.17l0,.1,0,.05v0l0,.22,0,.07,0,.16c0,.1,0,.21.05.3s.1.35.18.42.25.26.6.29a3.48,3.48,0,0,0,1.24-.27,10.59,10.59,0,0,0,2.61-1.52c.83-.67,1.67-1.41,2.47-2.13l1.15-1.13,1.06-1.19.94-1.27c.26-.44.57-.89.8-1.34a15.11,15.11,0,0,0,.58-1.4l.22-.8.11-.4a3.28,3.28,0,0,0,.05-.34l.19-1.58v-1.61a14.71,14.71,0,0,0-.12-1.61,11,11,0,0,0-.24-1.61c-.17-1.08-.46-2.13-.74-3.2s-.66-2.09-1.08-3.11-.84-2-1.29-3.06h0a.2.2,0,0,1,.11-.27l.06,0,.59-.06h0a.18.18,0,0,1,.13,0l2,1.58c.68.53,1.33,1.1,2,1.7l.9.93.84,1,.74,1.08.62,1.13Z"/><path class="cls-2" d="M564.73,272.38l.57,0-20.52-95.84-162.21,9.75-8.89,97.61.57,0a4.25,4.25,0,0,0-.55,2.24c.61,10.16,44.39,21.28,97.37,18.09s95.09-19.47,94.48-29.63A4.08,4.08,0,0,0,564.73,272.38Z"/><path class="cls-1" d="M564.72,272.22l.57,0-.15.2-21-95.74.64.49L382.65,187.49l1.16-1.12L375.31,284l-1.73-1.78.58,0a1.64,1.64,0,0,1,1.73,1.53,1.6,1.6,0,0,1-.14.78l-.05.11a3,3,0,0,0-.33,1,.57.57,0,0,0,0,.22V286c0-.08,0,.22,0-.18l0,.11.16.8a7,7,0,0,0,1.34,1.81,20,20,0,0,0,5,3.31,69.11,69.11,0,0,0,11.94,4.39,175.8,175.8,0,0,0,25.36,4.89c4.29.53,8.6,1,12.91,1.26s8.64.58,13,.7,8.66.18,13,.14,8.66-.22,13-.42,8.65-.54,13-1,8.62-.93,12.92-1.51c8.59-1.16,17.13-2.69,25.57-4.68,4.22-1,8.42-2.1,12.57-3.35s8.26-2.63,12.28-4.24a70,70,0,0,0,11.6-5.75,21.35,21.35,0,0,0,4.92-4.09,6.82,6.82,0,0,0,1.46-2.74l.07-.77a2.94,2.94,0,0,0-.09-.77,4.59,4.59,0,0,0-.64-1.41h0a.18.18,0,0,1,.06-.23Zm.3.31a4.44,4.44,0,0,1,.61,1.28,3.28,3.28,0,0,1,.13.84l0,.86a7.44,7.44,0,0,1-1.45,3,21.27,21.27,0,0,1-4.93,4.4,70.44,70.44,0,0,1-11.58,6.2,167.82,167.82,0,0,1-24.86,8.29c-8.47,2.2-17,3.93-25.68,5.29-4.31.69-8.65,1.24-13,1.71s-8.71.84-13.06,1.16-8.74.5-13.11.58-8.75.13-13.12,0a255.61,255.61,0,0,1-26.21-1.79c-4.35-.53-8.69-1.17-13-2s-8.63-1.74-12.87-3a72,72,0,0,1-12.52-4.68,22.83,22.83,0,0,1-5.81-3.95,9.29,9.29,0,0,1-1.25-1.49,7.25,7.25,0,0,1-1-2.07l-.15-.8,0-.1c-.05-.42,0-.16,0-.27v-.37a3.7,3.7,0,0,1,.05-.59,6.27,6.27,0,0,1,.7-2.1l1.54,2.42-.57,0h0A1.65,1.65,0,0,1,372,284a2.09,2.09,0,0,1,0-.25l9.29-97.57h0A1.25,1.25,0,0,1,382.5,185l162.24-9.13a.6.6,0,0,1,.64.49l20.09,95.93a.17.17,0,0,1-.13.2H565Z"/><polygon class="cls-2" points="594.87 181.78 466.46 253.53 333.47 197.5 460.85 147.31 594.87 181.78"/><path class="cls-1" d="M595,181.93,466.87,254.26a.85.85,0,0,1-.73.05h0L333,198.75a1.35,1.35,0,0,1-.73-1.77,1.39,1.39,0,0,1,.74-.73h0l63.58-25.36,31.83-12.6,31.87-12.48h0a1.61,1.61,0,0,1,1-.06l33.45,8.83L511.43,159l16.71,4.47,33.41,9,33.36,9.17a.18.18,0,0,1,.12.21A.16.16,0,0,1,595,181.93Zm-.53-.09-33.24-8-33.6-8.24-16.79-4.15L494,157.29l-33.56-8.4,1-.06-31.82,12.62-31.86,12.49L334,198.76l0-2.5,132.79,56.49-.74,0Z"/><polygon class="cls-2" points="594.87 181.78 466.46 253.53 333.47 197.5 332.72 185.01 460.85 147.31 594.12 169.29 594.87 181.78"/><path class="cls-1" d="M595,181.93,466.86,254.25a.81.81,0,0,1-.71,0h0L333,198.71a1.3,1.3,0,0,1-.8-1.12h0l-.8-12.49a1.35,1.35,0,0,1,1-1.38h0l64-19.11,32-9.49,32.05-9.37h0a1.61,1.61,0,0,1,.72,0l66.57,11.41L560.94,163c11.09,1.93,22.16,4,33.24,6h0a.39.39,0,0,1,.32.36l.52,12.5A.16.16,0,0,1,595,181.93Zm-.25-.24-1-12.37.33.36c-11.13-1.68-22.28-3.3-33.4-5l-33.37-5.14-66.7-10.57.73,0-32,9.48-32.05,9.36-64.14,18.58,1-1.39.7,12.5-.8-1.14,132.8,56.48-.72,0Z"/><polygon class="cls-2" points="460.85 147.31 460.12 147.53 466.49 253.51 594.87 181.78 594.12 169.29 460.85 147.31"/><path class="cls-1" d="M460.86,147.48l-.69.21.12-.17,7.06,105.94-1.27-.7,128-72.41-.84,1.53-.79-12.49,1.4,1.57c-11.11-1.77-22.2-3.7-33.31-5.54l-33.26-5.78c-11.1-1.9-22.17-4-33.24-5.95q-8.32-1.49-16.61-3.07C471.9,149.59,466.38,148.56,460.86,147.48Zm0-.33c5.58.75,11.15,1.55,16.73,2.35s11.14,1.59,16.71,2.43c11.13,1.67,22.27,3.28,33.39,5l33.36,5.2c11.11,1.83,22.23,3.56,33.32,5.46h0a1.68,1.68,0,0,1,1.39,1.56l.71,12.5h0a1.61,1.61,0,0,1-.84,1.51l-128.76,71h0a.85.85,0,0,1-1.16-.33,1,1,0,0,1-.1-.37l-5.69-106a.16.16,0,0,1,.12-.17l.74-.21Z"/><polygon class="cls-2" points="594.12 169.29 465.71 241.04 332.72 185.01 460.1 134.83 594.12 169.29"/><path class="cls-1" d="M594.2,169.44,466.12,241.77a.85.85,0,0,1-.73,0h0L332.2,186.26a1.35,1.35,0,0,1-.73-1.77,1.33,1.33,0,0,1,.74-.73h0l63.58-25.37,31.82-12.6,31.88-12.48h0a1.61,1.61,0,0,1,1-.06L494,142.08l16.72,4.42L527.39,151l33.41,9,33.36,9.17a.17.17,0,0,1,.12.2A.15.15,0,0,1,594.2,169.44Zm-.53-.09-33.24-8-33.6-8.24L510,149l-16.78-4.2-33.56-8.4,1-.06L428.88,149,397,161.45l-63.8,24.82,0-2.5L466,240.26l-.73,0Z"/><path class="cls-2" d="M469,182.89c.12,2.15-3.73,4.14-8.62,4.44s-8.95-1.22-9.08-3.38,3.73-4.14,8.61-4.43S468.91,180.73,469,182.89Z"/><path class="cls-1" d="M469.2,182.9a3.46,3.46,0,0,1-.05.47,3,3,0,0,1-.66,1.23,7.26,7.26,0,0,1-1.64,1.33,15.1,15.1,0,0,1-2.45,1.23,14.92,14.92,0,0,1-3.15.87l-.89.13-.88.07c-.63,0-1.26,0-1.9,0a14.85,14.85,0,0,1-4-.68,7.13,7.13,0,0,1-2.05-1,2.75,2.75,0,0,1-.49-.43,2.8,2.8,0,0,1-.46-.55,3,3,0,0,1-.36-.69,1.69,1.69,0,0,1-.12-.4l0-.21,0-.1v-.08c0-.08,0,.13,0-.18v-.24a1.72,1.72,0,0,1,0-.33,3.14,3.14,0,0,1,.26-.89,3.53,3.53,0,0,1,.35-.64,3,3,0,0,1,.42-.54,8,8,0,0,1,1.86-1.51,13.12,13.12,0,0,1,3.93-1.53,15,15,0,0,1,3.77-.3,12.84,12.84,0,0,1,3.38.65,11.14,11.14,0,0,1,4.37,2.59,3.18,3.18,0,0,1,.73,1.23,3.76,3.76,0,0,1,.08.51Zm-.33,0a2.36,2.36,0,0,0-.11-.41,2.13,2.13,0,0,0-.77-.9,7,7,0,0,0-4.32-.78c-.92,0-1.91.15-2.91.27a30.18,30.18,0,0,0-3.2.48,16.7,16.7,0,0,0-3.17.89,5.11,5.11,0,0,0-1.25.75,1,1,0,0,0-.21.21,1.12,1.12,0,0,0-.15.19c-.06.08,0,0-.06,0s0,.08,0,.15l0,.24c0-.29,0-.08,0-.14h0v0a.09.09,0,0,0,0,.07.54.54,0,0,0,.06.18,1.09,1.09,0,0,0,.14.21,1.19,1.19,0,0,0,.22.23,4.91,4.91,0,0,0,1.31.83,13,13,0,0,0,3.34.88c.58.08,1.14.12,1.69.15h1.67a22.08,22.08,0,0,0,3-.26,10.41,10.41,0,0,0,2.5-.7,4.9,4.9,0,0,0,1.63-1.12,2.07,2.07,0,0,0,.6-1.53Z"/><path class="cls-2" d="M345.78,238.83a5.52,5.52,0,1,1-5.84-5.17A5.52,5.52,0,0,1,345.78,238.83Z"/><path class="cls-1" d="M345.94,238.84l0,.39a6.4,6.4,0,0,1-.13,1.1c-.06.24-.1.51-.19.79s-.22.58-.35.9-.35.61-.55,1-.51.63-.8,1a5.68,5.68,0,0,1-2.55,1.39l-.39.1-.2,0-.1,0h-.9a2.81,2.81,0,0,1-.83-.07,8.27,8.27,0,0,1-.92-.21,6.7,6.7,0,0,1-3.06-2,7.08,7.08,0,0,1-1-1.68,4,4,0,0,1-.32-.94l-.1-.49-.05-.25,0-.12v-.26a6.37,6.37,0,0,1,.08-1.8,7.59,7.59,0,0,1,.64-2,6.87,6.87,0,0,1,2.78-2.87,6.33,6.33,0,0,1,3.68-.66,6.82,6.82,0,0,1,1.65.47,6.67,6.67,0,0,1,1.35.86,12.27,12.27,0,0,1,.94,1c.23.38.45.72.61,1l.38,1c.09.3.13.59.2.83a5.86,5.86,0,0,1,.14,1.13c0,.26,0,.4,0,.4Zm-.33,0-.08-.37a3.11,3.11,0,0,0-.35-1,4.79,4.79,0,0,0-.38-.63l-.6-.61c-.24-.19-.53-.34-.79-.51s-.63-.23-.93-.34a6.19,6.19,0,0,0-1-.13,9.38,9.38,0,0,0-1,0,4.84,4.84,0,0,0-2,.51,5.39,5.39,0,0,0-1.7,1.38,4.79,4.79,0,0,0-.5,1,4.13,4.13,0,0,0-.25,1.4v-.12h0v.13l0,.15,0,.32a1.81,1.81,0,0,0,.14.6,4.54,4.54,0,0,0,.51,1.15,5,5,0,0,0,1.89,1.63c.18.1.36.12.54.2l.26.1a3.27,3.27,0,0,0,.35.05l.72.07h.08l.15,0,.31,0a5.55,5.55,0,0,0,2.22-.64,9.88,9.88,0,0,0,.88-.63c.23-.26.48-.49.67-.75l.43-.78a6.88,6.88,0,0,0,.21-.72,3.46,3.46,0,0,0,.11-1.07v-.39Z"/><path class="cls-2" d="M343.32,234.57c1.33,3,1.06,6.16-2.36,8.1a7.3,7.3,0,0,1-4.07.85,5.52,5.52,0,0,0,8.89-4.69A5.53,5.53,0,0,0,343.32,234.57Z"/><path class="cls-1" d="M343.47,234.52l.38.77a4.55,4.55,0,0,1,.31.81,5.46,5.46,0,0,1,.24.88l.12.9c0,.3,0,.61,0,.92a3.32,3.32,0,0,1-.17.93,3.46,3.46,0,0,1-.33.9c-.15.28-.29.57-.46.85l-.62.73a3,3,0,0,1-.69.65l-.76.59-.81.45a4.4,4.4,0,0,1-.92.37,4.07,4.07,0,0,1-1,.26,6.22,6.22,0,0,1-.95.14l-1,.05.8-2.15a8,8,0,0,0,.77.4,3.39,3.39,0,0,0,.81.23,3.31,3.31,0,0,0,.83.05l.41,0h.06l-.14,0h.05l.13,0,.27-.07.54-.13c.19-.05.21-.13.32-.18a1.82,1.82,0,0,1,.27-.15,3,3,0,0,0,.3-.23l.32-.22a3.44,3.44,0,0,0,.27-.27l.28-.26c.08-.1.15-.21.23-.3a3.61,3.61,0,0,0,.25-.3c.06-.11.12-.23.19-.34a2.33,2.33,0,0,0,.34-.71,2.91,2.91,0,0,0,.22-.78l.09-.37,0-.56a4.08,4.08,0,0,0,0-.82,4.55,4.55,0,0,0-.22-.92,7.08,7.08,0,0,0-1-1.87Zm-.06-.08a4.44,4.44,0,0,1,1.13.47,4.65,4.65,0,0,1,1,.78,5.16,5.16,0,0,1,.82,1,6.22,6.22,0,0,1,.58,1.3l.14.54a6.13,6.13,0,0,1,.09.74,4.38,4.38,0,0,1,0,1.4,5.56,5.56,0,0,1-.35,1.39l-.28.66c-.11.21-.26.41-.39.61s-.28.39-.42.59l-.52.5c-.18.16-.36.33-.55.47l-.63.37a4.93,4.93,0,0,1-.65.33c-.25.09-.51.17-.76.24a4.16,4.16,0,0,1-.73.17l-.55,0-.28,0h-.17l-.16,0h-.11l-.7-.06a6.13,6.13,0,0,1-1.35-.29,7.36,7.36,0,0,1-1.26-.54,9.46,9.46,0,0,1-1.11-.76,1.18,1.18,0,0,1,.75-2.15h0l.74.05a5.93,5.93,0,0,0,.73,0,2.76,2.76,0,0,0,.68-.08,2.66,2.66,0,0,0,.7-.16l.72-.27.65-.38a2.64,2.64,0,0,0,.61-.42l.57-.48.45-.58a2.76,2.76,0,0,0,.36-.65,2.52,2.52,0,0,0,.26-.71c.05-.25.12-.5.16-.76l0-.79a7,7,0,0,0-.07-.8,4.06,4.06,0,0,0-.15-.82l-.22-.82a.15.15,0,0,1,.11-.2.14.14,0,0,1,.09,0Z"/><path class="cls-2" d="M339.37,235.62c.37.57-.05,1.49-.94,2.06s-1.9.58-2.27,0,.06-1.49.95-2.06S339,235.06,339.37,235.62Z"/><path class="cls-1" d="M339.53,235.56l0,.1a1.67,1.67,0,0,1,.08.35,3.6,3.6,0,0,1,0,.57,3.41,3.41,0,0,1-.14.77,2.24,2.24,0,0,1-.47.85,1.1,1.1,0,0,1-.22.22l-.16.14a2.47,2.47,0,0,1-.47.32,2.77,2.77,0,0,1-1.32.37,2.12,2.12,0,0,1-1.8-.84l-.1-.18h0v0l0,0-.07-.1a3.58,3.58,0,0,1-.2-.71,3.45,3.45,0,0,1,0-1,2.89,2.89,0,0,1,.71-1.42,2.55,2.55,0,0,1,1.12-.71l.21,0a2.09,2.09,0,0,1,.36,0,1.8,1.8,0,0,1,.63.06,2.89,2.89,0,0,1,.95.45,2.86,2.86,0,0,1,.56.47,1.44,1.44,0,0,1,.24.33l.07.12v0Zm-.29.15h0s-.09-.12-.33-.1a.63.63,0,0,0-.38.22,1.51,1.51,0,0,0-.3.55.63.63,0,0,0-.06.29.34.34,0,0,1,0,.1l-.13.17a.92.92,0,0,1-.2.31.31.31,0,0,1-.27.07c-.05,0-.06,0-.12-.14a.42.42,0,0,0-.13-.25l0,.12v.09h0c-.05-.08.09.18-.1-.18-.19-.17-.31-.08-.21,0a.81.81,0,0,0,.44.11.51.51,0,0,0,.3,0L338,237s.07,0,.11,0a3.31,3.31,0,0,0,.61-.19,1.24,1.24,0,0,0,.48-.33.59.59,0,0,0,.15-.39.36.36,0,0,0-.08-.25Z"/><path class="cls-2" d="M332.36,248a8.29,8.29,0,0,0-.64,2.11,16.27,16.27,0,0,1-2,5.61,41.51,41.51,0,0,1-2.77,4.06,21.16,21.16,0,0,0-2.72,3.51,17.78,17.78,0,0,0,2.42-.14,8.78,8.78,0,0,0,4.65-1.95c.37-.31.7-1.29,1.23-1.35.79-.09-.35,1.88.29,2.18,1,.45,2.2-.58,2.9-1.12,2.56-1.92,5-3.94,6-7.13.59-2,1.41-4.25-.11-5.91-.9-1-2.08-.77-3.25-1.08s-2-1.49-3.3-1.54C333.6,245.19,332.87,246.88,332.36,248Z"/><path class="cls-1" d="M332.51,248.05l-.24.62a9.39,9.39,0,0,0-.48,1.81,29.65,29.65,0,0,1-.71,2.88,16.09,16.09,0,0,1-.65,1.72c-.15.3-.25.6-.43.94l-.52.89-1.1,1.88c-.19.33-.39.66-.59,1l-.15.25-.08.13-.12.17-.36.48c-.49.64-1.06,1.29-1.49,1.9-.23.32-.35.64-.54,1,.12-1,.1-.46-.27-1.09-.48-.26-.27-.12-.35-.17h.07l.3,0,.63-.07.64-.08.32,0h.08l.16,0a10.23,10.23,0,0,0,1.27-.32,7.16,7.16,0,0,0,2.05-1.06l.48-.37.06,0,0,0h0l-.08.07.12-.13c0-.07,0,0,.05-.11s.24-.41.43-.67a2.29,2.29,0,0,1,.47-.47,1.16,1.16,0,0,1,.42-.24,1.52,1.52,0,0,1,.28-.09l.15,0h.38a1.46,1.46,0,0,1,1.25,1.17,2.48,2.48,0,0,1,0,.76l-.12.75c0,.17,0,.39,0,.16,0,0,0,0,0-.11a1.28,1.28,0,0,0-.11-.2,1.7,1.7,0,0,0-.19-.2.57.57,0,0,0-.13-.08c-.1,0,.16.05-.26-.1h0l.34.08s-.09-.07-.14-.06.06,0,.08,0a1.83,1.83,0,0,0,.36-.19,10.23,10.23,0,0,0,1-.73l1.05-.88c.32-.3.66-.58,1-.88a12.76,12.76,0,0,0,2.83-3.73c.17-.31.26-.66.4-1s.25-.78.38-1.16a9,9,0,0,0,.44-2,2.12,2.12,0,0,0-.21-1.31l0-.08v-.06l.08.08h0l-.19-.21c-.17-.2-.11-.1-.14-.17a1.65,1.65,0,0,0-.63-.32,6.47,6.47,0,0,1-3.62-1.93,2.38,2.38,0,0,0-1.14-.55h-.36a1,1,0,0,1-.21.08,2.14,2.14,0,0,0-.46.26,4.83,4.83,0,0,0-1.08,1.44c-.2.38-.3.59-.3.59Zm-.31-.12h0l.26-.62a7.11,7.11,0,0,1,1-1.71,3,3,0,0,1,.59-.48,4.09,4.09,0,0,1,.42-.2l.36-.07a3.31,3.31,0,0,1,1.86.33,8.68,8.68,0,0,0,1.52.65,10.1,10.1,0,0,0,1.87.09,3.78,3.78,0,0,1,2.17.75l.23.16h0l.11.11,0,0,.07.07.13.16a4.59,4.59,0,0,1,1.19,3,9.33,9.33,0,0,1-.38,2.89c-.12.46-.21.82-.37,1.27s-.33,1-.55,1.43a13.5,13.5,0,0,1-3.91,4.58c-.38.31-.77.59-1.17.88l-1.14.82a12.71,12.71,0,0,1-1.34.85,4.53,4.53,0,0,1-.91.37,2.75,2.75,0,0,1-.6.12,3.28,3.28,0,0,1-.84-.05l-.33-.1h0c-.43-.16-.18-.07-.3-.13L332,263a1.33,1.33,0,0,1-.31-.32,1.51,1.51,0,0,1-.2-.35,1.8,1.8,0,0,1-.09-.28,2.9,2.9,0,0,1,0-1.22l.15-.63s0-.13,0,.07a1,1,0,0,0,.94.78h-.08c.09,0-.25,0,.21,0h.06l.12,0,.12-.07c.06-.06,0,0,0,0s-.19.25-.35.48a3.5,3.5,0,0,1-.35.45l-.12.13c-.18.16-.07.05-.11.09h0l0,0-.08.05-.65.44a9.84,9.84,0,0,1-2.86,1.22c-.5.14-.9.15-1.36.24l-.16,0a1,1,0,0,1-.17,0h-.08l-.34,0-.67,0-.67,0h-.69l-.15,0c-.09-.05.1.1-.39-.17-.38-.64-.42-.08-.29-1.12a14.3,14.3,0,0,1,.8-1.22c.59-.73,1.15-1.27,1.7-1.85l.4-.44,0-.05,0,0,0,0v0l.09-.11.18-.24.7-.9,1.36-1.72.64-.8c.17-.23.34-.53.51-.79a11.86,11.86,0,0,0,.82-1.57c.23-.51.37-1,.53-1.48s.23-.91.33-1.3a15.26,15.26,0,0,1,.47-1.86c.15-.41.22-.63.22-.63Z"/><path class="cls-1" d="M375.54,279.47l2.21,1,2.53,1.16c1,.44,2.08,1,3.31,1.46l3.94,1.59c1.39.6,2.91,1.08,4.47,1.6s3.17,1.14,4.86,1.51l5.09,1.27,5.19.84a47.07,47.07,0,0,0,5.06.5,41.05,41.05,0,0,0,4.76.2l4.28-.06a34.44,34.44,0,0,0,3.6-.23l2.78-.25,2.42-.22-2.41.29-2.77.33a35.57,35.57,0,0,1-3.61.34L417,291a40.65,40.65,0,0,1-4.79-.06,47.18,47.18,0,0,1-5.11-.35l-5.26-.7-5.19-1.14c-1.72-.32-3.34-.94-4.95-1.38s-3.15-.92-4.57-1.49l-4-1.49c-1.27-.44-2.36-1-3.36-1.37l-2.57-1.09-2.24-.95Z"/><path class="cls-1" d="M375.63,267.47l6.2,2.54a128.54,128.54,0,0,0,13.85,4.83,65.46,65.46,0,0,0,7.67,1.59c1.24.14,2.44.3,3.58.34a32,32,0,0,0,3.23,0,21.45,21.45,0,0,0,2.73-.23,16.53,16.53,0,0,0,2.07-.34l1.8-.42-1.78.48a13.52,13.52,0,0,1-2.07.43,20.42,20.42,0,0,1-2.73.33,28.46,28.46,0,0,1-3.26.1c-1.16,0-2.38-.1-3.64-.2a68.28,68.28,0,0,1-7.8-1.31,129.58,129.58,0,0,1-14.15-4.33L375,269Z"/><path class="cls-1" d="M377,252.44s1.91.75,4.72,2,6.51,2.91,10.35,4.25a52.22,52.22,0,0,0,5.72,1.65A28.57,28.57,0,0,0,403,261a13.87,13.87,0,0,0,2.07,0,10.78,10.78,0,0,0,1.6-.18l1.37-.28-1.36.34a9.48,9.48,0,0,1-1.59.27,13.44,13.44,0,0,1-2.1.14,28.74,28.74,0,0,1-5.24-.41,53.34,53.34,0,0,1-5.87-1.38c-3.95-1.15-7.78-2.66-10.63-3.75s-4.77-1.76-4.77-1.76Z"/><path class="cls-1" d="M377.09,237.3l1.13.41c.74.28,1.78.7,3,1.22,2.43,1,5.63,2.45,8.92,3.6a46.74,46.74,0,0,0,4.92,1.44c.79.17,1.57.31,2.31.43a20.4,20.4,0,0,0,2.1.17,11.28,11.28,0,0,0,1.78,0,7.54,7.54,0,0,0,1.36-.19l1.17-.29-1.15.36a7.76,7.76,0,0,1-1.36.27,10.75,10.75,0,0,1-1.8.16,19.66,19.66,0,0,1-2.14-.05q-1.14-.1-2.37-.3a48.91,48.91,0,0,1-5.06-1.16c-3.41-1-6.71-2.22-9.18-3.1-1.25-.44-2.26-.78-3-1l-1.16-.34Z"/><path class="cls-1" d="M378.27,228l15.89,4.72h0c1.17.47,2.34.94,3.53,1.37.59.22,1.18.43,1.79.6a2.36,2.36,0,0,0,.45.08c.19,0,0-.13-.12-.21a8.37,8.37,0,0,0-.79-.53,8.37,8.37,0,0,1,.82.48,1,1,0,0,1,.2.15.16.16,0,0,1,0,.15.19.19,0,0,1-.15.06,2.52,2.52,0,0,1-.48-.06c-.63-.12-1.23-.3-1.84-.47-1.22-.36-2.42-.74-3.63-1.13h0l-16.19-3.63Z"/><path class="cls-1" d="M448.15,138.36l8.71,4,4.21,1.94,4.76,2,10.35,4.37c7.12,2.83,14.21,5.75,19.58,7.79l8.94,3.46-9.06-3.14c-5.44-1.84-12.63-4.51-19.86-7.08l-10.54-4-4.85-1.85-4.29-1.79-8.84-3.69Z"/><path class="cls-1" d="M426.86,147.71l32.56,15.86,33.08,14.67L459,164.56l-33-14.86Z"/><path class="cls-1" d="M352.09,178.34l9.89,5.83,4.79,2.82c1.7,1,3.52,2,5.39,3.06l11.75,6.59,12,6.09c1.93.94,3.73,2,5.56,2.73l5.11,2.19,10.55,4.53L406.47,208l-5.18-2.05c-1.86-.68-3.69-1.68-5.66-2.56l-12.23-5.74-12-6.26c-1.91-1-3.78-1.94-5.5-2.9l-4.87-2.68L351,180.25Z"/><path class="cls-2" d="M458.19,182.09c-13.8-3.69-27.88-.63-41.5,2.33A150.32,150.32,0,0,1,395.23,188c-7.17.52-13.76-.77-20.7-2.31-6.22-1.37-12.58-2.3-18.86-.84-5.61,1.31-10.09,5.31-12.87,10.22-5.35,9.44-5.36,21.77-5.1,32.3.07,3.21.26,6.41.45,9.62.15,2.51,4.06,2.28,3.9-.24-.64-10.69-1.15-21.63,1.34-32.14,1.29-5.46,3.71-10.59,8.43-13.86,5.67-3.91,13.19-2.95,19.53-1.72,6.69,1.29,13,3,19.91,3s13.93-1.25,20.76-2.64c14.06-2.87,28.45-7.07,42.86-4.09.84.17,1.67.39,2.5.61,2.44.66,3.23-3.18.81-3.82Z"/><path class="cls-1" d="M458.16,182.25l-3.65-.76c-.6-.1-1.25-.31-2-.37l-2.42-.24c-.88-.07-1.81-.23-2.81-.24l-3.21,0c-.57,0-1.15,0-1.74,0l-1.83.12c-1.24.11-2.56.12-3.91.3l-4.22.56-4.5.8c-6.2,1.16-13.09,3-20.74,4.48-1.91.4-3.88.68-5.88,1s-4.06.5-6.19.72a47.89,47.89,0,0,1-6.46,0c-2.19-.1-4.39-.39-6.62-.71s-4.45-.78-6.69-1.26l-3.37-.69c-1.12-.19-2.24-.41-3.38-.55a39,39,0,0,0-6.92-.41,31.38,31.38,0,0,0-3.48.28l-1.71.33-.43.08-.11,0c.08,0,0,0,0,0l-.22.07-.87.26-.87.27-.77.34a11.9,11.9,0,0,0-1.52.75,20.73,20.73,0,0,0-2.88,2,21.73,21.73,0,0,0-4.57,5.42,37,37,0,0,0-4.59,13.89,94.31,94.31,0,0,0-.7,15.18c0,1.27.05,2.59.11,3.83l.2,3.88.21,3.88.05,1v.36c0,.18,0-.11,0,0l0,.24c0,.09,0,.17,0,.13s0,.07.1.1a.61.61,0,0,0,.28.11.85.85,0,0,0,.68-.16c.05-.07.09-.1.1-.19a.37.37,0,0,0,0-.16,1.9,1.9,0,0,0,0-.37l-.24-3.87-.21-3.9-.13-3.91a93.63,93.63,0,0,1,.82-15.61c.13-1.3.46-2.57.69-3.85l.18-1c.09-.41.16-.65.24-1,.17-.62.29-1.2.52-1.86a25.66,25.66,0,0,1,3.42-7.28,20,20,0,0,1,5.84-5.55,18.48,18.48,0,0,1,7.7-2.4c5.22-.45,10.11.58,14.67,1.53l6.77,1.38c1.11.22,2.2.36,3.29.54a26.29,26.29,0,0,0,3.25.42l3.2.23.4,0h.34l.82,0,1.63,0c1.07,0,2.17,0,3.19-.11l3.07-.29c1-.08,2-.22,3-.37l3-.42c2-.31,3.94-.66,5.84-1,7.62-1.4,14.63-2.9,20.94-3.67a74.74,74.74,0,0,1,16.42-.38,54.36,54.36,0,0,1,6,1c.85.2,1.66.45,2.36.58a1.46,1.46,0,0,0,1.48-.77,1.93,1.93,0,0,0-.32-2.33,2,2,0,0,0-.75-.41Zm.07-.32h0a2.6,2.6,0,0,1,.91.47,2.3,2.3,0,0,1,.42,2.77,1.86,1.86,0,0,1-1.89,1c-.77-.13-1.53-.35-2.39-.54s-1.79-.32-2.78-.5-2.06-.23-3.18-.34a63.18,63.18,0,0,0-7.45,0,85.41,85.41,0,0,0-8.73,1.06c-6.2,1-13.07,2.86-20.66,4.63-3.82.85-7.77,1.76-12,2.34l-3.23.41c-1.1.16-2.15.14-3.23.23l-1.63.08-.82,0-.2,0h-.28l-.42,0-3.42-.17a30.22,30.22,0,0,1-3.43-.37c-1.13-.17-2.31-.29-3.43-.51l-6.84-1.34c-4.56-.94-9.18-1.83-13.68-1.4a15.43,15.43,0,0,0-6.24,1.84,16.85,16.85,0,0,0-4.93,4.59,23.47,23.47,0,0,0-3,6.29c-.2.53-.35,1.19-.52,1.79-.07.28-.19.65-.23.87l-.19.9c-.23,1.22-.56,2.42-.71,3.66a89.89,89.89,0,0,0-1,15.1l.07,3.84.14,3.85.19,3.88a5.34,5.34,0,0,1,0,.61,2.51,2.51,0,0,1-.13.79,2.86,2.86,0,0,1-.89,1.44,3.44,3.44,0,0,1-3,.78A3.08,3.08,0,0,1,337,237.8a1.58,1.58,0,0,1-.08-.33l0-.24a1.33,1.33,0,0,1,0-.28v-.36l0-1-.16-3.88-.16-3.88c0-1.34-.05-2.6-.06-3.91a97.42,97.42,0,0,1,.91-15.55,48,48,0,0,1,1.8-7.58,36.28,36.28,0,0,1,1.43-3.65,18.56,18.56,0,0,1,.85-1.73l.44-.83.53-.85a23.75,23.75,0,0,1,5.07-5.86,21.49,21.49,0,0,1,3.22-2.15,12,12,0,0,1,1.77-.85l.91-.38.88-.26.87-.25.22-.07.16,0,.12,0,.46-.09,1.84-.33c1.24-.11,2.47-.27,3.69-.26a40.82,40.82,0,0,1,7.21.52c4.74.7,9.09,2,13.46,2.71,2.17.36,4.32.69,6.45.83a47.51,47.51,0,0,0,6.31.09c2-.18,4.11-.34,6.1-.57s3.95-.53,5.86-.87c7.64-1.3,14.59-2.95,20.82-4a101.41,101.41,0,0,1,16.29-1.63l3.22,0c1,0,2,.17,2.84.24l2.44.25a18,18,0,0,1,2,.37l3.64.76Z"/><path class="cls-2" d="M310.3,777.63c-11.9-4.82-33.66-11-36-25.93-3.89-24.54,42-43.19,14.46-68.58C225.53,624.93,118.9,719.21,111,784.23c-6.92,57,32.67,105.3,89.63,108.52,36,2,73.37-10.78,99.28-36C317.72,839.45,348.91,793.26,310.3,777.63Zm-46.07,32.73c-9.09,9.93-23.48,11.54-32.14,3.61s-8.33-22.41.76-32.34S256.33,770.09,265,778,273.32,800.44,264.23,810.36Z"/><path class="cls-1" d="M310.24,777.79s-2.64-1-7.63-2.94c-2.48-1-5.55-2.14-9.07-3.77a55.57,55.57,0,0,1-11.41-6.79,25.69,25.69,0,0,1-5.36-5.78,16.83,16.83,0,0,1-2.8-8.13,22.07,22.07,0,0,1,1.26-9.28,43.46,43.46,0,0,1,4.54-9c3.72-5.88,8.55-11.5,12.62-18.09a32.45,32.45,0,0,0,4.49-10.84,18.93,18.93,0,0,0,0-6,18.31,18.31,0,0,0-2.1-5.77,34.68,34.68,0,0,0-8.44-9.6,70.61,70.61,0,0,0-11-7.68A64.76,64.76,0,0,0,248.63,666a84.49,84.49,0,0,0-29.43,3.16,124.83,124.83,0,0,0-28.55,12.26,181.8,181.8,0,0,0-49.14,42.49,163.58,163.58,0,0,0-18.42,28,115.58,115.58,0,0,0-6.63,15.44,82.76,82.76,0,0,0-3.94,16.28c-2.89,22.23,1.74,45.46,13.52,64.08a90.48,90.48,0,0,0,21.85,24A92.51,92.51,0,0,0,176,886.38,106.4,106.4,0,0,0,191.1,890l3.82.51c1.26.17,2.54.23,3.81.35l1.9.16,1.89.07,3.85.12a136.15,136.15,0,0,0,29.46-2.79,134.07,134.07,0,0,0,49.75-21.21c1.71-1.24,3.46-2.39,5-3.73l2.41-1.92,1.19-1,1.14-1c1.49-1.36,3-2.67,4.43-4s2.77-2.77,4.08-4.2a125.91,125.91,0,0,0,13.32-17.39q2.74-4.38,4.92-8.69a76.2,76.2,0,0,0,3.63-8.55,42.21,42.21,0,0,0,2.57-16,23.55,23.55,0,0,0-4-12.28l-.8-1.16c-.28-.36-.6-.68-.88-1a16.2,16.2,0,0,0-1.76-1.83c-.61-.54-1.17-1.08-1.74-1.54l-1.71-1.22a32.9,32.9,0,0,0-5.26-3Zm.13-.32,1.91.85a34.87,34.87,0,0,1,5.35,2.94c.55.39,1.13.8,1.75,1.22s1.16,1,1.79,1.55a15.91,15.91,0,0,1,1.81,1.85c.3.33.63.66.92,1l.83,1.17A24.15,24.15,0,0,1,329,800.64,43,43,0,0,1,326.6,817a82.93,82.93,0,0,1-3.5,8.74q-2.1,4.41-4.78,8.9a127.1,127.1,0,0,1-13.09,17.92c-1.28,1.46-2.66,3-4.05,4.36s-2.94,2.79-4.43,4.21l-1.13,1.06-1.19,1-2.41,2c-1.58,1.4-3.33,2.62-5,3.92a132.67,132.67,0,0,1-50.45,22.51,131.16,131.16,0,0,1-30.25,3.08l-3.86-.11-2-.07-2-.15c-1.31-.13-2.64-.18-4-.36l-3.95-.52a108.76,108.76,0,0,1-15.7-3.65,96.3,96.3,0,0,1-29.11-15.36,93.09,93.09,0,0,1-22.49-25.07C111.19,830,106.62,806,109.76,783.22a85,85,0,0,1,4.16-16.79,119.85,119.85,0,0,1,6.87-15.75,166.74,166.74,0,0,1,18.86-28.28,184.1,184.1,0,0,1,50-42.73,126.9,126.9,0,0,1,29.06-12.28,84.23,84.23,0,0,1,30.06-3A66.16,66.16,0,0,1,276,673a71.55,71.55,0,0,1,11.09,7.94,35.92,35.92,0,0,1,8.57,10,18.37,18.37,0,0,1,2,12.4A33.53,33.53,0,0,1,293,714.39c-4.17,6.62-9.05,12.18-12.8,18a43.43,43.43,0,0,0-4.57,8.87,21.42,21.42,0,0,0-1.31,9.09,16.52,16.52,0,0,0,2.74,8,25.18,25.18,0,0,0,5.29,5.7,55.46,55.46,0,0,0,11.34,6.75c3.5,1.62,6.57,2.8,9.05,3.76C307.72,776.41,310.37,777.47,310.37,777.47Z"/><path class="cls-1" d="M264.35,810.49l-1.15,1.13-.62.62-.82.68a23,23,0,0,1-2.09,1.6,28,28,0,0,1-6.28,3.34,24.9,24.9,0,0,1-9.13,1.6,19.86,19.86,0,0,1-10.6-3.23,10.25,10.25,0,0,1-1.22-.89,9.92,9.92,0,0,1-1.22-1,19.21,19.21,0,0,1-2.08-2.27,23,23,0,0,1-1.81-2.69,22.36,22.36,0,0,1-1.32-3,23.09,23.09,0,0,1-.9-3.21,25,25,0,0,1-.37-3.36,23.45,23.45,0,0,1,.65-6.81,28.52,28.52,0,0,1,6.43-12.31c.91-.89,1.49-1.64,2.48-2.45.46-.39.91-.8,1.38-1.17l1.43-1a27.76,27.76,0,0,1,6.26-3.24,24.65,24.65,0,0,1,10.32-1.48,22,22,0,0,1,6.64,1.61,21.42,21.42,0,0,1,2.95,1.6,19.74,19.74,0,0,1,2.61,2l.15.13.08.06,0,0,.1.1.25.27.5.54a11.59,11.59,0,0,1,1,1.14,19.59,19.59,0,0,1,4.21,10.79,24.5,24.5,0,0,1-1.09,9.43,27.4,27.4,0,0,1-3,6.53,23.54,23.54,0,0,1-1.48,2.19l-.63.86-.59.67-1.06,1.22Zm-.25-.24,1-1.25c.16-.21.35-.44.55-.68s.37-.56.58-.88l.67-1c.24-.36.43-.79.66-1.21a27.08,27.08,0,0,0,1.32-2.92,24.2,24.2,0,0,0,1-3.61,22.67,22.67,0,0,0,0-8.77,20.22,20.22,0,0,0-.62-2.34c-.12-.39-.31-.77-.45-1.15a9.83,9.83,0,0,0-.49-1.16,16.27,16.27,0,0,0-1.26-2.21,18.24,18.24,0,0,0-1.5-2,9,9,0,0,0-1-1l-.53-.52-.26-.26,0,0,0,0-.07,0-.13-.11a18.39,18.39,0,0,0-2.2-1.59,22.94,22.94,0,0,0-2.46-1.29,21.25,21.25,0,0,0-2.7-.86,20.48,20.48,0,0,0-2.85-.53,22.4,22.4,0,0,0-3-.06,21.79,21.79,0,0,0-6,1.09,23.12,23.12,0,0,0-5.65,2.66l-1.32.88c-.41.31-.8.65-1.21,1a30.57,30.57,0,0,0-2.37,2.19,25.9,25.9,0,0,0-6.17,11,21.69,21.69,0,0,0-.77,6.18,22.14,22.14,0,0,0,.25,3,20.57,20.57,0,0,0,.73,2.93,22,22,0,0,0,1.11,2.75,21,21,0,0,0,1.54,2.43,17.65,17.65,0,0,0,1.91,2.21,10.26,10.26,0,0,0,1,.91,8.07,8.07,0,0,0,1.08.87,19.31,19.31,0,0,0,9.74,3.54,22.35,22.35,0,0,0,8.9-1.07,24.34,24.34,0,0,0,3.52-1.43,25.45,25.45,0,0,0,2.76-1.67c.39-.28.79-.52,1.13-.79l.93-.79.79-.68.62-.62,1.14-1.15Z"/><path class="cls-2" d="M306.2,771.21c-11.9-4.82-33.66-11-36-25.93-3.89-24.54,42-43.19,14.46-68.58-63.2-58.19-169.83,36.09-177.71,101.11-6.91,57.05,32.68,105.3,89.64,108.52,35.95,2,73.37-10.78,99.28-36C313.62,833,344.81,786.84,306.2,771.21Zm-46.07,32.73c-9.09,9.93-23.48,11.54-32.15,3.61s-8.32-22.41.77-32.34,23.48-11.54,32.14-3.6S269.22,794,260.13,803.94Z"/><path class="cls-1" d="M306.14,771.37s-2.64-1-7.63-2.94c-2.48-1-5.55-2.14-9.07-3.77A55.57,55.57,0,0,1,278,757.87a25.69,25.69,0,0,1-5.36-5.78,16.83,16.83,0,0,1-2.8-8.14,22,22,0,0,1,1.26-9.27,43,43,0,0,1,4.54-9c3.72-5.88,8.55-11.5,12.61-18.09a32.26,32.26,0,0,0,4.5-10.84,18.93,18.93,0,0,0,0-6,18.31,18.31,0,0,0-2.1-5.77,34.68,34.68,0,0,0-8.44-9.6,69.56,69.56,0,0,0-11-7.68,64.67,64.67,0,0,0-26.73-8.11,84.72,84.72,0,0,0-29.43,3.15A124.87,124.87,0,0,0,186.55,675a181.8,181.8,0,0,0-49.14,42.49,163.58,163.58,0,0,0-18.42,28,114.29,114.29,0,0,0-6.63,15.44,82.83,82.83,0,0,0-3.94,16.27c-2.89,22.24,1.73,45.47,13.52,64.09a90.68,90.68,0,0,0,21.85,24A92.93,92.93,0,0,0,171.87,880,104.71,104.71,0,0,0,187,883.52l3.81.52c1.27.17,2.55.23,3.82.35l1.9.16,1.89.07,3.85.12A136.78,136.78,0,0,0,231.73,882a134.07,134.07,0,0,0,49.75-21.21c1.71-1.24,3.46-2.4,5-3.73l2.41-1.92,1.19-1,1.14-1c1.49-1.36,3-2.67,4.43-4s2.77-2.77,4.08-4.2a125.91,125.91,0,0,0,13.32-17.39q2.75-4.38,4.92-8.69a78.1,78.1,0,0,0,3.63-8.55,42.21,42.21,0,0,0,2.57-16,23.55,23.55,0,0,0-4-12.28l-.8-1.16c-.28-.36-.6-.69-.88-1a16.2,16.2,0,0,0-1.76-1.83c-.61-.54-1.17-1.08-1.74-1.54l-1.71-1.22a32.9,32.9,0,0,0-5.26-3Zm.13-.32,1.91.85a34,34,0,0,1,5.35,2.94l1.75,1.22c.58.46,1.16,1,1.79,1.55a15.91,15.91,0,0,1,1.81,1.85c.3.33.63.66.92,1l.83,1.17a24.15,24.15,0,0,1,4.29,12.56,43,43,0,0,1-2.42,16.34,82.93,82.93,0,0,1-3.5,8.74q-2.1,4.41-4.79,8.9a126.22,126.22,0,0,1-13.08,17.92c-1.29,1.46-2.66,3-4.05,4.36s-2.94,2.79-4.43,4.21l-1.13,1.06-1.19,1-2.41,2c-1.58,1.39-3.33,2.62-5.05,3.92a132.67,132.67,0,0,1-50.45,22.51,131.19,131.19,0,0,1-30.26,3.08l-3.85-.11-2-.07-2-.15c-1.31-.13-2.64-.18-4-.36l-3.95-.52a108.76,108.76,0,0,1-15.7-3.65,96.3,96.3,0,0,1-29.11-15.36A93.09,93.09,0,0,1,119.16,843c-12.07-19.38-16.64-43.38-13.5-66.18A85,85,0,0,1,109.82,760a119.28,119.28,0,0,1,6.87-15.75A166,166,0,0,1,135.55,716a183.81,183.81,0,0,1,50-42.73A127.38,127.38,0,0,1,214.61,661a84.44,84.44,0,0,1,30.06-3,66.16,66.16,0,0,1,27.23,8.59A71.55,71.55,0,0,1,283,674.52a35.92,35.92,0,0,1,8.57,10,19.48,19.48,0,0,1,2.13,6.09,19.92,19.92,0,0,1-.08,6.31A33.34,33.34,0,0,1,288.89,708c-4.16,6.62-9,12.18-12.79,18a43.36,43.36,0,0,0-4.57,8.86,21.65,21.65,0,0,0-1.32,9.1,16.67,16.67,0,0,0,2.75,8,25.14,25.14,0,0,0,5.29,5.69,55.09,55.09,0,0,0,11.34,6.76c3.5,1.61,6.57,2.8,9.05,3.76C303.62,770,306.27,771.05,306.27,771.05Z"/><path class="cls-1" d="M260.25,804.07l-1.15,1.13-.62.62-.82.68a23,23,0,0,1-2.09,1.6,28,28,0,0,1-6.28,3.34,24.9,24.9,0,0,1-9.13,1.6,19.86,19.86,0,0,1-10.6-3.23,11.5,11.5,0,0,1-1.22-.89,10.93,10.93,0,0,1-1.22-1,19.21,19.21,0,0,1-2.08-2.27,18.36,18.36,0,0,1-3.13-5.69,23.09,23.09,0,0,1-.9-3.21,24.85,24.85,0,0,1-.37-3.36,23.45,23.45,0,0,1,.65-6.81,28.52,28.52,0,0,1,6.43-12.31c.91-.89,1.49-1.64,2.48-2.45.46-.39.91-.8,1.38-1.18l1.43-1a27.76,27.76,0,0,1,6.26-3.24,24.65,24.65,0,0,1,10.32-1.48,22.73,22.73,0,0,1,3.4.55,22.32,22.32,0,0,1,3.24,1.06,21.42,21.42,0,0,1,2.95,1.6,20.42,20.42,0,0,1,2.61,2l.15.13.08.06,0,0,.1.11.25.27.5.54a11.59,11.59,0,0,1,1,1.14,19.59,19.59,0,0,1,4.21,10.79,24.5,24.5,0,0,1-1.09,9.43,27.4,27.4,0,0,1-3,6.53,22.87,22.87,0,0,1-1.49,2.19l-.62.86-.59.67-1.06,1.22Zm-.25-.25,1-1.24.55-.68c.17-.27.37-.56.58-.88l.67-1c.24-.36.43-.79.66-1.21a27.08,27.08,0,0,0,1.32-2.92,24.2,24.2,0,0,0,1-3.61,21.82,21.82,0,0,0-.63-11.11c-.12-.39-.31-.77-.45-1.15a9,9,0,0,0-.49-1.15,15.79,15.79,0,0,0-1.26-2.22,18.24,18.24,0,0,0-1.5-2,10,10,0,0,0-1-1l-.53-.51-.26-.26,0,0,0,0-.07-.05-.13-.11a17.34,17.34,0,0,0-2.2-1.59,24.9,24.9,0,0,0-2.46-1.29,20.22,20.22,0,0,0-2.7-.86,20.48,20.48,0,0,0-2.85-.53,20.85,20.85,0,0,0-3,0,21.76,21.76,0,0,0-6,1.07,23.16,23.16,0,0,0-5.65,2.67l-1.32.88c-.41.31-.8.64-1.21,1a30.57,30.57,0,0,0-2.37,2.19,25.9,25.9,0,0,0-6.17,11,21.69,21.69,0,0,0-.77,6.18,18.74,18.74,0,0,0,1,6,21.81,21.81,0,0,0,1.11,2.74,20.27,20.27,0,0,0,1.54,2.44,16.14,16.14,0,0,0,1.91,2.21,10.26,10.26,0,0,0,1,.91,8.07,8.07,0,0,0,1.08.87,19.31,19.31,0,0,0,9.74,3.54,22.35,22.35,0,0,0,8.9-1.07,24.34,24.34,0,0,0,3.52-1.43,25.45,25.45,0,0,0,2.76-1.67c.39-.28.79-.52,1.13-.79l.93-.79.79-.68.62-.63,1.13-1.14Z"/><path class="cls-2" d="M191,718.25c6.17-1.23,9.56-6.1,15.05-9.12,5.71-3.14,11.12-3.22,17.22-5.15,10.61-3.35,7.57-14.64,1.17-20.64-9.92-9.3-27.22-.69-35.61,6.52C181,696.6,169.32,722.59,191,718.25Z"/><path class="cls-1" d="M191,718.08l1.53-.42a9.22,9.22,0,0,0,1.77-.68,13.8,13.8,0,0,0,2.25-1.22c.81-.51,1.66-1.17,2.59-1.87l2.94-2.39a29.11,29.11,0,0,1,7.9-4.64c3.16-1.25,6.77-1.89,10.39-2.9.89-.23,1.86-.57,2.66-.81a13.31,13.31,0,0,0,2.57-1.21,7.41,7.41,0,0,0,3.28-4.13,9.77,9.77,0,0,0-.16-5.63,17.19,17.19,0,0,0-2.78-5.37,19.38,19.38,0,0,0-2-2.29l-.24-.24-.31-.26-.64-.54c-.41-.26-.76-.56-1.21-.8a14.1,14.1,0,0,0-5.72-1.87,26,26,0,0,0-12.2,2.17,50.29,50.29,0,0,0-10.74,6.07,27.53,27.53,0,0,0-4.35,3.71,37.67,37.67,0,0,0-3.36,4.43,42.92,42.92,0,0,0-4.61,9.22c-1,3-1.45,6-.55,8.31a5.15,5.15,0,0,0,2.18,2.59,8,8,0,0,0,2.88,1,16.08,16.08,0,0,0,4.42,0l1.57-.23Zm.09.34h0l-1.58.3a19.12,19.12,0,0,1-4.56.22,8.7,8.7,0,0,1-3.23-.84,6.34,6.34,0,0,1-2.92-2.82c-1.42-2.69-1.29-6.13-.59-9.49a35.17,35.17,0,0,1,4.07-10.36,31.59,31.59,0,0,1,3.55-5c.33-.41.77-.85,1.15-1.24l.56-.52c.27-.25.42-.36.64-.55.82-.69,1.66-1.35,2.54-2a48.7,48.7,0,0,1,11.7-6.18,29.26,29.26,0,0,1,13.7-1.88,16.52,16.52,0,0,1,8.25,3.51l.62.55.31.27.34.35a21.85,21.85,0,0,1,2.24,2.67,19.24,19.24,0,0,1,3,6.19,11.89,11.89,0,0,1,0,6.84,9.35,9.35,0,0,1-4.3,5.11,15.38,15.38,0,0,1-2.82,1.24c-.59.18-1,.27-1.49.4s-.95.26-1.42.35c-3.77.84-7.33,1.31-10.45,2.3-.76.28-1.52.49-2.24.81s-1.48.62-2.1,1-1.28.72-1.88,1.11l-1.71,1.18c-2.17,1.58-4,3.07-5.68,4.1a17.3,17.3,0,0,1-2.29,1.25,9.18,9.18,0,0,1-1.8.71l-1.53.45Z"/><path class="cls-2" d="M139.9,765.93c6.87.21,15.5-3.76,15.71-9.77q-.42,3,2.16-4.39c1.9-4.3,3.55-8.73,6.14-12.64,1.72-2.61,4.34-4.23,5.3-7.46,1.77-5.92-1.18-7.9-7.2-8.36-14-1-24.34,10.66-30.38,21.91-3.21,6-3.86,12.63,1.39,18.21C134.56,765.06,137.08,765.85,139.9,765.93Z"/><path class="cls-1" d="M139.89,765.76h1.27l1.24-.09a23.51,23.51,0,0,0,2.47-.4c.41-.08.8-.22,1.2-.33s.8-.26,1.19-.4a13.73,13.73,0,0,0,2.28-1,9.54,9.54,0,0,0,1.06-.63,10.31,10.31,0,0,0,1-.71,8.9,8.9,0,0,0,.93-.8,7,7,0,0,0,.84-.89,5.2,5.2,0,0,0,.71-1,5.65,5.65,0,0,0,.54-1.07,6.15,6.15,0,0,0,.34-1.13,11.21,11.21,0,0,0,.12-1.15l1,.08,0,.39v.16s0,.13,0,0a.31.31,0,0,0-.08-.1.48.48,0,0,0-.29-.15.54.54,0,0,0-.25,0l-.08,0,0,0,.06-.12.15-.34c.2-.48.38-1,.56-1.5.35-1,.7-2.06,1-3.1h0v0l2.43-6a49.9,49.9,0,0,1,3-5.89c1-2,2.77-3.67,4-5.23a8.9,8.9,0,0,0,1.43-2.5c.07-.22.18-.45.22-.65l.19-.79a9.32,9.32,0,0,0,.17-1.37,3.73,3.73,0,0,0-.56-2.33,4,4,0,0,0-2-1.34,13.29,13.29,0,0,0-2.86-.59c-.48,0-1.08-.11-1.48-.09H160a8.89,8.89,0,0,0-1.51.12c-.49.06-1,.09-1.46.18a23,23,0,0,0-2.94.75,24.09,24.09,0,0,0-5.48,2.59c-.84.6-1.71,1.12-2.49,1.79l-1.21,1-1.14,1c-.78.67-1.46,1.47-2.2,2.19s-1.4,1.52-2,2.35A73.77,73.77,0,0,0,132.41,747a19.77,19.77,0,0,0-2,5.61,12.39,12.39,0,0,0,.36,6,12.63,12.63,0,0,0,3.3,5.22,10.21,10.21,0,0,0,5.88,1.93Zm0,.35h0a11.41,11.41,0,0,1-6.34-1.73,5.77,5.77,0,0,1-.64-.52l-.16-.13-.16-.17-.29-.3a14.81,14.81,0,0,1-1.1-1.26,14.48,14.48,0,0,1-1.79-2.86,14,14,0,0,1-1.3-6.74,19.37,19.37,0,0,1,1.6-6.75,53.11,53.11,0,0,1,3.12-5.87,50.38,50.38,0,0,1,3.88-5.45c.69-.88,1.46-1.7,2.21-2.53s1.57-1.61,2.45-2.33a33.64,33.64,0,0,1,5.5-4,28.05,28.05,0,0,1,6.31-2.66,25.94,25.94,0,0,1,3.37-.73c.58-.08,1.18-.1,1.76-.15a11.23,11.23,0,0,1,1.72,0l1.62.06c.68,0,1.16.1,1.75.16a15.79,15.79,0,0,1,3.44.83A6.62,6.62,0,0,1,170,725.3a6.16,6.16,0,0,1,.88,3.86,12.24,12.24,0,0,1-.29,1.83l-.22.78a7.61,7.61,0,0,1-.32.88,10.8,10.8,0,0,1-1.86,3.05c-1.5,1.77-3,3.06-4,4.9a49.16,49.16,0,0,0-3,5.59l-2.72,5.87,0,0c-.4,1-.79,2-1.22,3.07-.22.51-.44,1-.7,1.54a3.84,3.84,0,0,1-.22.39,1.79,1.79,0,0,1-.15.24.91.91,0,0,1-.2.19.56.56,0,0,1-.42.11.64.64,0,0,1-.33-.18.6.6,0,0,1-.11-.14.92.92,0,0,1-.07-.45c0-.1,0-.17,0-.25l.07-.44V756a.51.51,0,0,1,.57-.42.5.5,0,0,1,.42.57h0c-.08.45-.11.9-.23,1.34a9,9,0,0,1-.48,1.25,6.78,6.78,0,0,1-.68,1.13,6.84,6.84,0,0,1-.83,1,7.91,7.91,0,0,1-.93.9,9.5,9.5,0,0,1-1,.78,8.73,8.73,0,0,1-1.09.69,9.38,9.38,0,0,1-1.13.6,11,11,0,0,1-1.16.51,12.2,12.2,0,0,1-1.19.46c-.4.13-.8.28-1.21.38s-.81.24-1.23.31a23.31,23.31,0,0,1-2.5.43l-1.27.11-1.26,0Z"/><path class="cls-2" d="M152.12,800c-1.5-2-3.41-3.79-5.36-6.3-3.81-4.91-2.72-16.08-11-16-13.77.12-18,23.91-14.4,34.05,3.06,8.56,10.9,20.25,21.54,16.55,7.19-2.51,11.7-10.51,12.21-17.81C155.49,805.48,154.18,802.64,152.12,800Z"/><path class="cls-1" d="M152,800.09l-3.74-4.42c-.58-.72-1.32-1.43-1.95-2.37a14,14,0,0,1-1.64-3.24c-.95-2.4-1.57-5.3-3-8a6.89,6.89,0,0,0-3.13-3.16,7.84,7.84,0,0,0-4.72-.2c-3.29.71-6.13,3.28-8,6.51A31.82,31.82,0,0,0,122,796.29a36.11,36.11,0,0,0,0,12.05,19.47,19.47,0,0,0,.77,2.82l.57,1.42c.2.49.42.91.62,1.37a37.3,37.3,0,0,0,3,5.18c2.28,3.18,5.05,6,8.25,7.25a12.28,12.28,0,0,0,2.39.7,11.52,11.52,0,0,0,2.42,0,12.28,12.28,0,0,0,2.37-.47l1.21-.45,1-.49a19.12,19.12,0,0,0,6.71-6.44,22.65,22.65,0,0,0,3.08-7.64c.1-.64.21-1.18.25-1.79a12.76,12.76,0,0,0,.09-1.7,11.12,11.12,0,0,0-.07-1.55,8.42,8.42,0,0,0-.22-1.39,12,12,0,0,0-1.6-3.86c-.52-.82-.84-1.24-.84-1.24Zm.26-.23h0s.34.41.91,1.23a13.66,13.66,0,0,1,1.88,3.91,10.25,10.25,0,0,1,.35,1.45,11.64,11.64,0,0,1,.21,1.64,14.44,14.44,0,0,1,.09,1.75,18,18,0,0,1,0,1.93,24.23,24.23,0,0,1-2.28,8.63,19.1,19.1,0,0,1-7.15,8.19c-.46.25-.94.52-1.4.75l-.63.28-.32.14-.16.07-.08,0,0,0-.12,0a16,16,0,0,1-3.13.72,10,10,0,0,1-1.65.11l-1.67-.11a14.61,14.61,0,0,1-3.24-.92,18.13,18.13,0,0,1-5.49-3.7,29.34,29.34,0,0,1-4.1-5.08,42.93,42.93,0,0,1-3-5.78c-.21-.51-.45-1-.63-1.53l-.54-1.52a20.76,20.76,0,0,1-.78-3.3,38.44,38.44,0,0,1,.41-13,34.28,34.28,0,0,1,4.4-11.71,18.33,18.33,0,0,1,4.06-4.57,11.65,11.65,0,0,1,5.39-2.47,9.62,9.62,0,0,1,1.43-.16l.67,0a5.66,5.66,0,0,1,.75.05,7.07,7.07,0,0,1,2.75.73,7.85,7.85,0,0,1,3.46,3.89A27.15,27.15,0,0,1,144,786c.39,1.39.72,2.71,1.12,3.91a13.5,13.5,0,0,0,1.45,3.23c.59.91,1.33,1.65,1.89,2.37,1.18,1.41,2.14,2.49,2.78,3.24Z"/><path class="cls-2" d="M174.18,864c-8-2.29-25.41-10-18.39-20.76,2.9-4.48,9.39-9.22,14.35-11,7.83-2.88,13.62,1.05,19.78,5.55,2.64,1.93,4,4,7.54,4.55,3.67.56,8.25-2,11.47.62,5.78,4.66.65,16.89-3.9,20.61C196.72,870.31,183.61,866.67,174.18,864Z"/><path class="cls-1" d="M174.14,864.13l-1.6-.5c-1-.33-2.53-.89-4.4-1.67a53.38,53.38,0,0,1-6.56-3.29,25.75,25.75,0,0,1-3.67-2.67,14.17,14.17,0,0,1-3.29-3.92,8.25,8.25,0,0,1-.93-5.62,9.66,9.66,0,0,1,1-2.87l.38-.68c.17-.3.29-.42.43-.65l.86-1.21a30.05,30.05,0,0,1,4.48-4.47,37.06,37.06,0,0,1,5.4-3.71l1.49-.81,1.57-.69.4-.18.44-.15.79-.26c.51-.18,1.16-.3,1.75-.45a15.67,15.67,0,0,1,7.23.35,26.37,26.37,0,0,1,6.53,3.06c1,.62,2,1.28,2.94,2l1.46,1c.46.34.92.68,1.4,1.09a24.72,24.72,0,0,0,2.62,2,7.47,7.47,0,0,0,2.7,1c1.79.29,4-.39,6.46-.64a9.44,9.44,0,0,1,4.08.4,10.2,10.2,0,0,1,1,.45l.48.31.23.16.12.08.19.17,0,0,.6.59.3.29c.11.13.23.31.34.46.23.33.45.65.66,1a9.84,9.84,0,0,1,.42,1,8.63,8.63,0,0,1,.56,1.93,13.94,13.94,0,0,1,.21,1.91c0,.62,0,1.23,0,1.84a23.66,23.66,0,0,1-5.33,12.27,11.81,11.81,0,0,1-2.49,2.24c-.42.27-.78.54-1.23.79l-1.44.73a18,18,0,0,1-5.62,1.5,31.86,31.86,0,0,1-9.72-.52c-2.81-.54-5.21-1.17-7.16-1.73s-3.49-1-4.52-1.33Zm.09-.33,1.61.42c1,.26,2.58.69,4.56,1.1a53.67,53.67,0,0,0,7.18,1.07,30.16,30.16,0,0,0,9.15-.54,18.42,18.42,0,0,0,4.66-1.77l1-.62c.36-.25.75-.58,1.13-.87a9.33,9.33,0,0,0,1.77-1.78,22.14,22.14,0,0,0,4.3-10.49c0-.47.06-1,.07-1.42a12.06,12.06,0,0,0-.12-1.36,5.7,5.7,0,0,0-.34-1.26c-.08-.18-.14-.41-.23-.57a3.58,3.58,0,0,1-.25-.42c0-.08-.06-.15-.12-.24l-.3-.3-.59-.6,0,0c.26.23.05,0,.1.1l0,0-.12-.08-.22-.17c-.18-.07-.32-.19-.51-.25a6.31,6.31,0,0,0-2.63-.31c-1,0-2.13.23-3.32.36a18.23,18.23,0,0,1-1.87.14c-.31,0-.72,0-1.07,0l-.43-.05-.22,0h0l-.13,0-.12,0a10.71,10.71,0,0,1-3.74-1.47,27.59,27.59,0,0,1-2.85-2.29c-.39-.35-.85-.72-1.3-1.08l-1.35-1c-.93-.67-1.84-1.34-2.78-2a23.54,23.54,0,0,0-5.81-2.94,13.32,13.32,0,0,0-6.16-.48c-.5.12-1,.16-1.49.33l-.8.25-.34.1-.37.15-1.45.6c-.48.23-.95.47-1.41.71a35.68,35.68,0,0,0-9.55,7.37l-.91,1.17c-.13.17-.34.42-.41.54l-.36.58a8.28,8.28,0,0,0-1,2.44,7.24,7.24,0,0,0,.54,4.88,13.17,13.17,0,0,0,2.85,3.86,26.88,26.88,0,0,0,3.47,2.76,38.06,38.06,0,0,0,6.4,3.44,46.71,46.71,0,0,0,4.39,1.64Z"/><path class="cls-2" d="M272,815.88c-5.17-1.73-10.42,2.51-13.93,5.94s-5.76,6.81-10,9.28c-5.15,3-15.8,9.25-18,15.21-1.86,5.09.08,10.82,4.75,13.14,5.05,2.51,11.56,1.89,16.93,1.83,7.94-.09,14.13-2.41,19-9.29C275.82,844.88,285.87,820.53,272,815.88Z"/><path class="cls-1" d="M272,816.05l-.41-.11a5.69,5.69,0,0,0-1.2-.24,9.05,9.05,0,0,0-4.53.73,20.14,20.14,0,0,0-6,4.09c-1,1-2.07,2-3.14,3.21s-2.12,2.48-3.32,3.77a23,23,0,0,1-4.17,3.67c-1.61,1.08-3.26,2-4.92,3.14a61.4,61.4,0,0,0-9.77,7.54,14,14,0,0,0-3.43,5,10.12,10.12,0,0,0-.11,6,8.6,8.6,0,0,0,3.47,4.8,4.15,4.15,0,0,0,.64.38l.33.18c.09,0-.08,0,0,0l0,0,.1,0,.2.07,1.62.64,1.5.36c.49.14,1.07.17,1.6.27a41.61,41.61,0,0,0,6.72.22l3.46-.13.87,0,.37,0,.44,0,1.71-.12a20.2,20.2,0,0,0,11.35-4.33c.79-.6,1.44-1.37,2.17-2l1.84-2.28a46,46,0,0,0,3-5.07,73.64,73.64,0,0,0,4.27-10.12,32.33,32.33,0,0,0,1.71-9.08,15.88,15.88,0,0,0-.37-3.82,10.65,10.65,0,0,0-1.23-3,11.34,11.34,0,0,0-.82-1.13c-.31-.31-.6-.61-.88-.86l-.85-.65-.78-.44a8.77,8.77,0,0,0-1.1-.52l-.39-.16Zm.09-.33h0l.4.15a7.9,7.9,0,0,1,1.17.49,9.19,9.19,0,0,1,3.67,3.09,14.4,14.4,0,0,1,2.37,7.13,33.63,33.63,0,0,1-.7,9.73,50.78,50.78,0,0,1-3.57,11,38.29,38.29,0,0,1-3.07,5.61c-.7.94-1.38,1.8-2.11,2.7s-1.62,1.68-2.56,2.41a22.91,22.91,0,0,1-13.47,4.78l-1.72.05-.43,0h-1.35l-3.47,0a43.83,43.83,0,0,1-7.18-.48,17.9,17.9,0,0,1-1.83-.36l-1.87-.53-1.61-.68-.2-.09-.1,0,0,0-.14-.07-.43-.24a7.36,7.36,0,0,1-.83-.54,11,11,0,0,1-4.31-6.28,12.53,12.53,0,0,1,.32-7.36,15.75,15.75,0,0,1,4.11-5.77,57.75,57.75,0,0,1,10.34-7.48c1.71-1,3.49-2,5-2.9a23.74,23.74,0,0,0,4.18-3.26c2.49-2.4,4.63-4.82,6.84-6.65a23.8,23.8,0,0,1,6.2-4,9.75,9.75,0,0,1,4.69-.77,6,6,0,0,1,1.24.23l.42.1Z"/><polygon class="cls-1" points="108.42 771.39 127.04 767.59 108.85 773.12 108.42 771.39"/><polygon class="cls-1" points="109.79 762.6 128.41 758.79 110.23 764.33 109.79 762.6"/><polygon class="cls-1" points="113.08 751.89 131.71 748.08 113.52 753.61 113.08 751.89"/><polygon class="cls-1" points="117.76 742 136.38 738.19 118.19 743.72 117.76 742"/><polygon class="cls-1" points="124.35 732.38 142.97 728.58 124.79 734.11 124.35 732.38"/><polygon class="cls-1" points="132.04 719.47 150.67 715.66 132.48 721.2 132.04 719.47"/><polygon class="cls-1" points="143.03 708.48 161.66 704.68 143.47 710.21 143.03 708.48"/><polygon class="cls-1" points="152.92 698.04 171.54 694.24 153.36 699.77 152.92 698.04"/><polygon class="cls-1" points="165.28 687.33 183.91 683.52 165.72 689.05 165.28 687.33"/><polygon class="cls-1" points="107.04 780.73 125.67 776.93 107.48 782.46 107.04 780.73"/><polygon class="cls-1" points="105.67 790.35 124.29 786.54 106.11 792.08 105.67 790.35"/><polygon class="cls-1" points="106.49 800.24 125.12 796.43 106.93 801.97 106.49 800.24"/><polygon class="cls-1" points="108.42 809.85 127.04 806.05 108.85 811.58 108.42 809.85"/><polygon class="cls-1" points="110.06 818.92 128.69 815.11 110.5 820.64 110.06 818.92"/><polygon class="cls-1" points="113.08 827.99 131.71 824.18 113.52 829.71 113.08 827.99"/><polygon class="cls-1" points="117.76 837.33 136.38 833.52 118.19 839.05 117.76 837.33"/><polygon class="cls-1" points="122.67 845.58 140.5 841.21 123.17 847.28 122.67 845.58"/><polygon class="cls-1" points="128.9 853.57 145.45 847.8 129.57 855.22 128.9 853.57"/><polygon class="cls-1" points="135.98 860.75 150.67 854.4 136.78 862.34 135.98 860.75"/><polygon class="cls-1" points="145.5 867.12 156.71 860.72 146.49 868.6 145.5 867.12"/><polygon class="cls-1" points="152.86 872.93 163.85 865.39 153.97 874.33 152.86 872.93"/><polygon class="cls-1" points="163.3 877.05 174.29 869.51 164.41 878.45 163.3 877.05"/><polygon class="cls-1" points="173.91 881 182.26 873.08 175.23 882.19 173.91 881"/><polygon class="cls-1" points="185.06 883.35 190.78 875.28 186.6 884.24 185.06 883.35"/><polygon class="cls-1" points="196.79 884.35 200.12 876.65 198.49 884.88 196.79 884.35"/><polygon class="cls-1" points="208.58 885.02 210.83 876.65 210.34 885.31 208.58 885.02"/><polygon class="cls-1" points="218.18 885.2 218.8 876.93 219.96 885.14 218.18 885.2"/><polygon class="cls-1" points="227.83 883.48 226.49 875.28 229.54 883.01 227.83 883.48"/><polygon class="cls-1" points="237.17 880.73 235.83 872.53 238.88 880.26 237.17 880.73"/><polygon class="cls-1" points="248.16 877.71 246.82 869.51 249.87 877.24 248.16 877.71"/><polygon class="cls-1" points="258.95 873.79 255.61 865.94 260.51 872.92 258.95 873.79"/><polygon class="cls-1" points="269.67 868.29 266.32 860.44 271.22 867.43 269.67 868.29"/><path class="cls-2" d="M373.89,716.84l26.46,157.81L642.63,701.92Zm62.57,88.22-8-47.71,81.25-4.51Z"/><path class="cls-1" d="M374.05,717,401,874.55l-1-.4L641.84,700.82l.86,2.45-33.59,1.93L575.52,707l-33.6,1.78-33.6,1.73-33.6,1.72-33.6,1.62-16.81.82-16.8.76Zm-.17-.26,33.57-2.23,16.79-1.09L441,712.33l33.58-2.1,33.58-2,33.59-2,33.59-1.94L609,702.38l33.59-1.81h0a1.35,1.35,0,0,1,1.42,1.28,1.36,1.36,0,0,1-.57,1.18L400.71,875.16a.62.62,0,0,1-.86-.14.66.66,0,0,1-.11-.26l-26-157.89a.14.14,0,0,1,.12-.16Z"/><path class="cls-1" d="M436.33,805.08l-8.47-47.63a.61.61,0,0,1,.49-.71h.08l81.21-5.17a1.27,1.27,0,0,1,1.35,1.19,1.29,1.29,0,0,1-.51,1.11l0,0-9.1,6.6c-3.05,2.18-6.07,4.4-9.13,6.56l-9.18,6.5L473.81,780l-9.25,6.38-9.3,6.33c-3.11,2.1-6.19,4.23-9.33,6.29s-6.24,4.16-9.39,6.2h0a.13.13,0,0,1-.19,0A.08.08,0,0,1,436.33,805.08Zm.23-.27c2.9-2.26,5.83-4.48,8.75-6.72s6-4.51,9-6.76l9-6.73,9.06-6.67,9.09-6.62,9.13-6.57c3-2.19,6.12-4.32,9.18-6.49L509,751.8l.81,2.31L428.5,758l.57-.71Z"/><path class="cls-2" d="M373.84,711.06l.05,5.78,26.41,152,242.33-167,0-5.78ZM438.29,799l-8-47.71,79.37-4.18Z"/><path class="cls-1" d="M374,711.19l.07,5.65v0L400.9,868.77l-.95-.4L641.86,700.81l-.58,1.12-.06-5.78,1.43,1.34-33.59,1.93-33.59,1.83L541.87,703l-33.6,1.73-33.6,1.71-33.61,1.63-16.8.81-16.8.77Zm-.14-.26,33.57-2.23,16.79-1.09L441,706.55l33.58-2.1,33.58-2,33.59-2,33.58-1.94,33.6-1.9,33.59-1.81h0a1.36,1.36,0,0,1,1.42,1.28v.07l0,5.78h0a1.35,1.35,0,0,1-.58,1.12L400.65,869.38a.63.63,0,0,1-.86-.15.87.87,0,0,1-.1-.25L373.74,716.87v0l0-5.79A.13.13,0,0,1,373.83,710.93Z"/><path class="cls-1" d="M438.15,799l-8.48-47.63a.62.62,0,0,1,.5-.72h.08l79.34-4.84a1.27,1.27,0,0,1,1.35,1.19,1.25,1.25,0,0,1-.51,1.1l0,0-8.87,6.56c-3,2.17-5.91,4.38-8.9,6.52l-8.94,6.45-9,6.4-9,6.35-9.07,6.28c-3,2.08-6,4.2-9.1,6.25s-6.08,4.14-9.15,6.16h0a.13.13,0,0,1-.19,0S438.16,799,438.15,799Zm.23-.28c2.82-2.25,5.67-4.45,8.51-6.67s5.84-4.48,8.75-6.72l8.78-6.69,8.82-6.63,8.85-6.58,8.89-6.52c3-2.18,6-4.3,8.95-6.46l9-6.41.81,2.31-79.4,3.54.58-.73Z"/></svg>