<svg id="Calque_1" data-name="Calque 1" xmlns="http://www.w3.org/2000/svg" viewBox="0 0 1080 1080"><defs><style>.cls-1{fill:#5d657f;}.cls-2{fill:#df9f62;}.cls-3{fill:#f1c38f;}.cls-4{fill:#be8151;}.cls-5{fill:#efdf17;}.cls-6{fill:#6d6c6d;}.cls-7{fill:#8e8c8c;}.cls-8{fill:#b11f24;}.cls-9{fill:#ed2926;}.cls-10{fill:#da1f26;}.cls-11{fill:#ef5555;}.cls-12{fill:#e97fb2;}.cls-13{fill:#5c9140;}.cls-14{fill:#85c340;}.cls-15{fill:#77af43;}.cls-16{fill:#a3cf63;}.cls-17{fill:#64c4b0;}.cls-18{fill:#881a51;}.cls-19{fill:#ee5ca0;}.cls-20{fill:#d63c89;}.cls-21{fill:#ef9bc2;}.cls-22{fill:#a4d06f;}.cls-23{fill:#998731;}.cls-24{fill:#c8b72e;}.cls-25{fill:#f3e87f;}.cls-26{fill:#e1e0e5;}.cls-27{fill:#c6c5c5;}.cls-28{fill:#c4834e;}</style></defs><polyline class="cls-1" points="15.54 857.46 1061.52 885.27 1027.03 212.34 15.54 857.46"/><rect class="cls-2" x="15.54" y="212.34" width="1011.49" height="645.12"/><rect class="cls-3" x="46.92" y="241.75" width="951.03" height="586.3"/><polygon class="cls-4" points="288.86 315.25 325.75 467.27 256.59 475.45 288.86 315.25"/><path class="cls-5" d="M119.11,326.37l168-23.48s17.21,125.76,24.52,148.72c0,0-8.87,19.83-75.66,26.61s-96,8.38-96,8.38Z"/><polygon class="cls-6" points="204.33 314.94 192.97 329.02 207.1 317.96 204.33 314.94"/><polygon class="cls-7" points="205.54 315.8 198.19 323.55 206.47 316.73 205.54 315.8"/><path class="cls-8" d="M216.23,307c5.09,5.47,6.89,12.09,4,14.77s-9.35.41-14.44-5.06-6.9-12.09-4-14.77S211.13,301.47,216.23,307Z"/><path class="cls-9" d="M206.12,307.55l13.73-17.48s5.31,10.28,13.33,13.45l-17.3,13.08S208.05,317.32,206.12,307.55Z"/><path class="cls-10" d="M233.45,290.79c4.45,4.78,6,10.55,3.5,12.89s-8.15.36-12.6-4.42-6-10.55-3.5-12.89S229,286,233.45,290.79Z"/><polygon class="cls-11" points="223.42 301.18 211.01 312.97 213.95 314.31 228.9 304.66 223.42 301.18"/><polygon class="cls-4" points="277.44 530.39 314.33 682.41 245.18 690.6 277.44 530.39"/><path class="cls-12" d="M107.69,541.52l168-23.48s17.22,125.76,24.53,148.72c0,0-8.88,19.83-75.67,26.61s-96,8.38-96,8.38Z"/><polygon class="cls-6" points="192.92 530.09 181.55 544.17 195.68 533.11 192.92 530.09"/><polygon class="cls-7" points="194.12 530.95 186.77 538.7 195.06 531.89 194.12 530.95"/><path class="cls-13" d="M204.81,522.1c5.1,5.48,6.89,12.09,4,14.77s-9.34.41-14.44-5.06-6.9-12.09-4-14.77S199.72,516.62,204.81,522.1Z"/><path class="cls-14" d="M194.7,522.71l13.73-17.49s5.31,10.29,13.34,13.45l-17.3,13.08S196.64,532.47,194.7,522.71Z"/><path class="cls-15" d="M222,505.94c4.44,4.78,6,10.55,3.5,12.89s-8.16.36-12.61-4.42-6-10.54-3.49-12.88S217.59,501.17,222,505.94Z"/><polygon class="cls-16" points="212.01 516.33 199.6 528.12 202.53 529.46 217.49 519.81 212.01 516.33"/><polygon class="cls-4" points="438.09 393.55 474.98 545.57 405.82 553.75 438.09 393.55"/><path class="cls-17" d="M268.34,404.67l168-23.47S453.59,507,460.9,529.91c0,0-8.88,19.84-75.67,26.61s-96,8.39-96,8.39Z"/><polygon class="cls-6" points="353.56 393.25 342.2 407.32 356.33 396.26 353.56 393.25"/><polygon class="cls-7" points="354.77 394.11 347.42 401.85 355.7 395.04 354.77 394.11"/><path class="cls-18" d="M365.46,385.25c5.1,5.48,6.89,12.09,4,14.77s-9.35.42-14.44-5.06-6.9-12.09-4-14.77S360.36,379.77,365.46,385.25Z"/><path class="cls-19" d="M355.35,385.86l13.73-17.48s5.31,10.28,13.33,13.44l-17.3,13.08S357.28,395.62,355.35,385.86Z"/><path class="cls-20" d="M382.68,369.1c4.45,4.78,6,10.54,3.5,12.88s-8.15.37-12.6-4.41-6-10.55-3.5-12.89S378.24,364.32,382.68,369.1Z"/><polygon class="cls-21" points="372.65 379.48 360.24 391.27 363.18 392.61 378.13 382.97 372.65 379.48"/><polygon class="cls-4" points="506.83 575.19 543.72 727.21 474.56 735.39 506.83 575.19"/><path class="cls-22" d="M337.08,586.32l168-23.48s17.22,125.76,24.53,148.71c0,0-8.87,19.84-75.67,26.61s-96,8.39-96,8.39Z"/><polygon class="cls-6" points="422.3 574.89 410.94 588.96 425.07 577.91 422.3 574.89"/><polygon class="cls-7" points="423.51 575.75 416.16 583.5 424.45 576.68 423.51 575.75"/><path class="cls-23" d="M434.2,566.9c5.1,5.47,6.9,12.09,4,14.77s-9.35.41-14.44-5.06-6.9-12.09-4-14.77S429.1,561.42,434.2,566.9Z"/><path class="cls-5" d="M424.09,567.5,437.82,550s5.31,10.29,13.34,13.45l-17.3,13.07S426,577.26,424.09,567.5Z"/><path class="cls-24" d="M451.43,550.74c4.44,4.78,6,10.55,3.5,12.89s-8.16.36-12.61-4.42-6-10.55-3.5-12.88S447,546,451.43,550.74Z"/><polygon class="cls-25" points="441.4 561.12 428.98 572.91 431.92 574.25 446.87 564.61 441.4 561.12"/><polygon class="cls-4" points="647.51 776.01 973.13 737.87 893.97 311.94 678.88 766.22 654.84 762.23 647.51 776.01"/><path class="cls-26" d="M600.15,477.27a11.28,11.28,0,0,1,10.45-2.16,9.24,9.24,0,1,0-1-5.8,10.77,10.77,0,0,0-1.81.68c-2.56,1.19-7.82-.8-10.21-1.81l-3.48-21.47c.31-.26.59-.48.94-.79a11.32,11.32,0,0,1,10.47-2.16,9.23,9.23,0,1,0-1-5.8,11,11,0,0,0-1.81.69c-2.56,1.18-7.83-.8-10.21-1.82L589,415.36c.32-.26.6-.48,1-.78a11.34,11.34,0,0,1,10.46-2.17,9.24,9.24,0,1,0-1-5.8,12.06,12.06,0,0,0-1.81.69c-2.56,1.18-7.83-.8-10.21-1.82L584,384l.94-.78a11.3,11.3,0,0,1,10.46-2.16,9.23,9.23,0,1,0-1-5.8,11.08,11.08,0,0,0-1.8.68c-2.57,1.19-7.83-.79-10.22-1.81l-1.84-11.38L894,311.94,961,725.2,647.51,776l-2.57-15.84c.32-.25.6-.47.95-.78a11.33,11.33,0,0,1,10.46-2.16,9.25,9.25,0,1,0-1-5.8,9.89,9.89,0,0,0-1.81.69c-2.56,1.18-7.84-.81-10.22-1.82l-3.48-21.48.95-.77a11.32,11.32,0,0,1,10.45-2.17,9.24,9.24,0,1,0-1-5.8,10.14,10.14,0,0,0-1.8.69c-2.57,1.18-7.84-.8-10.23-1.82l-3.47-21.47,1-.78a11.32,11.32,0,0,1,10.45-2.17,9.24,9.24,0,1,0-1-5.8,11.67,11.67,0,0,0-1.81.69c-2.56,1.18-7.83-.8-10.21-1.82l-3.48-21.46c.31-.27.59-.48.94-.79a11.34,11.34,0,0,1,10.46-2.17,9.23,9.23,0,1,0-1-5.79,10.17,10.17,0,0,0-1.81.69c-2.56,1.18-7.84-.81-10.21-1.82l-3.49-21.47c.32-.27.6-.48.95-.79A11.35,11.35,0,0,1,636,631.83a9.23,9.23,0,1,0-1-5.79,10.44,10.44,0,0,0-1.8.69c-2.56,1.18-7.84-.8-10.22-1.82l-3.48-21.47,1-.78a11.28,11.28,0,0,1,10.45-2.16,9.25,9.25,0,1,0-1-5.81,9.86,9.86,0,0,0-1.8.69c-2.57,1.18-7.84-.8-10.22-1.81l-3.48-21.47.94-.79a11.3,11.3,0,0,1,10.46-2.16,9.24,9.24,0,1,0-1-5.81,14.83,14.83,0,0,0-1.81.69c-2.56,1.19-7.83-.8-10.21-1.81l-3.49-21.47c.32-.26.6-.48.95-.79a11.33,11.33,0,0,1,10.46-2.16,9.24,9.24,0,1,0-1-5.8,11,11,0,0,0-1.81.69c-2.56,1.18-7.84-.8-10.21-1.82l-3.49-21.47c.31-.26.6-.48,1-.78a11.32,11.32,0,0,1,10.45-2.17,9.24,9.24,0,1,0-1-5.79,11.08,11.08,0,0,0-1.8.68c-2.56,1.18-7.83-.8-10.22-1.82l-3.48-21.47C599.51,477.8,599.79,477.58,600.15,477.27Z"/><rect class="cls-27" x="621.52" y="368.62" width="265.96" height="3.18" transform="translate(-49.52 125.53) rotate(-9.21)"/><rect class="cls-27" x="626.6" y="399.97" width="265.96" height="3.18" transform="translate(-54.48 126.74) rotate(-9.21)"/><rect class="cls-27" x="631.69" y="431.32" width="265.96" height="3.18" transform="translate(-59.43 127.96) rotate(-9.21)"/><rect class="cls-27" x="636.77" y="462.66" width="265.96" height="3.18" transform="translate(-64.38 129.17) rotate(-9.21)"/><rect class="cls-27" x="641.85" y="494.01" width="265.96" height="3.18" transform="translate(-69.33 130.39) rotate(-9.21)"/><rect class="cls-27" x="646.93" y="525.36" width="265.96" height="3.18" transform="translate(-74.28 131.62) rotate(-9.21)"/><rect class="cls-27" x="652.02" y="556.7" width="265.96" height="3.18" transform="translate(-79.23 132.83) rotate(-9.21)"/><rect class="cls-27" x="657.1" y="588.05" width="265.96" height="3.17" transform="translate(-84.18 134.04) rotate(-9.21)"/><rect class="cls-27" x="662.18" y="619.4" width="265.96" height="3.17" transform="translate(-89.14 135.27) rotate(-9.21)"/><rect class="cls-27" x="667.27" y="650.74" width="265.96" height="3.17" transform="translate(-94.09 136.48) rotate(-9.21)"/><polygon class="cls-27" points="936.84 663.96 674.32 706.53 673.8 703.39 936.34 660.83 936.84 663.96"/><polygon class="cls-27" points="941.93 695.31 679.4 737.87 678.88 734.74 941.41 692.17 941.93 695.31"/><polygon class="cls-6" points="753.43 342 742.07 356.07 756.19 345.01 753.43 342"/><polygon class="cls-7" points="754.64 342.86 747.29 350.6 755.58 343.79 754.64 342.86"/><path class="cls-18" d="M765.33,334c5.09,5.48,6.89,12.09,4,14.78s-9.35.41-14.45-5.07-6.89-12.08-4-14.77S760.23,328.53,765.33,334Z"/><path class="cls-19" d="M755.21,334.61,769,317.13s5.31,10.28,13.33,13.44L765,343.65S757.15,344.37,755.21,334.61Z"/><path class="cls-20" d="M782.55,317.85c4.45,4.78,6,10.55,3.51,12.88s-8.16.37-12.61-4.41-6-10.55-3.5-12.89S778.11,313.07,782.55,317.85Z"/><polygon class="cls-21" points="772.53 328.23 760.11 340.02 763.05 341.36 778 331.72 772.53 328.23"/><polyline class="cls-28" points="46.92 241.75 997.94 241.75 997.94 828.05 991.63 249.92 46.92 241.75"/><polyline class="cls-28" points="46.92 249.92 53.77 819.1 953.95 828.05 46.92 828.05 46.92 249.92"/></svg>